<?xml version="1.0" encoding="UTF-8" standalone="no"?>
<!DOCTYPE svg PUBLIC "-//W3C//DTD SVG 1.1//EN"
 "http://www.w3.org/Graphics/SVG/1.1/DTD/svg11.dtd">
<!-- Generated by graphviz version 14.0.1 (20251006.0113)
 -->
<!-- Title: Graphical Class Hierarchy Pages: 1 -->
<svg width="303pt" height="142pt"
 viewBox="0.00 0.00 303.00 142.00" xmlns="http://www.w3.org/2000/svg" xmlns:xlink="http://www.w3.org/1999/xlink">
<g id="graph0" class="graph" transform="scale(1 1) rotate(0) translate(4 138)">
<title>Graphical Class Hierarchy</title>
<!-- Node0 -->
<g id="Node000000" class="node">
<title>Node0</title>
<g id="a_Node000000"><a xlink:title=" ">
<polygon fill="#e0e0e0" stroke="#999999" points="70,-77 0,-77 0,-57 70,-57 70,-77"/>
<text xml:space="preserve" text-anchor="middle" x="35" y="-63.5" font-family="Helvetica,sans-Serif" font-size="10.00">testing::Test</text>
</a>
</g>
</g>
<!-- Node1 -->
<g id="Node000001" class="node">
<title>Node1</title>
<g id="a_Node000001"><a xlink:href="class_language_translator_comprehensive_test.html" target="_top" xlink:title=" ">
<polygon fill="white" stroke="#666666" points="294.5,-134 106,-134 106,-114 294.5,-114 294.5,-134"/>
<text xml:space="preserve" text-anchor="middle" x="200.25" y="-120.5" font-family="Helvetica,sans-Serif" font-size="10.00">LanguageTranslatorComprehensiveTest</text>
</a>
</g>
</g>
<!-- Node0&#45;&gt;Node1 -->
<g id="edge1_Node000000_Node000001" class="edge">
<title>Node0&#45;&gt;Node1</title>
<g id="a_edge1_Node000000_Node000001"><a xlink:title=" ">
<path fill="none" stroke="#63b8ff" d="M61.61,-83.29C74.5,-90.86 90.62,-99.4 106,-105 115.31,-108.39 125.39,-111.24 135.35,-113.61"/>
<polygon fill="#63b8ff" stroke="#63b8ff" points="63.7,-80.46 53.34,-78.28 60.08,-86.45 63.7,-80.46"/>
</a>
</g>
</g>
<!-- Node2 -->
<g id="Node000002" class="node">
<title>Node2</title>
<g id="a_Node000002"><a xlink:href="class_language_translator_test.html" target="_top" xlink:title=" ">
<polygon fill="white" stroke="#666666" points="260.38,-96 140.12,-96 140.12,-76 260.38,-76 260.38,-96"/>
<text xml:space="preserve" text-anchor="middle" x="200.25" y="-82.5" font-family="Helvetica,sans-Serif" font-size="10.00">LanguageTranslatorTest</text>
</a>
</g>
</g>
<!-- Node0&#45;&gt;Node2 -->
<g id="edge2_Node000000_Node000002" class="edge">
<title>Node0&#45;&gt;Node2</title>
<g id="a_edge2_Node000000_Node000002"><a xlink:title=" ">
<path fill="none" stroke="#63b8ff" d="M81.58,-72.3C99.57,-74.4 120.49,-76.83 139.66,-79.06"/>
<polygon fill="#63b8ff" stroke="#63b8ff" points="82.06,-68.84 71.73,-71.16 81.25,-75.79 82.06,-68.84"/>
</a>
</g>
</g>
<!-- Node3 -->
<g id="Node000003" class="node">
<title>Node3</title>
<g id="a_Node000003"><a xlink:href="class_safe_chrono_calculator_test.html" target="_top" xlink:title=" ">
<polygon fill="white" stroke="#666666" points="265.62,-58 134.88,-58 134.88,-38 265.62,-38 265.62,-58"/>
<text xml:space="preserve" text-anchor="middle" x="200.25" y="-44.5" font-family="Helvetica,sans-Serif" font-size="10.00">SafeChronoCalculatorTest</text>
</a>
</g>
</g>
<!-- Node0&#45;&gt;Node3 -->
<g id="edge3_Node000000_Node000003" class="edge">
<title>Node0&#45;&gt;Node3</title>
<g id="a_edge3_Node000000_Node000003"><a xlink:title=" ">
<path fill="none" stroke="#63b8ff" d="M81.65,-61.69C98,-59.78 116.75,-57.6 134.41,-55.55"/>
<polygon fill="#63b8ff" stroke="#63b8ff" points="81.25,-58.21 71.73,-62.84 82.06,-65.16 81.25,-58.21"/>
</a>
</g>
</g>
<!-- Node4 -->
<g id="Node000004" class="node">
<title>Node4</title>
<g id="a_Node000004"><a xlink:href="class_simple_coverage_boost_test.html" target="_top" xlink:title=" ">
<polygon fill="white" stroke="#666666" points="266.38,-20 134.12,-20 134.12,0 266.38,0 266.38,-20"/>
<text xml:space="preserve" text-anchor="middle" x="200.25" y="-6.5" font-family="Helvetica,sans-Serif" font-size="10.00">SimpleCoverageBoostTest</text>
</a>
</g>
</g>
<!-- Node0&#45;&gt;Node4 -->
<g id="edge4_Node000000_Node000004" class="edge">
<title>Node0&#45;&gt;Node4</title>
<g id="a_edge4_Node000000_Node000004"><a xlink:title=" ">
<path fill="none" stroke="#63b8ff" d="M61.61,-50.71C74.5,-43.14 90.62,-34.6 106,-29 115.31,-25.61 125.39,-22.76 135.35,-20.39"/>
<polygon fill="#63b8ff" stroke="#63b8ff" points="60.08,-47.55 53.34,-55.72 63.7,-53.54 60.08,-47.55"/>
</a>
</g>
</g>
</g>
</svg>
