<?xml version="1.0" encoding="UTF-8" standalone="no"?>
<!DOCTYPE svg PUBLIC "-//W3C//DTD SVG 1.1//EN"
 "http://www.w3.org/Graphics/SVG/1.1/DTD/svg11.dtd">
<!-- Generated by graphviz version 14.0.1 (20251006.0113)
 -->
<!-- Title: src/LanguageTranslator/header/LanguageTranslator.h Pages: 1 -->
<svg width="408pt" height="152pt"
 viewBox="0.00 0.00 408.00 152.00" xmlns="http://www.w3.org/2000/svg" xmlns:xlink="http://www.w3.org/1999/xlink">
<g id="graph0" class="graph" transform="scale(1 1) rotate(0) translate(4 148)">
<title>src/LanguageTranslator/header/LanguageTranslator.h</title>
<!-- Node1 -->
<g id="Node000001" class="node">
<title>Node1</title>
<g id="a_Node000001"><a xlink:title="Console&#45;based language translator main interface.">
<polygon fill="#999999" stroke="#666666" points="255.5,-144 110.5,-144 110.5,-112 255.5,-112 255.5,-144"/>
<text xml:space="preserve" text-anchor="start" x="118.5" y="-130.5" font-family="Helvetica,sans-Serif" font-size="10.00">src/LanguageTranslator</text>
<text xml:space="preserve" text-anchor="middle" x="183" y="-118.5" font-family="Helvetica,sans-Serif" font-size="10.00">/header/LanguageTranslator.h</text>
</a>
</g>
</g>
<!-- Node2 -->
<g id="Node000002" class="node">
<title>Node2</title>
<g id="a_Node000002"><a xlink:title=" ">
<polygon fill="#e0e0e0" stroke="#999999" points="40,-20 0,-20 0,0 40,0 40,-20"/>
<text xml:space="preserve" text-anchor="middle" x="20" y="-6.5" font-family="Helvetica,sans-Serif" font-size="10.00">string</text>
</a>
</g>
</g>
<!-- Node1&#45;&gt;Node2 -->
<g id="edge1_Node000001_Node000002" class="edge">
<title>Node1&#45;&gt;Node2</title>
<g id="a_edge1_Node000001_Node000002"><a xlink:title=" ">
<path fill="none" stroke="#63b8ff" d="M110.22,-116.68C83.54,-109.43 55.2,-97.06 36,-76 25.09,-64.03 21.32,-45.83 20.14,-31.74"/>
<polygon fill="#63b8ff" stroke="#63b8ff" points="23.64,-31.59 19.73,-21.75 16.65,-31.88 23.64,-31.59"/>
</a>
</g>
</g>
<!-- Node3 -->
<g id="Node000003" class="node">
<title>Node3</title>
<g id="a_Node000003"><a xlink:title=" ">
<polygon fill="#e0e0e0" stroke="#999999" points="168.5,-20 125.5,-20 125.5,0 168.5,0 168.5,-20"/>
<text xml:space="preserve" text-anchor="middle" x="147" y="-6.5" font-family="Helvetica,sans-Serif" font-size="10.00">vector</text>
</a>
</g>
</g>
<!-- Node1&#45;&gt;Node3 -->
<g id="edge2_Node000001_Node000003" class="edge">
<title>Node1&#45;&gt;Node3</title>
<g id="a_edge2_Node000001_Node000003"><a xlink:title=" ">
<path fill="none" stroke="#63b8ff" d="M178.29,-111.84C171.9,-91.22 160.44,-54.29 153.3,-31.31"/>
<polygon fill="#63b8ff" stroke="#63b8ff" points="156.68,-30.4 150.38,-21.88 150,-32.47 156.68,-30.4"/>
</a>
</g>
</g>
<!-- Node4 -->
<g id="Node000004" class="node">
<title>Node4</title>
<g id="a_Node000004"><a xlink:title=" ">
<polygon fill="#e0e0e0" stroke="#999999" points="259.38,-76 176.62,-76 176.62,-56 259.38,-56 259.38,-76"/>
<text xml:space="preserve" text-anchor="middle" x="218" y="-62.5" font-family="Helvetica,sans-Serif" font-size="10.00">unordered_map</text>
</a>
</g>
</g>
<!-- Node1&#45;&gt;Node4 -->
<g id="edge3_Node000001_Node000004" class="edge">
<title>Node1&#45;&gt;Node4</title>
<g id="a_edge3_Node000001_Node000004"><a xlink:title=" ">
<path fill="none" stroke="#63b8ff" d="M192.01,-111.55C196.52,-103.82 202.02,-94.4 206.79,-86.21"/>
<polygon fill="#63b8ff" stroke="#63b8ff" points="209.73,-88.12 211.75,-77.72 203.69,-84.59 209.73,-88.12"/>
</a>
</g>
</g>
<!-- Node5 -->
<g id="Node000005" class="node">
<title>Node5</title>
<g id="a_Node000005"><a xlink:title=" ">
<polygon fill="#e0e0e0" stroke="#999999" points="328.62,-76 277.38,-76 277.38,-56 328.62,-56 328.62,-76"/>
<text xml:space="preserve" text-anchor="middle" x="303" y="-62.5" font-family="Helvetica,sans-Serif" font-size="10.00">memory</text>
</a>
</g>
</g>
<!-- Node1&#45;&gt;Node5 -->
<g id="edge4_Node000001_Node000005" class="edge">
<title>Node1&#45;&gt;Node5</title>
<g id="a_edge4_Node000001_Node000005"><a xlink:title=" ">
<path fill="none" stroke="#63b8ff" d="M213.9,-111.55C232.39,-102.3 255.75,-90.63 273.9,-81.55"/>
<polygon fill="#63b8ff" stroke="#63b8ff" points="275.45,-84.69 282.83,-77.08 272.32,-78.43 275.45,-84.69"/>
</a>
</g>
</g>
<!-- Node6 -->
<g id="Node000006" class="node">
<title>Node6</title>
<g id="a_Node000006"><a xlink:title=" ">
<polygon fill="#e0e0e0" stroke="#999999" points="399.75,-76 346.25,-76 346.25,-56 399.75,-56 399.75,-76"/>
<text xml:space="preserve" text-anchor="middle" x="373" y="-62.5" font-family="Helvetica,sans-Serif" font-size="10.00">iostream</text>
</a>
</g>
</g>
<!-- Node1&#45;&gt;Node6 -->
<g id="edge5_Node000001_Node000006" class="edge">
<title>Node1&#45;&gt;Node6</title>
<g id="a_edge5_Node000001_Node000006"><a xlink:title=" ">
<path fill="none" stroke="#63b8ff" d="M231.93,-111.55C264.1,-101.39 305.58,-88.29 335.22,-78.93"/>
<polygon fill="#63b8ff" stroke="#63b8ff" points="336.03,-82.35 344.51,-76 333.92,-75.67 336.03,-82.35"/>
</a>
</g>
</g>
<!-- Node7 -->
<g id="Node000007" class="node">
<title>Node7</title>
<g id="a_Node000007"><a xlink:href="_persistence_8h.html" target="_top" xlink:title="LanguageTranslator verileri için ikili (binary) kalıcılık yardımcıları">
<polygon fill="white" stroke="#666666" points="121,-76 45,-76 45,-56 121,-56 121,-76"/>
<text xml:space="preserve" text-anchor="middle" x="83" y="-62.5" font-family="Helvetica,sans-Serif" font-size="10.00">Persistence.h</text>
</a>
</g>
</g>
<!-- Node1&#45;&gt;Node7 -->
<g id="edge6_Node000001_Node000007" class="edge">
<title>Node1&#45;&gt;Node7</title>
<g id="a_edge6_Node000001_Node000007"><a xlink:title=" ">
<path fill="none" stroke="#63b8ff" d="M157.25,-111.55C142.2,-102.52 123.29,-91.17 108.32,-82.19"/>
<polygon fill="#63b8ff" stroke="#63b8ff" points="110.35,-79.33 99.98,-77.19 106.75,-85.33 110.35,-79.33"/>
</a>
</g>
</g>
<!-- Node7&#45;&gt;Node2 -->
<g id="edge7_Node000007_Node000002" class="edge">
<title>Node7&#45;&gt;Node2</title>
<g id="a_edge7_Node000007_Node000002"><a xlink:title=" ">
<path fill="none" stroke="#63b8ff" d="M72.03,-55.59C63.08,-47.93 50.23,-36.91 39.54,-27.75"/>
<polygon fill="#63b8ff" stroke="#63b8ff" points="41.87,-25.13 32,-21.28 37.31,-30.45 41.87,-25.13"/>
</a>
</g>
</g>
<!-- Node7&#45;&gt;Node3 -->
<g id="edge8_Node000007_Node000003" class="edge">
<title>Node7&#45;&gt;Node3</title>
<g id="a_edge8_Node000007_Node000003"><a xlink:title=" ">
<path fill="none" stroke="#63b8ff" d="M94.15,-55.59C103.33,-47.85 116.55,-36.69 127.48,-27.47"/>
<polygon fill="#63b8ff" stroke="#63b8ff" points="129.44,-30.4 134.82,-21.27 124.92,-25.05 129.44,-30.4"/>
</a>
</g>
</g>
<!-- Node8 -->
<g id="Node000008" class="node">
<title>Node8</title>
<g id="a_Node000008"><a xlink:title=" ">
<polygon fill="#e0e0e0" stroke="#999999" points="105.62,-20 60.38,-20 60.38,0 105.62,0 105.62,-20"/>
<text xml:space="preserve" text-anchor="middle" x="83" y="-6.5" font-family="Helvetica,sans-Serif" font-size="10.00">cstdint</text>
</a>
</g>
</g>
<!-- Node7&#45;&gt;Node8 -->
<g id="edge9_Node000007_Node000008" class="edge">
<title>Node7&#45;&gt;Node8</title>
<g id="a_edge9_Node000007_Node000008"><a xlink:title=" ">
<path fill="none" stroke="#63b8ff" d="M83,-55.59C83,-49.01 83,-39.96 83,-31.73"/>
<polygon fill="#63b8ff" stroke="#63b8ff" points="86.5,-31.81 83,-21.81 79.5,-31.81 86.5,-31.81"/>
</a>
</g>
</g>
</g>
</svg>
