<?xml version="1.0" encoding="UTF-8" standalone="no"?>
<!DOCTYPE svg PUBLIC "-//W3C//DTD SVG 1.1//EN"
 "http://www.w3.org/Graphics/SVG/1.1/DTD/svg11.dtd">
<!-- Generated by graphviz version 14.0.1 (20251006.0113)
 -->
<!-- Title: src/LanguageTranslator/header/Persistence.h Pages: 1 -->
<svg width="173pt" height="96pt"
 viewBox="0.00 0.00 173.00 96.00" xmlns="http://www.w3.org/2000/svg" xmlns:xlink="http://www.w3.org/1999/xlink">
<g id="graph0" class="graph" transform="scale(1 1) rotate(0) translate(4 92)">
<title>src/LanguageTranslator/header/Persistence.h</title>
<!-- Node1 -->
<g id="Node000001" class="node">
<title>Node1</title>
<g id="a_Node000001"><a xlink:title="LanguageTranslator verileri için ikili (binary) kalıcılık yardımcıları">
<polygon fill="#999999" stroke="#666666" points="139,-88 21,-88 21,-56 139,-56 139,-88"/>
<text xml:space="preserve" text-anchor="start" x="29" y="-74.5" font-family="Helvetica,sans-Serif" font-size="10.00">src/LanguageTranslator</text>
<text xml:space="preserve" text-anchor="middle" x="80" y="-62.5" font-family="Helvetica,sans-Serif" font-size="10.00">/header/Persistence.h</text>
</a>
</g>
</g>
<!-- Node2 -->
<g id="Node000002" class="node">
<title>Node2</title>
<g id="a_Node000002"><a xlink:title=" ">
<polygon fill="#e0e0e0" stroke="#999999" points="40,-20 0,-20 0,0 40,0 40,-20"/>
<text xml:space="preserve" text-anchor="middle" x="20" y="-6.5" font-family="Helvetica,sans-Serif" font-size="10.00">string</text>
</a>
</g>
</g>
<!-- Node1&#45;&gt;Node2 -->
<g id="edge1_Node000001_Node000002" class="edge">
<title>Node1&#45;&gt;Node2</title>
<g id="a_edge1_Node000001_Node000002"><a xlink:title=" ">
<path fill="none" stroke="#63b8ff" d="M64.55,-55.55C56.22,-47.22 45.91,-36.91 37.3,-28.3"/>
<polygon fill="#63b8ff" stroke="#63b8ff" points="40.02,-26.07 30.48,-21.48 35.07,-31.02 40.02,-26.07"/>
</a>
</g>
</g>
<!-- Node3 -->
<g id="Node000003" class="node">
<title>Node3</title>
<g id="a_Node000003"><a xlink:title=" ">
<polygon fill="#e0e0e0" stroke="#999999" points="101.5,-20 58.5,-20 58.5,0 101.5,0 101.5,-20"/>
<text xml:space="preserve" text-anchor="middle" x="80" y="-6.5" font-family="Helvetica,sans-Serif" font-size="10.00">vector</text>
</a>
</g>
</g>
<!-- Node1&#45;&gt;Node3 -->
<g id="edge2_Node000001_Node000003" class="edge">
<title>Node1&#45;&gt;Node3</title>
<g id="a_edge2_Node000001_Node000003"><a xlink:title=" ">
<path fill="none" stroke="#63b8ff" d="M80,-55.55C80,-48.34 80,-39.66 80,-31.88"/>
<polygon fill="#63b8ff" stroke="#63b8ff" points="83.5,-31.92 80,-21.92 76.5,-31.92 83.5,-31.92"/>
</a>
</g>
</g>
<!-- Node4 -->
<g id="Node000004" class="node">
<title>Node4</title>
<g id="a_Node000004"><a xlink:title=" ">
<polygon fill="#e0e0e0" stroke="#999999" points="164.62,-20 119.38,-20 119.38,0 164.62,0 164.62,-20"/>
<text xml:space="preserve" text-anchor="middle" x="142" y="-6.5" font-family="Helvetica,sans-Serif" font-size="10.00">cstdint</text>
</a>
</g>
</g>
<!-- Node1&#45;&gt;Node4 -->
<g id="edge3_Node000001_Node000004" class="edge">
<title>Node1&#45;&gt;Node4</title>
<g id="a_edge3_Node000001_Node000004"><a xlink:title=" ">
<path fill="none" stroke="#63b8ff" d="M95.97,-55.55C104.58,-47.22 115.23,-36.91 124.12,-28.3"/>
<polygon fill="#63b8ff" stroke="#63b8ff" points="126.44,-30.93 131.19,-21.46 121.57,-25.9 126.44,-30.93"/>
</a>
</g>
</g>
</g>
</svg>
