<?xml version="1.0" encoding="UTF-8" standalone="no"?>
<!DOCTYPE svg PUBLIC "-//W3C//DTD SVG 1.1//EN"
 "http://www.w3.org/Graphics/SVG/1.1/DTD/svg11.dtd">
<!-- Generated by graphviz version 14.0.1 (20251006.0113)
 -->
<!-- Title: src/translator/ast.h Pages: 1 -->
<svg width="387pt" height="140pt"
 viewBox="0.00 0.00 387.00 140.00" xmlns="http://www.w3.org/2000/svg" xmlns:xlink="http://www.w3.org/1999/xlink">
<g id="graph0" class="graph" transform="scale(1 1) rotate(0) translate(4 136)">
<title>src/translator/ast.h</title>
<!-- Node1 -->
<g id="Node000001" class="node">
<title>Node1</title>
<g id="a_Node000001"><a xlink:title="Basit ifade ve deyim ağaçları (AST) tanımları">
<polygon fill="#999999" stroke="#666666" points="224.75,-132 127,-132 127,-112 224.75,-112 224.75,-132"/>
<text xml:space="preserve" text-anchor="middle" x="175.88" y="-118.5" font-family="Helvetica,sans-Serif" font-size="10.00">src/translator/ast.h</text>
</a>
</g>
</g>
<!-- Node2 -->
<g id="Node000002" class="node">
<title>Node2</title>
<g id="a_Node000002"><a xlink:href="cfg_8h.html" target="_top" xlink:title="Programdan kontrol akışı grafiği (CFG) üretimi yardımcıları">
<polygon fill="white" stroke="#666666" points="97.75,-76 0,-76 0,-56 97.75,-56 97.75,-76"/>
<text xml:space="preserve" text-anchor="middle" x="48.88" y="-62.5" font-family="Helvetica,sans-Serif" font-size="10.00">src/translator/cfg.h</text>
</a>
</g>
</g>
<!-- Node1&#45;&gt;Node2 -->
<g id="edge1_Node000001_Node000002" class="edge">
<title>Node1&#45;&gt;Node2</title>
<g id="a_edge1_Node000001_Node000002"><a xlink:title=" ">
<path fill="none" stroke="#63b8ff" d="M143.28,-107.14C120.66,-97.52 91.13,-84.97 71.17,-76.48"/>
<polygon fill="#63b8ff" stroke="#63b8ff" points="141.79,-110.31 152.36,-111 144.53,-103.87 141.79,-110.31"/>
</a>
</g>
</g>
<!-- Node3 -->
<g id="Node000003" class="node">
<title>Node3</title>
<g id="a_Node000003"><a xlink:href="codegen_8h.html" target="_top" xlink:title="AST&#39;ten C++ kodu üretimi için arabirim.">
<polygon fill="white" stroke="#666666" points="236.38,-76 115.38,-76 115.38,-56 236.38,-56 236.38,-76"/>
<text xml:space="preserve" text-anchor="middle" x="175.88" y="-62.5" font-family="Helvetica,sans-Serif" font-size="10.00">src/translator/codegen.h</text>
</a>
</g>
</g>
<!-- Node1&#45;&gt;Node3 -->
<g id="edge2_Node000001_Node000003" class="edge">
<title>Node1&#45;&gt;Node3</title>
<g id="a_edge2_Node000001_Node000003"><a xlink:title=" ">
<path fill="none" stroke="#63b8ff" d="M175.88,-100.13C175.88,-91.9 175.88,-82.85 175.88,-76.3"/>
<polygon fill="#63b8ff" stroke="#63b8ff" points="172.38,-100.08 175.88,-110.08 179.38,-100.08 172.38,-100.08"/>
</a>
</g>
</g>
<!-- Node5 -->
<g id="Node000005" class="node">
<title>Node5</title>
<g id="a_Node000005"><a xlink:href="parser_8h.html" target="_top" xlink:title="Leksik belirteçlerden AST üreten sözdizim analizcisi.">
<polygon fill="white" stroke="#666666" points="370.5,-76 259.25,-76 259.25,-56 370.5,-56 370.5,-76"/>
<text xml:space="preserve" text-anchor="middle" x="314.88" y="-62.5" font-family="Helvetica,sans-Serif" font-size="10.00">src/translator/parser.h</text>
</a>
</g>
</g>
<!-- Node1&#45;&gt;Node5 -->
<g id="edge4_Node000001_Node000005" class="edge">
<title>Node1&#45;&gt;Node5</title>
<g id="a_edge4_Node000001_Node000005"><a xlink:title=" ">
<path fill="none" stroke="#63b8ff" d="M210.54,-107.53C235.42,-97.87 268.32,-85.08 290.47,-76.48"/>
<polygon fill="#63b8ff" stroke="#63b8ff" points="209.55,-104.16 201.5,-111.05 212.09,-110.69 209.55,-104.16"/>
</a>
</g>
</g>
<!-- Node4 -->
<g id="Node000004" class="node">
<title>Node4</title>
<g id="a_Node000004"><a xlink:href="codegen_8cpp.html" target="_top" xlink:title="AST&#39;yi C++ kaynak koduna dönüştüren yordamların uygulaması.">
<polygon fill="white" stroke="#666666" points="238.62,-20 107.12,-20 107.12,0 238.62,0 238.62,-20"/>
<text xml:space="preserve" text-anchor="middle" x="172.88" y="-6.5" font-family="Helvetica,sans-Serif" font-size="10.00">src/translator/codegen.cpp</text>
</a>
</g>
</g>
<!-- Node3&#45;&gt;Node4 -->
<g id="edge3_Node000003_Node000004" class="edge">
<title>Node3&#45;&gt;Node4</title>
<g id="a_edge3_Node000003_Node000004"><a xlink:title=" ">
<path fill="none" stroke="#63b8ff" d="M174.72,-44.13C174.26,-35.9 173.76,-26.85 173.39,-20.3"/>
<polygon fill="#63b8ff" stroke="#63b8ff" points="171.22,-44.29 175.27,-54.08 178.21,-43.9 171.22,-44.29"/>
</a>
</g>
</g>
<!-- Node6 -->
<g id="Node000006" class="node">
<title>Node6</title>
<g id="a_Node000006"><a xlink:href="parser_8cpp.html" target="_top" xlink:title="Parser uygulaması: Token dizisinden AST üretir.">
<polygon fill="white" stroke="#666666" points="378.75,-20 257,-20 257,0 378.75,0 378.75,-20"/>
<text xml:space="preserve" text-anchor="middle" x="317.88" y="-6.5" font-family="Helvetica,sans-Serif" font-size="10.00">src/translator/parser.cpp</text>
</a>
</g>
</g>
<!-- Node5&#45;&gt;Node6 -->
<g id="edge5_Node000005_Node000006" class="edge">
<title>Node5&#45;&gt;Node6</title>
<g id="a_edge5_Node000005_Node000006"><a xlink:title=" ">
<path fill="none" stroke="#63b8ff" d="M316.03,-44.13C316.49,-35.9 316.99,-26.85 317.36,-20.3"/>
<polygon fill="#63b8ff" stroke="#63b8ff" points="312.54,-43.9 315.48,-54.08 319.53,-44.29 312.54,-43.9"/>
</a>
</g>
</g>
</g>
</svg>
