<?xml version="1.0" encoding="UTF-8" standalone="no"?>
<!DOCTYPE svg PUBLIC "-//W3C//DTD SVG 1.1//EN"
 "http://www.w3.org/Graphics/SVG/1.1/DTD/svg11.dtd">
<!-- Generated by graphviz version 14.0.1 (20251006.0113)
 -->
<!-- Title: C:/Users/ahmet/OneDrive/Masaüstü/DataStructure/cen207&#45;2025&#45;2026&#45;5&#45;Mustafa&#45;Yildirimm&#45;cpp/src/translator/cfg.h Pages: 1 -->
<svg width="297pt" height="176pt"
 viewBox="0.00 0.00 297.00 176.00" xmlns="http://www.w3.org/2000/svg" xmlns:xlink="http://www.w3.org/1999/xlink">

<svg id="main" version="1.1" xmlns="http://www.w3.org/2000/svg" xmlns:xlink="http://www.w3.org/1999/xlink" xml:space="preserve">

<style type="text/css"><![CDATA[
.node, .edge {opacity: 0.7;}
.node.selected, .edge.selected {opacity: 1;}
.edge:hover path { stroke: red; }
.edge:hover polygon { stroke: red; fill: red; }
]]></style>
<script type="application/ecmascript" xlink:href="svg.min.js"/>
<svg id="graph" class="graph">
<g id="graph0" class="graph" transform="scale(1 1) rotate(0) translate(4 172)">
<title>C:/Users/ahmet/OneDrive/Masaüstü/DataStructure/cen207&#45;2025&#45;2026&#45;5&#45;Mustafa&#45;Yildirimm&#45;cpp/src/translator/cfg.h</title>
<!-- Node1 -->
<g id="Node000001" class="node">
<title>Node1</title>
<g id="a_Node000001"><a xlink:title="Programdan kontrol akışı grafiği (CFG) üretimi yardımcıları">
<polygon fill="#999999" stroke="#666666" points="228.62,-168 65.62,-168 65.62,-112 228.62,-112 228.62,-168"/>
<text xml:space="preserve" text-anchor="start" x="73.62" y="-154.5" font-family="Helvetica,sans-Serif" font-size="10.00">C:/Users/ahmet/OneDrive</text>
<text xml:space="preserve" text-anchor="start" x="73.62" y="-142.5" font-family="Helvetica,sans-Serif" font-size="10.00">/Masaüstü/DataStructure</text>
<text xml:space="preserve" text-anchor="start" x="73.62" y="-130.5" font-family="Helvetica,sans-Serif" font-size="10.00">/cen207&#45;2025&#45;2026&#45;5&#45;Mustafa</text>
<text xml:space="preserve" text-anchor="middle" x="147.12" y="-118.5" font-family="Helvetica,sans-Serif" font-size="10.00">&#45;Yildirimm&#45;cpp/src/translator/cfg.h</text>
</a>
</g>
</g>
<!-- Node2 -->
<g id="Node000002" class="node">
<title>Node2</title>
<g id="a_Node000002"><a xlink:href="graph_8h.html" target="_top" xlink:title="Basit yönlü/yönsüz grafik yardımcıları.">
<polygon fill="white" stroke="#666666" points="88,-76 26.25,-76 26.25,-56 88,-56 88,-76"/>
<text xml:space="preserve" text-anchor="middle" x="57.12" y="-62.5" font-family="Helvetica,sans-Serif" font-size="10.00">ds/graph.h</text>
</a>
</g>
</g>
<!-- Node1&#45;&gt;Node2 -->
<g id="edge1_Node000001_Node000002" class="edge">
<title>Node1&#45;&gt;Node2</title>
<g id="a_edge1_Node000001_Node000002"><a xlink:title=" ">
<path fill="none" stroke="#63b8ff" d="M112.84,-111.57C100.98,-102.08 88.05,-91.74 77.65,-83.42"/>
<polygon fill="#63b8ff" stroke="#63b8ff" points="80.07,-80.87 70.08,-77.36 75.7,-86.34 80.07,-80.87"/>
</a>
</g>
</g>
<!-- Node5 -->
<g id="Node000005" class="node">
<title>Node5</title>
<g id="a_Node000005"><a xlink:href="ast_8h.html" target="_top" xlink:title="Basit ifade ve deyim ağaçları (AST) tanımları">
<polygon fill="white" stroke="#666666" points="187.75,-76 106.5,-76 106.5,-56 187.75,-56 187.75,-76"/>
<text xml:space="preserve" text-anchor="middle" x="147.12" y="-62.5" font-family="Helvetica,sans-Serif" font-size="10.00">translator/ast.h</text>
</a>
</g>
</g>
<!-- Node1&#45;&gt;Node5 -->
<g id="edge4_Node000001_Node000005" class="edge">
<title>Node1&#45;&gt;Node5</title>
<g id="a_edge4_Node000001_Node000005"><a xlink:title=" ">
<path fill="none" stroke="#63b8ff" d="M147.12,-111.78C147.12,-103.82 147.12,-95.25 147.12,-87.76"/>
<polygon fill="#63b8ff" stroke="#63b8ff" points="150.63,-87.99 147.13,-77.99 143.63,-87.99 150.63,-87.99"/>
</a>
</g>
</g>
<!-- Node8 -->
<g id="Node000008" class="node">
<title>Node8</title>
<g id="a_Node000008"><a xlink:title=" ">
<polygon fill="#e0e0e0" stroke="#999999" points="288.5,-76 205.75,-76 205.75,-56 288.5,-56 288.5,-76"/>
<text xml:space="preserve" text-anchor="middle" x="247.12" y="-62.5" font-family="Helvetica,sans-Serif" font-size="10.00">unordered_map</text>
</a>
</g>
</g>
<!-- Node1&#45;&gt;Node8 -->
<g id="edge8_Node000001_Node000008" class="edge">
<title>Node1&#45;&gt;Node8</title>
<g id="a_edge8_Node000001_Node000008"><a xlink:title=" ">
<path fill="none" stroke="#63b8ff" d="M185.22,-111.57C198.67,-101.89 213.35,-91.32 225.03,-82.91"/>
<polygon fill="#63b8ff" stroke="#63b8ff" points="226.75,-85.98 232.82,-77.3 222.66,-80.3 226.75,-85.98"/>
</a>
</g>
</g>
<!-- Node3 -->
<g id="Node000003" class="node">
<title>Node3</title>
<g id="a_Node000003"><a xlink:title=" ">
<polygon fill="#e0e0e0" stroke="#999999" points="103.62,-20 60.62,-20 60.62,0 103.62,0 103.62,-20"/>
<text xml:space="preserve" text-anchor="middle" x="82.12" y="-6.5" font-family="Helvetica,sans-Serif" font-size="10.00">vector</text>
</a>
</g>
</g>
<!-- Node2&#45;&gt;Node3 -->
<g id="edge2_Node000002_Node000003" class="edge">
<title>Node2&#45;&gt;Node3</title>
<g id="a_edge2_Node000002_Node000003"><a xlink:title=" ">
<path fill="none" stroke="#63b8ff" d="M61.48,-55.59C64.67,-48.7 69.11,-39.1 73.06,-30.57"/>
<polygon fill="#63b8ff" stroke="#63b8ff" points="76.16,-32.22 77.18,-21.67 69.81,-29.28 76.16,-32.22"/>
</a>
</g>
</g>
<!-- Node4 -->
<g id="Node000004" class="node">
<title>Node4</title>
<g id="a_Node000004"><a xlink:title=" ">
<polygon fill="#e0e0e0" stroke="#999999" points="42.25,-20 0,-20 0,0 42.25,0 42.25,-20"/>
<text xml:space="preserve" text-anchor="middle" x="21.12" y="-6.5" font-family="Helvetica,sans-Serif" font-size="10.00">queue</text>
</a>
</g>
</g>
<!-- Node2&#45;&gt;Node4 -->
<g id="edge3_Node000002_Node000004" class="edge">
<title>Node2&#45;&gt;Node4</title>
<g id="a_edge3_Node000002_Node000004"><a xlink:title=" ">
<path fill="none" stroke="#63b8ff" d="M50.85,-55.59C46.11,-48.47 39.43,-38.45 33.6,-29.72"/>
<polygon fill="#63b8ff" stroke="#63b8ff" points="36.62,-27.94 28.16,-21.56 30.8,-31.82 36.62,-27.94"/>
</a>
</g>
</g>
<!-- Node5&#45;&gt;Node3 -->
<g id="edge7_Node000005_Node000003" class="edge">
<title>Node5&#45;&gt;Node3</title>
<g id="a_edge7_Node000005_Node000003"><a xlink:title=" ">
<path fill="none" stroke="#63b8ff" d="M135.8,-55.59C126.48,-47.85 113.05,-36.69 101.95,-27.47"/>
<polygon fill="#63b8ff" stroke="#63b8ff" points="104.41,-24.96 94.48,-21.27 99.94,-30.35 104.41,-24.96"/>
</a>
</g>
</g>
<!-- Node6 -->
<g id="Node000006" class="node">
<title>Node6</title>
<g id="a_Node000006"><a xlink:title=" ">
<polygon fill="#e0e0e0" stroke="#999999" points="172.75,-20 121.5,-20 121.5,0 172.75,0 172.75,-20"/>
<text xml:space="preserve" text-anchor="middle" x="147.12" y="-6.5" font-family="Helvetica,sans-Serif" font-size="10.00">memory</text>
</a>
</g>
</g>
<!-- Node5&#45;&gt;Node6 -->
<g id="edge5_Node000005_Node000006" class="edge">
<title>Node5&#45;&gt;Node6</title>
<g id="a_edge5_Node000005_Node000006"><a xlink:title=" ">
<path fill="none" stroke="#63b8ff" d="M147.12,-55.59C147.12,-49.01 147.12,-39.96 147.12,-31.73"/>
<polygon fill="#63b8ff" stroke="#63b8ff" points="150.63,-31.81 147.13,-21.81 143.63,-31.81 150.63,-31.81"/>
</a>
</g>
</g>
<!-- Node7 -->
<g id="Node000007" class="node">
<title>Node7</title>
<g id="a_Node000007"><a xlink:title=" ">
<polygon fill="#e0e0e0" stroke="#999999" points="231.12,-20 191.12,-20 191.12,0 231.12,0 231.12,-20"/>
<text xml:space="preserve" text-anchor="middle" x="211.12" y="-6.5" font-family="Helvetica,sans-Serif" font-size="10.00">string</text>
</a>
</g>
</g>
<!-- Node5&#45;&gt;Node7 -->
<g id="edge6_Node000005_Node000007" class="edge">
<title>Node5&#45;&gt;Node7</title>
<g id="a_edge6_Node000005_Node000007"><a xlink:title=" ">
<path fill="none" stroke="#63b8ff" d="M158.27,-55.59C167.45,-47.85 180.68,-36.69 191.61,-27.47"/>
<polygon fill="#63b8ff" stroke="#63b8ff" points="193.56,-30.4 198.95,-21.27 189.05,-25.05 193.56,-30.4"/>
</a>
</g>
</g>
</g>
</svg>
</svg>

<style type='text/css'>
<![CDATA[
[data-mouse-over-selected='false'] { opacity: 0.7; }
[data-mouse-over-selected='true']  { opacity: 1.0; }
]]>
</style>
<script type="application/ecmascript"><![CDATA[
document.addEventListener('DOMContentLoaded', (event) => {
  highlightEdges();
  highlightAdjacentNodes();
});
]]></script>
</svg>
