<?xml version="1.0" encoding="UTF-8" standalone="no"?>
<!DOCTYPE svg PUBLIC "-//W3C//DTD SVG 1.1//EN"
 "http://www.w3.org/Graphics/SVG/1.1/DTD/svg11.dtd">
<!-- Generated by graphviz version 14.0.1 (20251006.0113)
 -->
<!-- Title: ds::SparseMatrix&lt; T &gt; Pages: 1 -->
<!--zoomable 482 -->

<svg id="main" version="1.1" xmlns="http://www.w3.org/2000/svg" xmlns:xlink="http://www.w3.org/1999/xlink" xml:space="preserve" onload="init(evt)">

<style type="text/css"><![CDATA[
.node, .edge {opacity: 0.7;}
.node.selected, .edge.selected {opacity: 1;}
.edge:hover path { stroke: red; }
.edge:hover polygon { stroke: red; fill: red; }
]]></style>

<defs>
  <circle id="rim" cx="0" cy="0" r="7"/>
  <circle id="rim2" cx="0" cy="0" r="3.5"/>
  <g id="zoomPlus">
    <use xlink:href="#rim" fill="#404040"><set attributeName="fill" to="#808080" begin="zoomplus.mouseover" end="zoomplus.mouseout"/></use>
    <path d="M-4,0h8M0,-4v8" fill="none" stroke="white" stroke-width="1.5" pointer-events="none"/>
  </g>
  <g id="zoomMin">
    <use xlink:href="#rim" fill="#404040"><set attributeName="fill" to="#808080" begin="zoomminus.mouseover" end="zoomminus.mouseout"/></use>
    <path d="M-4,0h8" fill="none" stroke="white" stroke-width="1.5" pointer-events="none"/>
  </g>
  <g id="arrowUp" transform="translate(30 24)">
    <use xlink:href="#rim"/>
    <path pointer-events="none" fill="none" stroke="white" stroke-width="1.5" d="M0,-3.0v7 M-2.5,-0.5L0,-3.0L2.5,-0.5"/>
  </g>
  <g id="arrowRight" transform="rotate(90) translate(36 -43)">
    <use xlink:href="#rim"/>
    <path pointer-events="none" fill="none" stroke="white" stroke-width="1.5" d="M0,-3.0v7 M-2.5,-0.5L0,-3.0L2.5,-0.5"/>
  </g>
  <g id="arrowDown" transform="rotate(180) translate(-30 -48)">
    <use xlink:href="#rim"/>
    <path pointer-events="none" fill="none" stroke="white" stroke-width="1.5" d="M0,-3.0v7 M-2.5,-0.5L0,-3.0L2.5,-0.5"/>
  </g>
  <g id="arrowLeft" transform="rotate(270) translate(-36 17)">
    <use xlink:href="#rim"/>
    <path pointer-events="none" fill="none" stroke="white" stroke-width="1.5" d="M0,-3.0v7 M-2.5,-0.5L0,-3.0L2.5,-0.5"/>
  </g>
  <g id="resetDef">
    <use xlink:href="#rim2" fill="#404040"><set attributeName="fill" to="#808080" begin="reset.mouseover" end="reset.mouseout"/></use>
  </g>
</defs>
<script type="application/ecmascript">
var viewWidth = 114;
var viewHeight = 482;
var sectionId = 'dynsection-0';
</script>
<script type="application/ecmascript" xlink:href="svg.min.js"/>
<svg id="graph" class="graph">
<g id="viewport">
<title>ds::SparseMatrix&lt; T &gt;</title>
<!-- Node1 -->
<g id="Node000001" class="node">
<title>Node1</title>
<g id="a_Node000001"><a xlink:title="Hash tablosu tabanlı seyrek matris.">
<polygon fill="#999999" stroke="none" points="105.5,-164 0,-164 0,0 105.5,0 105.5,-164"/>
<text xml:space="preserve" text-anchor="start" x="4" y="-150.5" font-family="Helvetica,sans-Serif" font-size="10.00">ds::SparseMatrix&lt; T &gt;</text>
<text xml:space="preserve" text-anchor="start" x="10.5" y="-134.5" font-family="Helvetica,sans-Serif" font-size="10.00">&#45;</text>
<text xml:space="preserve" text-anchor="start" x="24" y="-134.5" font-family="Helvetica,sans-Serif" font-size="10.00">rows_</text>
<text xml:space="preserve" text-anchor="start" x="10.5" y="-118.5" font-family="Helvetica,sans-Serif" font-size="10.00">&#45;</text>
<text xml:space="preserve" text-anchor="start" x="24" y="-118.5" font-family="Helvetica,sans-Serif" font-size="10.00">cols_</text>
<text xml:space="preserve" text-anchor="start" x="9" y="-102.5" font-family="Helvetica,sans-Serif" font-size="10.00">+</text>
<text xml:space="preserve" text-anchor="start" x="24" y="-102.5" font-family="Helvetica,sans-Serif" font-size="10.00">SparseMatrix()</text>
<text xml:space="preserve" text-anchor="start" x="9" y="-86.5" font-family="Helvetica,sans-Serif" font-size="10.00">+</text>
<text xml:space="preserve" text-anchor="start" x="24" y="-86.5" font-family="Helvetica,sans-Serif" font-size="10.00">set()</text>
<text xml:space="preserve" text-anchor="start" x="9" y="-70.5" font-family="Helvetica,sans-Serif" font-size="10.00">+</text>
<text xml:space="preserve" text-anchor="start" x="24" y="-70.5" font-family="Helvetica,sans-Serif" font-size="10.00">get()</text>
<text xml:space="preserve" text-anchor="start" x="9" y="-54.5" font-family="Helvetica,sans-Serif" font-size="10.00">+</text>
<text xml:space="preserve" text-anchor="start" x="24" y="-54.5" font-family="Helvetica,sans-Serif" font-size="10.00">nonZeroCount()</text>
<text xml:space="preserve" text-anchor="start" x="9" y="-38.5" font-family="Helvetica,sans-Serif" font-size="10.00">+</text>
<text xml:space="preserve" text-anchor="start" x="24" y="-38.5" font-family="Helvetica,sans-Serif" font-size="10.00">rows()</text>
<text xml:space="preserve" text-anchor="start" x="9" y="-22.5" font-family="Helvetica,sans-Serif" font-size="10.00">+</text>
<text xml:space="preserve" text-anchor="start" x="24" y="-22.5" font-family="Helvetica,sans-Serif" font-size="10.00">cols()</text>
<text xml:space="preserve" text-anchor="start" x="10.5" y="-6.5" font-family="Helvetica,sans-Serif" font-size="10.00">&#45;</text>
<text xml:space="preserve" text-anchor="start" x="24" y="-6.5" font-family="Helvetica,sans-Serif" font-size="10.00">key()</text>
<polygon fill="#666666" stroke="#666666" points="0,-146 0,-146 105.5,-146 105.5,-146 0,-146"/>
<polygon fill="#666666" stroke="#666666" points="0,-114 0,-114 22,-114 22,-114 0,-114"/>
<polygon fill="#666666" stroke="#666666" points="22,-114 22,-114 105.5,-114 105.5,-114 22,-114"/>
<polygon fill="none" stroke="#666666" points="0,0 0,-164 105.5,-164 105.5,0 0,0"/>
</a>
</g>
</g>
<!-- Node2 -->
<g id="Node000002" class="node">
<title>Node2</title>
<g id="a_Node000002"><a xlink:href="classds_1_1_hash_table.html" target="_top" xlink:title=" ">
<polygon fill="white" stroke="none" points="101.75,-474 3.75,-474 3.75,-218 101.75,-218 101.75,-474"/>
<text xml:space="preserve" text-anchor="start" x="7.75" y="-460.5" font-family="Helvetica,sans-Serif" font-size="10.00">ds::HashTable&lt; long</text>
<text xml:space="preserve" text-anchor="start" x="32.12" y="-448.5" font-family="Helvetica,sans-Serif" font-size="10.00"> long, T &gt;</text>
<text xml:space="preserve" text-anchor="start" x="16.12" y="-432.5" font-family="Helvetica,sans-Serif" font-size="10.00">&#45;</text>
<text xml:space="preserve" text-anchor="start" x="31.5" y="-432.5" font-family="Helvetica,sans-Serif" font-size="10.00">table_</text>
<text xml:space="preserve" text-anchor="start" x="16.12" y="-416.5" font-family="Helvetica,sans-Serif" font-size="10.00">&#45;</text>
<text xml:space="preserve" text-anchor="start" x="31.5" y="-416.5" font-family="Helvetica,sans-Serif" font-size="10.00">count_</text>
<text xml:space="preserve" text-anchor="start" x="16.12" y="-400.5" font-family="Helvetica,sans-Serif" font-size="10.00">&#45;</text>
<text xml:space="preserve" text-anchor="start" x="31.5" y="-400.5" font-family="Helvetica,sans-Serif" font-size="10.00">max_load_</text>
<text xml:space="preserve" text-anchor="start" x="16.12" y="-384.5" font-family="Helvetica,sans-Serif" font-size="10.00">&#45;</text>
<text xml:space="preserve" text-anchor="start" x="31.5" y="-384.5" font-family="Helvetica,sans-Serif" font-size="10.00">hasher_</text>
<text xml:space="preserve" text-anchor="start" x="14.62" y="-368.5" font-family="Helvetica,sans-Serif" font-size="10.00">+</text>
<text xml:space="preserve" text-anchor="start" x="31.5" y="-368.5" font-family="Helvetica,sans-Serif" font-size="10.00">HashTable()</text>
<text xml:space="preserve" text-anchor="start" x="14.62" y="-352.5" font-family="Helvetica,sans-Serif" font-size="10.00">+</text>
<text xml:space="preserve" text-anchor="start" x="31.5" y="-352.5" font-family="Helvetica,sans-Serif" font-size="10.00">size()</text>
<text xml:space="preserve" text-anchor="start" x="14.62" y="-336.5" font-family="Helvetica,sans-Serif" font-size="10.00">+</text>
<text xml:space="preserve" text-anchor="start" x="31.5" y="-336.5" font-family="Helvetica,sans-Serif" font-size="10.00">empty()</text>
<text xml:space="preserve" text-anchor="start" x="14.62" y="-320.5" font-family="Helvetica,sans-Serif" font-size="10.00">+</text>
<text xml:space="preserve" text-anchor="start" x="31.5" y="-320.5" font-family="Helvetica,sans-Serif" font-size="10.00">insert()</text>
<text xml:space="preserve" text-anchor="start" x="14.62" y="-304.5" font-family="Helvetica,sans-Serif" font-size="10.00">+</text>
<text xml:space="preserve" text-anchor="start" x="31.5" y="-304.5" font-family="Helvetica,sans-Serif" font-size="10.00">find()</text>
<text xml:space="preserve" text-anchor="start" x="14.62" y="-288.5" font-family="Helvetica,sans-Serif" font-size="10.00">+</text>
<text xml:space="preserve" text-anchor="start" x="31.5" y="-288.5" font-family="Helvetica,sans-Serif" font-size="10.00">contains()</text>
<text xml:space="preserve" text-anchor="start" x="14.62" y="-272.5" font-family="Helvetica,sans-Serif" font-size="10.00">+</text>
<text xml:space="preserve" text-anchor="start" x="31.5" y="-272.5" font-family="Helvetica,sans-Serif" font-size="10.00">erase()</text>
<text xml:space="preserve" text-anchor="start" x="16.12" y="-256.5" font-family="Helvetica,sans-Serif" font-size="10.00">&#45;</text>
<text xml:space="preserve" text-anchor="start" x="31.5" y="-256.5" font-family="Helvetica,sans-Serif" font-size="10.00">idx()</text>
<text xml:space="preserve" text-anchor="start" x="16.12" y="-240.5" font-family="Helvetica,sans-Serif" font-size="10.00">&#45;</text>
<text xml:space="preserve" text-anchor="start" x="31.5" y="-240.5" font-family="Helvetica,sans-Serif" font-size="10.00">rehash()</text>
<text xml:space="preserve" text-anchor="start" x="16.12" y="-224.5" font-family="Helvetica,sans-Serif" font-size="10.00">&#45;</text>
<text xml:space="preserve" text-anchor="start" x="31.5" y="-224.5" font-family="Helvetica,sans-Serif" font-size="10.00">ensure()</text>
<polygon fill="#666666" stroke="#666666" points="3.75,-444 3.75,-444 101.75,-444 101.75,-444 3.75,-444"/>
<polygon fill="#666666" stroke="#666666" points="3.75,-380 3.75,-380 29.5,-380 29.5,-380 3.75,-380"/>
<polygon fill="#666666" stroke="#666666" points="29.5,-380 29.5,-380 101.75,-380 101.75,-380 29.5,-380"/>
<polygon fill="none" stroke="#666666" points="3.75,-218 3.75,-474 101.75,-474 101.75,-218 3.75,-218"/>
</a>
</g>
</g>
<!-- Node2&#45;&gt;Node1 -->
<g id="edge1_Node000001_Node000002" class="edge">
<title>Node2&#45;&gt;Node1</title>
<g id="a_edge1_Node000001_Node000002"><a xlink:title=" ">
<path fill="none" stroke="#63b8ff" d="M52.75,-218.22C52.75,-204.17 52.75,-190.04 52.75,-176.51"/>
<polygon fill="none" stroke="#63b8ff" points="52.75,-176.63 48.75,-170.63 52.75,-164.63 56.75,-170.63 52.75,-176.63"/>
</a>
</g>
<text xml:space="preserve" text-anchor="start" x="55.75" y="-187.5" font-family="Helvetica,sans-Serif" font-size="10.00" fill="grey">&#45;data_</text>
</g>
</g>
</svg>

<g id="navigator" transform="translate(0 0)" fill="#404254">
  <rect fill="#f2f5e9" fill-opacity="0.5" stroke="#606060" stroke-width=".5" x="0" y="0" width="60" height="60"/>
  <use id="zoomplus" xlink:href="#zoomPlus" x="17" y="9" onmousedown="handleZoom(evt,'in')"/>
  <use id="zoomminus" xlink:href="#zoomMin" x="42" y="9" onmousedown="handleZoom(evt,'out')"/>
  <use id="reset" xlink:href="#resetDef" x="30" y="36" onmousedown="handleReset()"/>
   <use id="arrowup" xlink:href="#arrowUp" x="0" y="0" onmousedown="handlePan(0,-1)"/>
  <use id="arrowright" xlink:href="#arrowRight" x="0" y="0" onmousedown="handlePan(1,0)"/>
  <use id="arrowdown" xlink:href="#arrowDown" x="0" y="0" onmousedown="handlePan(0,1)"/>
  <use id="arrowleft" xlink:href="#arrowLeft" x="0" y="0" onmousedown="handlePan(-1,0)"/>
</g>
<svg viewBox="0 0 15 15" width="100%" height="30px" preserveAspectRatio="xMaxYMin meet">
 <g id="arrow_out" transform="scale(0.3 0.3)">
  <a xlink:href="classds_1_1_sparse_matrix__coll__graph_org.svg" target="_base">
   <rect id="button" ry="5" rx="5" y="6" x="6" height="38" width="38"
        fill="#f2f5e9" fill-opacity="0.5" stroke="#606060" stroke-width="1.0"/>
   <path id="arrow"
     d="M 11.500037,31.436501 C 11.940474,20.09759 22.043105,11.32322 32.158766,21.979434 L 37.068811,17.246167 C 37.068811,17.246167 37.088388,32 37.088388,32 L 22.160133,31.978069 C 22.160133,31.978069 26.997745,27.140456 26.997745,27.140456 C 18.528582,18.264221 13.291696,25.230495 11.500037,31.436501 z"
     style="fill:#404040;"/>
  </a>
 </g>
</svg>

<style type='text/css'>
<![CDATA[
[data-mouse-over-selected='false'] { opacity: 0.7; }
[data-mouse-over-selected='true']  { opacity: 1.0; }
]]>
</style>
<script type="application/ecmascript"><![CDATA[
document.addEventListener('DOMContentLoaded', (event) => {
  highlightEdges();
  highlightAdjacentNodes();
});
]]></script>
</svg>
