<?xml version="1.0" encoding="UTF-8" standalone="no"?>
<!DOCTYPE svg PUBLIC "-//W3C//DTD SVG 1.1//EN"
 "http://www.w3.org/Graphics/SVG/1.1/DTD/svg11.dtd">
<!-- Generated by graphviz version 14.0.1 (20251006.0113)
 -->
<!-- Title: ds::Stack&lt; T &gt; Pages: 1 -->
<svg width="159pt" height="246pt"
 viewBox="0.00 0.00 159.00 246.00" xmlns="http://www.w3.org/2000/svg" xmlns:xlink="http://www.w3.org/1999/xlink">
<g id="graph0" class="graph" transform="scale(1 1) rotate(0) translate(4 242)">
<title>ds::Stack&lt; T &gt;</title>
<!-- Node1 -->
<g id="Node000001" class="node">
<title>Node1</title>
<g id="a_Node000001"><a xlink:title=" ">
<polygon fill="#999999" stroke="none" points="87.88,-132 14.62,-132 14.62,0 87.88,0 87.88,-132"/>
<text xml:space="preserve" text-anchor="start" x="18.62" y="-118.5" font-family="Helvetica,sans-Serif" font-size="10.00">ds::Stack&lt; T &gt;</text>
<text xml:space="preserve" text-anchor="start" x="24.56" y="-102.5" font-family="Helvetica,sans-Serif" font-size="10.00">&#45;</text>
<text xml:space="preserve" text-anchor="start" x="37.5" y="-102.5" font-family="Helvetica,sans-Serif" font-size="10.00">sz_</text>
<text xml:space="preserve" text-anchor="start" x="23.06" y="-86.5" font-family="Helvetica,sans-Serif" font-size="10.00">+</text>
<text xml:space="preserve" text-anchor="start" x="37.5" y="-86.5" font-family="Helvetica,sans-Serif" font-size="10.00">~Stack()</text>
<text xml:space="preserve" text-anchor="start" x="23.06" y="-70.5" font-family="Helvetica,sans-Serif" font-size="10.00">+</text>
<text xml:space="preserve" text-anchor="start" x="37.5" y="-70.5" font-family="Helvetica,sans-Serif" font-size="10.00">push()</text>
<text xml:space="preserve" text-anchor="start" x="23.06" y="-54.5" font-family="Helvetica,sans-Serif" font-size="10.00">+</text>
<text xml:space="preserve" text-anchor="start" x="37.5" y="-54.5" font-family="Helvetica,sans-Serif" font-size="10.00">empty()</text>
<text xml:space="preserve" text-anchor="start" x="23.06" y="-38.5" font-family="Helvetica,sans-Serif" font-size="10.00">+</text>
<text xml:space="preserve" text-anchor="start" x="37.5" y="-38.5" font-family="Helvetica,sans-Serif" font-size="10.00">size()</text>
<text xml:space="preserve" text-anchor="start" x="23.06" y="-22.5" font-family="Helvetica,sans-Serif" font-size="10.00">+</text>
<text xml:space="preserve" text-anchor="start" x="37.5" y="-22.5" font-family="Helvetica,sans-Serif" font-size="10.00">top()</text>
<text xml:space="preserve" text-anchor="start" x="23.06" y="-6.5" font-family="Helvetica,sans-Serif" font-size="10.00">+</text>
<text xml:space="preserve" text-anchor="start" x="37.5" y="-6.5" font-family="Helvetica,sans-Serif" font-size="10.00">pop()</text>
<polygon fill="#666666" stroke="#666666" points="14.62,-114 14.62,-114 87.88,-114 87.88,-114 14.62,-114"/>
<polygon fill="#666666" stroke="#666666" points="14.62,-98 14.62,-98 35.5,-98 35.5,-98 14.62,-98"/>
<polygon fill="#666666" stroke="#666666" points="35.5,-98 35.5,-98 87.88,-98 87.88,-98 35.5,-98"/>
<polygon fill="none" stroke="#666666" points="14.62,0 14.62,-132 87.88,-132 87.88,0 14.62,0"/>
</a>
</g>
</g>
<!-- Node2 -->
<g id="Node000002" class="node">
<title>Node2</title>
<g id="a_Node000002"><a xlink:href="structds_1_1_stack_1_1_node.html" target="_top" xlink:title=" ">
<polygon fill="white" stroke="none" points="102.5,-238 0,-238 0,-186 102.5,-186 102.5,-238"/>
<text xml:space="preserve" text-anchor="start" x="4" y="-224.5" font-family="Helvetica,sans-Serif" font-size="10.00">ds::Stack&lt; T &gt;::Node</text>
<text xml:space="preserve" text-anchor="start" x="17.81" y="-208.5" font-family="Helvetica,sans-Serif" font-size="10.00">+</text>
<text xml:space="preserve" text-anchor="start" x="41.62" y="-208.5" font-family="Helvetica,sans-Serif" font-size="10.00">v</text>
<text xml:space="preserve" text-anchor="start" x="17.81" y="-192.5" font-family="Helvetica,sans-Serif" font-size="10.00">+</text>
<text xml:space="preserve" text-anchor="start" x="41.62" y="-192.5" font-family="Helvetica,sans-Serif" font-size="10.00">Node()</text>
<polygon fill="#666666" stroke="#666666" points="0,-220 0,-220 102.5,-220 102.5,-220 0,-220"/>
<polygon fill="#666666" stroke="#666666" points="0,-204 0,-204 39.62,-204 39.62,-204 0,-204"/>
<polygon fill="#666666" stroke="#666666" points="39.62,-204 39.62,-204 102.5,-204 102.5,-204 39.62,-204"/>
<polygon fill="none" stroke="#666666" points="0,-186 0,-238 102.5,-238 102.5,-186 0,-186"/>
</a>
</g>
</g>
<!-- Node2&#45;&gt;Node1 -->
<g id="edge1_Node000001_Node000002" class="edge">
<title>Node2&#45;&gt;Node1</title>
<g id="a_edge1_Node000001_Node000002"><a xlink:title=" ">
<path fill="none" stroke="#63b8ff" d="M51.25,-186.25C51.25,-174.5 51.25,-159.75 51.25,-144.66"/>
<polygon fill="none" stroke="#63b8ff" points="51.25,-144.87 47.25,-138.87 51.25,-132.87 55.25,-138.87 51.25,-144.87"/>
</a>
</g>
<text xml:space="preserve" text-anchor="start" x="54.25" y="-155.5" font-family="Helvetica,sans-Serif" font-size="10.00" fill="grey">&#45;top_</text>
</g>
<!-- Node2&#45;&gt;Node2 -->
<g id="edge2_Node000002_Node000002" class="edge">
<title>Node2&#45;&gt;Node2</title>
<g id="a_edge2_Node000002_Node000002"><a xlink:title=" ">
<path fill="none" stroke="#63b8ff" d="M102.29,-221.59C112.88,-220.58 120.5,-217.38 120.5,-212 120.5,-209.14 118.35,-206.9 114.75,-205.27"/>
<polygon fill="none" stroke="#63b8ff" points="114.86,-205.3 108.12,-207.85 103.16,-202.61 109.91,-200.06 114.86,-205.3"/>
</a>
</g>
<text xml:space="preserve" text-anchor="start" x="123.5" y="-208.5" font-family="Helvetica,sans-Serif" font-size="10.00" fill="grey">+next</text>
</g>
</g>
</svg>
