<?xml version="1.0" encoding="UTF-8" standalone="no"?>
<!DOCTYPE svg PUBLIC "-//W3C//DTD SVG 1.1//EN"
 "http://www.w3.org/Graphics/SVG/1.1/DTD/svg11.dtd">
<!-- Generated by graphviz version 14.0.1 (20251006.0113)
 -->
<!-- Title: ds::SparseMatrix&lt; T &gt; Pages: 1 -->
<svg width="114pt" height="482pt"
 viewBox="0.00 0.00 114.00 482.00" xmlns="http://www.w3.org/2000/svg" xmlns:xlink="http://www.w3.org/1999/xlink">
<g id="graph0" class="graph" transform="scale(1 1) rotate(0) translate(4 478)">
<title>ds::SparseMatrix&lt; T &gt;</title>
<!-- Node1 -->
<g id="Node000001" class="node">
<title>Node1</title>
<g id="a_Node000001"><a xlink:title="Hash tablosu tabanlı seyrek matris.">
<polygon fill="#999999" stroke="none" points="105.5,-164 0,-164 0,0 105.5,0 105.5,-164"/>
<text xml:space="preserve" text-anchor="start" x="4" y="-150.5" font-family="Helvetica,sans-Serif" font-size="10.00">ds::SparseMatrix&lt; T &gt;</text>
<text xml:space="preserve" text-anchor="start" x="10.5" y="-134.5" font-family="Helvetica,sans-Serif" font-size="10.00">&#45;</text>
<text xml:space="preserve" text-anchor="start" x="24" y="-134.5" font-family="Helvetica,sans-Serif" font-size="10.00">rows_</text>
<text xml:space="preserve" text-anchor="start" x="10.5" y="-118.5" font-family="Helvetica,sans-Serif" font-size="10.00">&#45;</text>
<text xml:space="preserve" text-anchor="start" x="24" y="-118.5" font-family="Helvetica,sans-Serif" font-size="10.00">cols_</text>
<text xml:space="preserve" text-anchor="start" x="9" y="-102.5" font-family="Helvetica,sans-Serif" font-size="10.00">+</text>
<text xml:space="preserve" text-anchor="start" x="24" y="-102.5" font-family="Helvetica,sans-Serif" font-size="10.00">SparseMatrix()</text>
<text xml:space="preserve" text-anchor="start" x="9" y="-86.5" font-family="Helvetica,sans-Serif" font-size="10.00">+</text>
<text xml:space="preserve" text-anchor="start" x="24" y="-86.5" font-family="Helvetica,sans-Serif" font-size="10.00">set()</text>
<text xml:space="preserve" text-anchor="start" x="9" y="-70.5" font-family="Helvetica,sans-Serif" font-size="10.00">+</text>
<text xml:space="preserve" text-anchor="start" x="24" y="-70.5" font-family="Helvetica,sans-Serif" font-size="10.00">get()</text>
<text xml:space="preserve" text-anchor="start" x="9" y="-54.5" font-family="Helvetica,sans-Serif" font-size="10.00">+</text>
<text xml:space="preserve" text-anchor="start" x="24" y="-54.5" font-family="Helvetica,sans-Serif" font-size="10.00">nonZeroCount()</text>
<text xml:space="preserve" text-anchor="start" x="9" y="-38.5" font-family="Helvetica,sans-Serif" font-size="10.00">+</text>
<text xml:space="preserve" text-anchor="start" x="24" y="-38.5" font-family="Helvetica,sans-Serif" font-size="10.00">rows()</text>
<text xml:space="preserve" text-anchor="start" x="9" y="-22.5" font-family="Helvetica,sans-Serif" font-size="10.00">+</text>
<text xml:space="preserve" text-anchor="start" x="24" y="-22.5" font-family="Helvetica,sans-Serif" font-size="10.00">cols()</text>
<text xml:space="preserve" text-anchor="start" x="10.5" y="-6.5" font-family="Helvetica,sans-Serif" font-size="10.00">&#45;</text>
<text xml:space="preserve" text-anchor="start" x="24" y="-6.5" font-family="Helvetica,sans-Serif" font-size="10.00">key()</text>
<polygon fill="#666666" stroke="#666666" points="0,-146 0,-146 105.5,-146 105.5,-146 0,-146"/>
<polygon fill="#666666" stroke="#666666" points="0,-114 0,-114 22,-114 22,-114 0,-114"/>
<polygon fill="#666666" stroke="#666666" points="22,-114 22,-114 105.5,-114 105.5,-114 22,-114"/>
<polygon fill="none" stroke="#666666" points="0,0 0,-164 105.5,-164 105.5,0 0,0"/>
</a>
</g>
</g>
<!-- Node2 -->
<g id="Node000002" class="node">
<title>Node2</title>
<g id="a_Node000002"><a xlink:href="classds_1_1_hash_table.html" target="_top" xlink:title=" ">
<polygon fill="white" stroke="none" points="101.75,-474 3.75,-474 3.75,-218 101.75,-218 101.75,-474"/>
<text xml:space="preserve" text-anchor="start" x="7.75" y="-460.5" font-family="Helvetica,sans-Serif" font-size="10.00">ds::HashTable&lt; long</text>
<text xml:space="preserve" text-anchor="start" x="32.12" y="-448.5" font-family="Helvetica,sans-Serif" font-size="10.00"> long, T &gt;</text>
<text xml:space="preserve" text-anchor="start" x="16.12" y="-432.5" font-family="Helvetica,sans-Serif" font-size="10.00">&#45;</text>
<text xml:space="preserve" text-anchor="start" x="31.5" y="-432.5" font-family="Helvetica,sans-Serif" font-size="10.00">table_</text>
<text xml:space="preserve" text-anchor="start" x="16.12" y="-416.5" font-family="Helvetica,sans-Serif" font-size="10.00">&#45;</text>
<text xml:space="preserve" text-anchor="start" x="31.5" y="-416.5" font-family="Helvetica,sans-Serif" font-size="10.00">count_</text>
<text xml:space="preserve" text-anchor="start" x="16.12" y="-400.5" font-family="Helvetica,sans-Serif" font-size="10.00">&#45;</text>
<text xml:space="preserve" text-anchor="start" x="31.5" y="-400.5" font-family="Helvetica,sans-Serif" font-size="10.00">max_load_</text>
<text xml:space="preserve" text-anchor="start" x="16.12" y="-384.5" font-family="Helvetica,sans-Serif" font-size="10.00">&#45;</text>
<text xml:space="preserve" text-anchor="start" x="31.5" y="-384.5" font-family="Helvetica,sans-Serif" font-size="10.00">hasher_</text>
<text xml:space="preserve" text-anchor="start" x="14.62" y="-368.5" font-family="Helvetica,sans-Serif" font-size="10.00">+</text>
<text xml:space="preserve" text-anchor="start" x="31.5" y="-368.5" font-family="Helvetica,sans-Serif" font-size="10.00">HashTable()</text>
<text xml:space="preserve" text-anchor="start" x="14.62" y="-352.5" font-family="Helvetica,sans-Serif" font-size="10.00">+</text>
<text xml:space="preserve" text-anchor="start" x="31.5" y="-352.5" font-family="Helvetica,sans-Serif" font-size="10.00">size()</text>
<text xml:space="preserve" text-anchor="start" x="14.62" y="-336.5" font-family="Helvetica,sans-Serif" font-size="10.00">+</text>
<text xml:space="preserve" text-anchor="start" x="31.5" y="-336.5" font-family="Helvetica,sans-Serif" font-size="10.00">empty()</text>
<text xml:space="preserve" text-anchor="start" x="14.62" y="-320.5" font-family="Helvetica,sans-Serif" font-size="10.00">+</text>
<text xml:space="preserve" text-anchor="start" x="31.5" y="-320.5" font-family="Helvetica,sans-Serif" font-size="10.00">insert()</text>
<text xml:space="preserve" text-anchor="start" x="14.62" y="-304.5" font-family="Helvetica,sans-Serif" font-size="10.00">+</text>
<text xml:space="preserve" text-anchor="start" x="31.5" y="-304.5" font-family="Helvetica,sans-Serif" font-size="10.00">find()</text>
<text xml:space="preserve" text-anchor="start" x="14.62" y="-288.5" font-family="Helvetica,sans-Serif" font-size="10.00">+</text>
<text xml:space="preserve" text-anchor="start" x="31.5" y="-288.5" font-family="Helvetica,sans-Serif" font-size="10.00">contains()</text>
<text xml:space="preserve" text-anchor="start" x="14.62" y="-272.5" font-family="Helvetica,sans-Serif" font-size="10.00">+</text>
<text xml:space="preserve" text-anchor="start" x="31.5" y="-272.5" font-family="Helvetica,sans-Serif" font-size="10.00">erase()</text>
<text xml:space="preserve" text-anchor="start" x="16.12" y="-256.5" font-family="Helvetica,sans-Serif" font-size="10.00">&#45;</text>
<text xml:space="preserve" text-anchor="start" x="31.5" y="-256.5" font-family="Helvetica,sans-Serif" font-size="10.00">idx()</text>
<text xml:space="preserve" text-anchor="start" x="16.12" y="-240.5" font-family="Helvetica,sans-Serif" font-size="10.00">&#45;</text>
<text xml:space="preserve" text-anchor="start" x="31.5" y="-240.5" font-family="Helvetica,sans-Serif" font-size="10.00">rehash()</text>
<text xml:space="preserve" text-anchor="start" x="16.12" y="-224.5" font-family="Helvetica,sans-Serif" font-size="10.00">&#45;</text>
<text xml:space="preserve" text-anchor="start" x="31.5" y="-224.5" font-family="Helvetica,sans-Serif" font-size="10.00">ensure()</text>
<polygon fill="#666666" stroke="#666666" points="3.75,-444 3.75,-444 101.75,-444 101.75,-444 3.75,-444"/>
<polygon fill="#666666" stroke="#666666" points="3.75,-380 3.75,-380 29.5,-380 29.5,-380 3.75,-380"/>
<polygon fill="#666666" stroke="#666666" points="29.5,-380 29.5,-380 101.75,-380 101.75,-380 29.5,-380"/>
<polygon fill="none" stroke="#666666" points="3.75,-218 3.75,-474 101.75,-474 101.75,-218 3.75,-218"/>
</a>
</g>
</g>
<!-- Node2&#45;&gt;Node1 -->
<g id="edge1_Node000001_Node000002" class="edge">
<title>Node2&#45;&gt;Node1</title>
<g id="a_edge1_Node000001_Node000002"><a xlink:title=" ">
<path fill="none" stroke="#63b8ff" d="M52.75,-218.22C52.75,-204.17 52.75,-190.04 52.75,-176.51"/>
<polygon fill="none" stroke="#63b8ff" points="52.75,-176.63 48.75,-170.63 52.75,-164.63 56.75,-170.63 52.75,-176.63"/>
</a>
</g>
<text xml:space="preserve" text-anchor="start" x="55.75" y="-187.5" font-family="Helvetica,sans-Serif" font-size="10.00" fill="grey">&#45;data_</text>
</g>
</g>
</svg>
