<?xml version="1.0" encoding="UTF-8" standalone="no"?>
<!DOCTYPE svg PUBLIC "-//W3C//DTD SVG 1.1//EN"
 "http://www.w3.org/Graphics/SVG/1.1/DTD/svg11.dtd">
<!-- Generated by graphviz version 14.0.1 (20251006.0113)
 -->
<!-- Title: ds::XORLinkedList&lt; T &gt; Pages: 1 -->
<svg width="159pt" height="418pt"
 viewBox="0.00 0.00 159.00 418.00" xmlns="http://www.w3.org/2000/svg" xmlns:xlink="http://www.w3.org/1999/xlink">
<g id="graph0" class="graph" transform="scale(1 1) rotate(0) translate(4 414)">
<title>ds::XORLinkedList&lt; T &gt;</title>
<!-- Node1 -->
<g id="Node000001" class="node">
<title>Node1</title>
<g id="a_Node000001"><a xlink:title=" ">
<polygon fill="#999999" stroke="none" points="113.75,-276 0,-276 0,0 113.75,0 113.75,-276"/>
<text xml:space="preserve" text-anchor="start" x="4" y="-262.5" font-family="Helvetica,sans-Serif" font-size="10.00">ds::XORLinkedList&lt; T &gt;</text>
<text xml:space="preserve" text-anchor="start" x="6.75" y="-246.5" font-family="Helvetica,sans-Serif" font-size="10.00">&#45;</text>
<text xml:space="preserve" text-anchor="start" x="16.5" y="-246.5" font-family="Helvetica,sans-Serif" font-size="10.00">size_</text>
<text xml:space="preserve" text-anchor="start" x="5.25" y="-230.5" font-family="Helvetica,sans-Serif" font-size="10.00">+</text>
<text xml:space="preserve" text-anchor="start" x="16.5" y="-230.5" font-family="Helvetica,sans-Serif" font-size="10.00">XORLinkedList()</text>
<text xml:space="preserve" text-anchor="start" x="5.25" y="-214.5" font-family="Helvetica,sans-Serif" font-size="10.00">+</text>
<text xml:space="preserve" text-anchor="start" x="16.5" y="-214.5" font-family="Helvetica,sans-Serif" font-size="10.00">~XORLinkedList()</text>
<text xml:space="preserve" text-anchor="start" x="5.25" y="-198.5" font-family="Helvetica,sans-Serif" font-size="10.00">+</text>
<text xml:space="preserve" text-anchor="start" x="16.5" y="-198.5" font-family="Helvetica,sans-Serif" font-size="10.00">XORLinkedList()</text>
<text xml:space="preserve" text-anchor="start" x="5.25" y="-182.5" font-family="Helvetica,sans-Serif" font-size="10.00">+</text>
<text xml:space="preserve" text-anchor="start" x="16.5" y="-182.5" font-family="Helvetica,sans-Serif" font-size="10.00">operator=()</text>
<text xml:space="preserve" text-anchor="start" x="5.25" y="-166.5" font-family="Helvetica,sans-Serif" font-size="10.00">+</text>
<text xml:space="preserve" text-anchor="start" x="16.5" y="-166.5" font-family="Helvetica,sans-Serif" font-size="10.00">clear()</text>
<text xml:space="preserve" text-anchor="start" x="5.25" y="-150.5" font-family="Helvetica,sans-Serif" font-size="10.00">+</text>
<text xml:space="preserve" text-anchor="start" x="16.5" y="-150.5" font-family="Helvetica,sans-Serif" font-size="10.00">size()</text>
<text xml:space="preserve" text-anchor="start" x="5.25" y="-134.5" font-family="Helvetica,sans-Serif" font-size="10.00">+</text>
<text xml:space="preserve" text-anchor="start" x="16.5" y="-134.5" font-family="Helvetica,sans-Serif" font-size="10.00">empty()</text>
<text xml:space="preserve" text-anchor="start" x="5.25" y="-118.5" font-family="Helvetica,sans-Serif" font-size="10.00">+</text>
<text xml:space="preserve" text-anchor="start" x="16.5" y="-118.5" font-family="Helvetica,sans-Serif" font-size="10.00">push_back()</text>
<text xml:space="preserve" text-anchor="start" x="5.25" y="-102.5" font-family="Helvetica,sans-Serif" font-size="10.00">+</text>
<text xml:space="preserve" text-anchor="start" x="16.5" y="-102.5" font-family="Helvetica,sans-Serif" font-size="10.00">push_front()</text>
<text xml:space="preserve" text-anchor="start" x="5.25" y="-86.5" font-family="Helvetica,sans-Serif" font-size="10.00">+</text>
<text xml:space="preserve" text-anchor="start" x="16.5" y="-86.5" font-family="Helvetica,sans-Serif" font-size="10.00">pop_back()</text>
<text xml:space="preserve" text-anchor="start" x="5.25" y="-70.5" font-family="Helvetica,sans-Serif" font-size="10.00">+</text>
<text xml:space="preserve" text-anchor="start" x="16.5" y="-70.5" font-family="Helvetica,sans-Serif" font-size="10.00">pop_front()</text>
<text xml:space="preserve" text-anchor="start" x="5.25" y="-54.5" font-family="Helvetica,sans-Serif" font-size="10.00">+</text>
<text xml:space="preserve" text-anchor="start" x="16.5" y="-54.5" font-family="Helvetica,sans-Serif" font-size="10.00">for_each_forward()</text>
<text xml:space="preserve" text-anchor="start" x="5.25" y="-38.5" font-family="Helvetica,sans-Serif" font-size="10.00">+</text>
<text xml:space="preserve" text-anchor="start" x="16.5" y="-38.5" font-family="Helvetica,sans-Serif" font-size="10.00">for_each_backward()</text>
<text xml:space="preserve" text-anchor="start" x="5.25" y="-22.5" font-family="Helvetica,sans-Serif" font-size="10.00">+</text>
<text xml:space="preserve" text-anchor="start" x="16.5" y="-22.5" font-family="Helvetica,sans-Serif" font-size="10.00">remove_first()</text>
<text xml:space="preserve" text-anchor="start" x="6.75" y="-6.5" font-family="Helvetica,sans-Serif" font-size="10.00">&#45;</text>
<text xml:space="preserve" text-anchor="start" x="16.5" y="-6.5" font-family="Helvetica,sans-Serif" font-size="10.00">XOR()</text>
<polygon fill="#666666" stroke="#666666" points="0,-258 0,-258 113.75,-258 113.75,-258 0,-258"/>
<polygon fill="#666666" stroke="#666666" points="0,-242 0,-242 14.5,-242 14.5,-242 0,-242"/>
<polygon fill="#666666" stroke="#666666" points="14.5,-242 14.5,-242 113.75,-242 113.75,-242 14.5,-242"/>
<polygon fill="none" stroke="#666666" points="0,0 0,-276 113.75,-276 113.75,0 0,0"/>
</a>
</g>
</g>
<!-- Node2 -->
<g id="Node000002" class="node">
<title>Node2</title>
<g id="a_Node000002"><a xlink:href="$structds_1_1_x_o_r_linked_list_1_1_node.html" xlink:title=" ">
<polygon fill="white" stroke="none" points="105.12,-410 8.62,-410 8.62,-346 105.12,-346 105.12,-410"/>
<text xml:space="preserve" text-anchor="start" x="12.62" y="-396.5" font-family="Helvetica,sans-Serif" font-size="10.00">ds::XORLinkedList&lt;</text>
<text xml:space="preserve" text-anchor="start" x="33.62" y="-384.5" font-family="Helvetica,sans-Serif" font-size="10.00"> T &gt;::Node</text>
<text xml:space="preserve" text-anchor="start" x="24.94" y="-368.5" font-family="Helvetica,sans-Serif" font-size="10.00">+</text>
<text xml:space="preserve" text-anchor="start" x="47.25" y="-368.5" font-family="Helvetica,sans-Serif" font-size="10.00">value</text>
<text xml:space="preserve" text-anchor="start" x="24.94" y="-352.5" font-family="Helvetica,sans-Serif" font-size="10.00">+</text>
<text xml:space="preserve" text-anchor="start" x="47.25" y="-352.5" font-family="Helvetica,sans-Serif" font-size="10.00">Node()</text>
<polygon fill="#666666" stroke="#666666" points="8.62,-380 8.62,-380 105.12,-380 105.12,-380 8.62,-380"/>
<polygon fill="#666666" stroke="#666666" points="8.62,-364 8.62,-364 45.25,-364 45.25,-364 8.62,-364"/>
<polygon fill="#666666" stroke="#666666" points="45.25,-364 45.25,-364 105.12,-364 105.12,-364 45.25,-364"/>
<polygon fill="none" stroke="#666666" points="8.62,-346 8.62,-410 105.12,-410 105.12,-346 8.62,-346"/>
</a>
</g>
</g>
<!-- Node2&#45;&gt;Node1 -->
<g id="edge1_Node000001_Node000002" class="edge">
<title>Node2&#45;&gt;Node1</title>
<g id="a_edge1_Node000001_Node000002"><a xlink:title=" ">
<path fill="none" stroke="#63b8ff" d="M56.88,-346.37C56.88,-330.79 56.88,-310.57 56.88,-288.88"/>
<polygon fill="none" stroke="#63b8ff" points="56.88,-288.87 52.88,-282.87 56.88,-276.87 60.88,-282.87 56.88,-288.87"/>
</a>
</g>
<text xml:space="preserve" text-anchor="start" x="59.88" y="-315.5" font-family="Helvetica,sans-Serif" font-size="10.00" fill="grey">&#45;head_</text>
<text xml:space="preserve" text-anchor="start" x="59.88" y="-299.5" font-family="Helvetica,sans-Serif" font-size="10.00" fill="grey">&#45;tail_</text>
</g>
<!-- Node2&#45;&gt;Node2 -->
<g id="edge2_Node000002_Node000002" class="edge">
<title>Node2&#45;&gt;Node2</title>
<g id="a_edge2_Node000002_Node000002"><a xlink:title=" ">
<path fill="none" stroke="#63b8ff" d="M105.11,-390.19C115.55,-389 123.12,-384.94 123.12,-378 123.12,-374.32 120.99,-371.44 117.42,-369.38"/>
<polygon fill="none" stroke="#63b8ff" points="117.5,-369.4 110.63,-371.57 105.98,-366.06 112.85,-363.89 117.5,-369.4"/>
</a>
</g>
<text xml:space="preserve" text-anchor="start" x="126.12" y="-374.5" font-family="Helvetica,sans-Serif" font-size="10.00" fill="grey">+npx</text>
</g>
</g>
</svg>
