<?xml version="1.0" encoding="UTF-8" standalone="no"?>
<!DOCTYPE svg PUBLIC "-//W3C//DTD SVG 1.1//EN"
 "http://www.w3.org/Graphics/SVG/1.1/DTD/svg11.dtd">
<!-- Generated by graphviz version 14.0.1 (20251006.0113)
 -->
<!-- Title: src/translator/codegen.cpp Pages: 1 -->
<svg width="182pt" height="196pt"
 viewBox="0.00 0.00 182.00 196.00" xmlns="http://www.w3.org/2000/svg" xmlns:xlink="http://www.w3.org/1999/xlink">
<g id="graph0" class="graph" transform="scale(1 1) rotate(0) translate(4 192)">
<title>src/translator/codegen.cpp</title>
<!-- Node1 -->
<g id="Node000001" class="node">
<title>Node1</title>
<g id="a_Node000001"><a xlink:title="AST&#39;yi C++ kaynak koduna dönüştüren yordamların uygulaması.">
<polygon fill="#999999" stroke="#666666" points="166,-188 34.5,-188 34.5,-168 166,-168 166,-188"/>
<text xml:space="preserve" text-anchor="middle" x="100.25" y="-174.5" font-family="Helvetica,sans-Serif" font-size="10.00">src/translator/codegen.cpp</text>
</a>
</g>
</g>
<!-- Node2 -->
<g id="Node000002" class="node">
<title>Node2</title>
<g id="a_Node000002"><a xlink:href="codegen_8h.html" target="_top" xlink:title="AST&#39;ten C++ kodu üretimi için arabirim.">
<polygon fill="white" stroke="#666666" points="104.5,-132 0,-132 0,-112 104.5,-112 104.5,-132"/>
<text xml:space="preserve" text-anchor="middle" x="52.25" y="-118.5" font-family="Helvetica,sans-Serif" font-size="10.00">translator/codegen.h</text>
</a>
</g>
</g>
<!-- Node1&#45;&gt;Node2 -->
<g id="edge1_Node000001_Node000002" class="edge">
<title>Node1&#45;&gt;Node2</title>
<g id="a_edge1_Node000001_Node000002"><a xlink:title=" ">
<path fill="none" stroke="#63b8ff" d="M91.89,-167.59C85.35,-160.24 76.07,-149.8 68.13,-140.87"/>
<polygon fill="#63b8ff" stroke="#63b8ff" points="70.78,-138.58 61.52,-133.43 65.55,-143.23 70.78,-138.58"/>
</a>
</g>
</g>
<!-- Node7 -->
<g id="Node000007" class="node">
<title>Node7</title>
<g id="a_Node000007"><a xlink:title=" ">
<polygon fill="#e0e0e0" stroke="#999999" points="173.88,-132 122.62,-132 122.62,-112 173.88,-112 173.88,-132"/>
<text xml:space="preserve" text-anchor="middle" x="148.25" y="-118.5" font-family="Helvetica,sans-Serif" font-size="10.00">sstream</text>
</a>
</g>
</g>
<!-- Node1&#45;&gt;Node7 -->
<g id="edge7_Node000001_Node000007" class="edge">
<title>Node1&#45;&gt;Node7</title>
<g id="a_edge7_Node000001_Node000007"><a xlink:title=" ">
<path fill="none" stroke="#63b8ff" d="M108.61,-167.59C115.15,-160.24 124.43,-149.8 132.37,-140.87"/>
<polygon fill="#63b8ff" stroke="#63b8ff" points="134.95,-143.23 138.98,-133.43 129.72,-138.58 134.95,-143.23"/>
</a>
</g>
</g>
<!-- Node3 -->
<g id="Node000003" class="node">
<title>Node3</title>
<g id="a_Node000003"><a xlink:title=" ">
<polygon fill="#e0e0e0" stroke="#999999" points="40.25,-20 0.25,-20 0.25,0 40.25,0 40.25,-20"/>
<text xml:space="preserve" text-anchor="middle" x="20.25" y="-6.5" font-family="Helvetica,sans-Serif" font-size="10.00">string</text>
</a>
</g>
</g>
<!-- Node2&#45;&gt;Node3 -->
<g id="edge2_Node000002_Node000003" class="edge">
<title>Node2&#45;&gt;Node3</title>
<g id="a_edge2_Node000002_Node000003"><a xlink:title=" ">
<path fill="none" stroke="#63b8ff" d="M48.97,-111.75C45.8,-102.69 40.96,-88.47 37.25,-76 32.82,-61.09 28.39,-44.07 25.17,-31.19"/>
<polygon fill="#63b8ff" stroke="#63b8ff" points="28.64,-30.65 22.84,-21.78 21.84,-32.33 28.64,-30.65"/>
</a>
</g>
</g>
<!-- Node4 -->
<g id="Node000004" class="node">
<title>Node4</title>
<g id="a_Node000004"><a xlink:href="ast_8h.html" target="_top" xlink:title="Basit ifade ve deyim ağaçları (AST) tanımları">
<polygon fill="white" stroke="#666666" points="127.88,-76 46.62,-76 46.62,-56 127.88,-56 127.88,-76"/>
<text xml:space="preserve" text-anchor="middle" x="87.25" y="-62.5" font-family="Helvetica,sans-Serif" font-size="10.00">translator/ast.h</text>
</a>
</g>
</g>
<!-- Node2&#45;&gt;Node4 -->
<g id="edge3_Node000002_Node000004" class="edge">
<title>Node2&#45;&gt;Node4</title>
<g id="a_edge3_Node000002_Node000004"><a xlink:title=" ">
<path fill="none" stroke="#63b8ff" d="M58.35,-111.59C62.96,-104.47 69.46,-94.45 75.12,-85.72"/>
<polygon fill="#63b8ff" stroke="#63b8ff" points="77.9,-87.86 80.4,-77.57 72.02,-84.06 77.9,-87.86"/>
</a>
</g>
</g>
<!-- Node4&#45;&gt;Node3 -->
<g id="edge5_Node000004_Node000003" class="edge">
<title>Node4&#45;&gt;Node3</title>
<g id="a_edge5_Node000004_Node000003"><a xlink:title=" ">
<path fill="none" stroke="#63b8ff" d="M75.58,-55.59C65.97,-47.85 52.12,-36.69 40.68,-27.47"/>
<polygon fill="#63b8ff" stroke="#63b8ff" points="42.95,-24.8 32.97,-21.25 38.55,-30.25 42.95,-24.8"/>
</a>
</g>
</g>
<!-- Node5 -->
<g id="Node000005" class="node">
<title>Node5</title>
<g id="a_Node000005"><a xlink:title=" ">
<polygon fill="#e0e0e0" stroke="#999999" points="110.88,-20 59.62,-20 59.62,0 110.88,0 110.88,-20"/>
<text xml:space="preserve" text-anchor="middle" x="85.25" y="-6.5" font-family="Helvetica,sans-Serif" font-size="10.00">memory</text>
</a>
</g>
</g>
<!-- Node4&#45;&gt;Node5 -->
<g id="edge4_Node000004_Node000005" class="edge">
<title>Node4&#45;&gt;Node5</title>
<g id="a_edge4_Node000004_Node000005"><a xlink:title=" ">
<path fill="none" stroke="#63b8ff" d="M86.9,-55.59C86.66,-49.01 86.32,-39.96 86.02,-31.73"/>
<polygon fill="#63b8ff" stroke="#63b8ff" points="89.52,-31.67 85.65,-21.81 82.52,-31.93 89.52,-31.67"/>
</a>
</g>
</g>
<!-- Node6 -->
<g id="Node000006" class="node">
<title>Node6</title>
<g id="a_Node000006"><a xlink:title=" ">
<polygon fill="#e0e0e0" stroke="#999999" points="171.75,-20 128.75,-20 128.75,0 171.75,0 171.75,-20"/>
<text xml:space="preserve" text-anchor="middle" x="150.25" y="-6.5" font-family="Helvetica,sans-Serif" font-size="10.00">vector</text>
</a>
</g>
</g>
<!-- Node4&#45;&gt;Node6 -->
<g id="edge6_Node000004_Node000006" class="edge">
<title>Node4&#45;&gt;Node6</title>
<g id="a_edge6_Node000004_Node000006"><a xlink:title=" ">
<path fill="none" stroke="#63b8ff" d="M98.22,-55.59C107.17,-47.93 120.02,-36.91 130.71,-27.75"/>
<polygon fill="#63b8ff" stroke="#63b8ff" points="132.94,-30.45 138.25,-21.28 128.38,-25.13 132.94,-30.45"/>
</a>
</g>
</g>
</g>
</svg>
