<?xml version="1.0" encoding="UTF-8" standalone="no"?>
<!DOCTYPE svg PUBLIC "-//W3C//DTD SVG 1.1//EN"
 "http://www.w3.org/Graphics/SVG/1.1/DTD/svg11.dtd">
<!-- Generated by graphviz version 14.0.1 (20251006.0113)
 -->
<!-- Title: src/translator/codegen.h Pages: 1 -->
<svg width="188pt" height="140pt"
 viewBox="0.00 0.00 188.00 140.00" xmlns="http://www.w3.org/2000/svg" xmlns:xlink="http://www.w3.org/1999/xlink">

<svg id="main" version="1.1" xmlns="http://www.w3.org/2000/svg" xmlns:xlink="http://www.w3.org/1999/xlink" xml:space="preserve">

<style type="text/css"><![CDATA[
.node, .edge {opacity: 0.7;}
.node.selected, .edge.selected {opacity: 1;}
.edge:hover path { stroke: red; }
.edge:hover polygon { stroke: red; fill: red; }
]]></style>
<script type="application/ecmascript" xlink:href="svg.min.js"/>
<svg id="graph" class="graph">
<g id="graph0" class="graph" transform="scale(1 1) rotate(0) translate(4 136)">
<title>src/translator/codegen.h</title>
<!-- Node1 -->
<g id="Node000001" class="node">
<title>Node1</title>
<g id="a_Node000001"><a xlink:title="AST&#39;ten C++ kodu üretimi için arabirim.">
<polygon fill="#999999" stroke="#666666" points="121,-132 0,-132 0,-112 121,-112 121,-132"/>
<text xml:space="preserve" text-anchor="middle" x="60.5" y="-118.5" font-family="Helvetica,sans-Serif" font-size="10.00">src/translator/codegen.h</text>
</a>
</g>
</g>
<!-- Node2 -->
<g id="Node000002" class="node">
<title>Node2</title>
<g id="a_Node000002"><a xlink:title=" ">
<polygon fill="#e0e0e0" stroke="#999999" points="48.5,-20 8.5,-20 8.5,0 48.5,0 48.5,-20"/>
<text xml:space="preserve" text-anchor="middle" x="28.5" y="-6.5" font-family="Helvetica,sans-Serif" font-size="10.00">string</text>
</a>
</g>
</g>
<!-- Node1&#45;&gt;Node2 -->
<g id="edge1_Node000001_Node000002" class="edge">
<title>Node1&#45;&gt;Node2</title>
<g id="a_edge1_Node000001_Node000002"><a xlink:title=" ">
<path fill="none" stroke="#63b8ff" d="M57.22,-111.75C54.05,-102.69 49.21,-88.47 45.5,-76 41.07,-61.09 36.64,-44.07 33.42,-31.19"/>
<polygon fill="#63b8ff" stroke="#63b8ff" points="36.89,-30.65 31.09,-21.78 30.09,-32.33 36.89,-30.65"/>
</a>
</g>
</g>
<!-- Node3 -->
<g id="Node000003" class="node">
<title>Node3</title>
<g id="a_Node000003"><a xlink:href="ast_8h.html" target="_top" xlink:title="Basit ifade ve deyim ağaçları (AST) tanımları">
<polygon fill="white" stroke="#666666" points="136.12,-76 54.88,-76 54.88,-56 136.12,-56 136.12,-76"/>
<text xml:space="preserve" text-anchor="middle" x="95.5" y="-62.5" font-family="Helvetica,sans-Serif" font-size="10.00">translator/ast.h</text>
</a>
</g>
</g>
<!-- Node1&#45;&gt;Node3 -->
<g id="edge2_Node000001_Node000003" class="edge">
<title>Node1&#45;&gt;Node3</title>
<g id="a_edge2_Node000001_Node000003"><a xlink:title=" ">
<path fill="none" stroke="#63b8ff" d="M66.6,-111.59C71.21,-104.47 77.71,-94.45 83.37,-85.72"/>
<polygon fill="#63b8ff" stroke="#63b8ff" points="86.15,-87.86 88.65,-77.57 80.27,-84.06 86.15,-87.86"/>
</a>
</g>
</g>
<!-- Node3&#45;&gt;Node2 -->
<g id="edge4_Node000003_Node000002" class="edge">
<title>Node3&#45;&gt;Node2</title>
<g id="a_edge4_Node000003_Node000002"><a xlink:title=" ">
<path fill="none" stroke="#63b8ff" d="M83.83,-55.59C74.22,-47.85 60.37,-36.69 48.93,-27.47"/>
<polygon fill="#63b8ff" stroke="#63b8ff" points="51.2,-24.8 41.22,-21.25 46.8,-30.25 51.2,-24.8"/>
</a>
</g>
</g>
<!-- Node4 -->
<g id="Node000004" class="node">
<title>Node4</title>
<g id="a_Node000004"><a xlink:title=" ">
<polygon fill="#e0e0e0" stroke="#999999" points="119.12,-20 67.88,-20 67.88,0 119.12,0 119.12,-20"/>
<text xml:space="preserve" text-anchor="middle" x="93.5" y="-6.5" font-family="Helvetica,sans-Serif" font-size="10.00">memory</text>
</a>
</g>
</g>
<!-- Node3&#45;&gt;Node4 -->
<g id="edge3_Node000003_Node000004" class="edge">
<title>Node3&#45;&gt;Node4</title>
<g id="a_edge3_Node000003_Node000004"><a xlink:title=" ">
<path fill="none" stroke="#63b8ff" d="M95.15,-55.59C94.91,-49.01 94.57,-39.96 94.27,-31.73"/>
<polygon fill="#63b8ff" stroke="#63b8ff" points="97.77,-31.67 93.9,-21.81 90.77,-31.93 97.77,-31.67"/>
</a>
</g>
</g>
<!-- Node5 -->
<g id="Node000005" class="node">
<title>Node5</title>
<g id="a_Node000005"><a xlink:title=" ">
<polygon fill="#e0e0e0" stroke="#999999" points="180,-20 137,-20 137,0 180,0 180,-20"/>
<text xml:space="preserve" text-anchor="middle" x="158.5" y="-6.5" font-family="Helvetica,sans-Serif" font-size="10.00">vector</text>
</a>
</g>
</g>
<!-- Node3&#45;&gt;Node5 -->
<g id="edge5_Node000003_Node000005" class="edge">
<title>Node3&#45;&gt;Node5</title>
<g id="a_edge5_Node000003_Node000005"><a xlink:title=" ">
<path fill="none" stroke="#63b8ff" d="M106.47,-55.59C115.42,-47.93 128.27,-36.91 138.96,-27.75"/>
<polygon fill="#63b8ff" stroke="#63b8ff" points="141.19,-30.45 146.5,-21.28 136.63,-25.13 141.19,-30.45"/>
</a>
</g>
</g>
</g>
</svg>
</svg>

<style type='text/css'>
<![CDATA[
[data-mouse-over-selected='false'] { opacity: 0.7; }
[data-mouse-over-selected='true']  { opacity: 1.0; }
]]>
</style>
<script type="application/ecmascript"><![CDATA[
document.addEventListener('DOMContentLoaded', (event) => {
  highlightEdges();
  highlightAdjacentNodes();
});
]]></script>
</svg>
