<?xml version="1.0" encoding="UTF-8" standalone="no"?>
<!DOCTYPE svg PUBLIC "-//W3C//DTD SVG 1.1//EN"
 "http://www.w3.org/Graphics/SVG/1.1/DTD/svg11.dtd">
<!-- Generated by graphviz version 14.0.1 (20251006.0113)
 -->
<!-- Title: include/ds/hash_table.h Pages: 1 -->
<svg width="266pt" height="96pt"
 viewBox="0.00 0.00 266.00 96.00" xmlns="http://www.w3.org/2000/svg" xmlns:xlink="http://www.w3.org/1999/xlink">
<g id="graph0" class="graph" transform="scale(1 1) rotate(0) translate(4 92)">
<title>include/ds/hash_table.h</title>
<!-- Node1 -->
<g id="Node000001" class="node">
<title>Node1</title>
<g id="a_Node000001"><a xlink:title="Kapal覺 adreslemeli hash tablosu implementasyonu.">
<polygon fill="#999999" stroke="#666666" points="194.88,-88 76.12,-88 76.12,-68 194.88,-68 194.88,-88"/>
<text xml:space="preserve" text-anchor="middle" x="135.5" y="-74.5" font-family="Helvetica,sans-Serif" font-size="10.00">include/ds/hash_table.h</text>
</a>
</g>
</g>
<!-- Node2 -->
<g id="Node000002" class="node">
<title>Node2</title>
<g id="a_Node000002"><a xlink:href="sparse__matrix_8h.html" target="_top" xlink:title="Seyrek matris veri yap覺s覺 implementasyonlar覺">
<polygon fill="white" stroke="#666666" points="133,-26 0,-26 0,-6 133,-6 133,-26"/>
<text xml:space="preserve" text-anchor="middle" x="66.5" y="-12.5" font-family="Helvetica,sans-Serif" font-size="10.00">include/ds/sparse_matrix.h</text>
</a>
</g>
</g>
<!-- Node1&#45;&gt;Node2 -->
<g id="edge1_Node000001_Node000002" class="edge">
<title>Node1&#45;&gt;Node2</title>
<g id="a_edge1_Node000001_Node000002"><a xlink:title=" ">
<path fill="none" stroke="#63b8ff" d="M116.21,-60.22C103.5,-49.18 87.36,-35.14 76.98,-26.11"/>
<polygon fill="#63b8ff" stroke="#63b8ff" points="113.73,-62.71 123.58,-66.63 118.33,-57.43 113.73,-62.71"/>
</a>
</g>
</g>
<!-- Node3 -->
<g id="Node000003" class="node">
<title>Node3</title>
<g id="a_Node000003"><a xlink:href="symbol__table_8h.html" target="_top" xlink:title="Basit sembol tablosu arabirimi.">
<polygon fill="white" stroke="#666666" points="258.25,-32 150.75,-32 150.75,0 258.25,0 258.25,-32"/>
<text xml:space="preserve" text-anchor="start" x="158.75" y="-18.5" font-family="Helvetica,sans-Serif" font-size="10.00">src/translator/symbol</text>
<text xml:space="preserve" text-anchor="middle" x="204.5" y="-6.5" font-family="Helvetica,sans-Serif" font-size="10.00">_table.h</text>
</a>
</g>
</g>
<!-- Node1&#45;&gt;Node3 -->
<g id="edge2_Node000001_Node000003" class="edge">
<title>Node1&#45;&gt;Node3</title>
<g id="a_edge2_Node000001_Node000003"><a xlink:title=" ">
<path fill="none" stroke="#63b8ff" d="M154.77,-60.24C164.82,-51.51 177.02,-40.9 186.82,-32.37"/>
<polygon fill="#63b8ff" stroke="#63b8ff" points="152.67,-57.43 147.42,-66.63 157.27,-62.71 152.67,-57.43"/>
</a>
</g>
</g>
</g>
</svg>
