<?xml version="1.0" encoding="UTF-8" standalone="no"?>
<!DOCTYPE svg PUBLIC "-//W3C//DTD SVG 1.1//EN"
 "http://www.w3.org/Graphics/SVG/1.1/DTD/svg11.dtd">
<!-- Generated by graphviz version 14.0.1 (20251006.0113)
 -->
<!-- Title: C:/Users/ahmet/OneDrive/Masaüstü/DataStructure/cen207&#45;2025&#45;2026&#45;5&#45;Mustafa&#45;Yildirimm&#45;cpp/include/ds/heap.h Pages: 1 -->
<svg width="166pt" height="120pt"
 viewBox="0.00 0.00 166.00 120.00" xmlns="http://www.w3.org/2000/svg" xmlns:xlink="http://www.w3.org/1999/xlink">
<g id="graph0" class="graph" transform="scale(1 1) rotate(0) translate(4 116)">
<title>C:/Users/ahmet/OneDrive/Masaüstü/DataStructure/cen207&#45;2025&#45;2026&#45;5&#45;Mustafa&#45;Yildirimm&#45;cpp/include/ds/heap.h</title>
<!-- Node1 -->
<g id="Node000001" class="node">
<title>Node1</title>
<g id="a_Node000001"><a xlink:title=" ">
<polygon fill="#999999" stroke="#666666" points="157.75,-112 0,-112 0,-56 157.75,-56 157.75,-112"/>
<text xml:space="preserve" text-anchor="start" x="8" y="-98.5" font-family="Helvetica,sans-Serif" font-size="10.00">C:/Users/ahmet/OneDrive</text>
<text xml:space="preserve" text-anchor="start" x="8" y="-86.5" font-family="Helvetica,sans-Serif" font-size="10.00">/Masaüstü/DataStructure</text>
<text xml:space="preserve" text-anchor="start" x="8" y="-74.5" font-family="Helvetica,sans-Serif" font-size="10.00">/cen207&#45;2025&#45;2026&#45;5&#45;Mustafa</text>
<text xml:space="preserve" text-anchor="middle" x="78.88" y="-62.5" font-family="Helvetica,sans-Serif" font-size="10.00">&#45;Yildirimm&#45;cpp/include/ds/heap.h</text>
</a>
</g>
</g>
<!-- Node2 -->
<g id="Node000002" class="node">
<title>Node2</title>
<g id="a_Node000002"><a xlink:title=" ">
<polygon fill="#e0e0e0" stroke="#999999" points="66.38,-20 23.38,-20 23.38,0 66.38,0 66.38,-20"/>
<text xml:space="preserve" text-anchor="middle" x="44.88" y="-6.5" font-family="Helvetica,sans-Serif" font-size="10.00">vector</text>
</a>
</g>
</g>
<!-- Node1&#45;&gt;Node2 -->
<g id="edge1_Node000001_Node000002" class="edge">
<title>Node1&#45;&gt;Node2</title>
<g id="a_edge1_Node000001_Node000002"><a xlink:title=" ">
<path fill="none" stroke="#63b8ff" d="M66.02,-55.78C62.08,-47.43 57.82,-38.41 54.16,-30.67"/>
<polygon fill="#63b8ff" stroke="#63b8ff" points="57.43,-29.39 49.99,-21.84 51.1,-32.38 57.43,-29.39"/>
</a>
</g>
</g>
<!-- Node3 -->
<g id="Node000003" class="node">
<title>Node3</title>
<g id="a_Node000003"><a xlink:title=" ">
<polygon fill="#e0e0e0" stroke="#999999" points="142.88,-20 84.88,-20 84.88,0 142.88,0 142.88,-20"/>
<text xml:space="preserve" text-anchor="middle" x="113.88" y="-6.5" font-family="Helvetica,sans-Serif" font-size="10.00">functional</text>
</a>
</g>
</g>
<!-- Node1&#45;&gt;Node3 -->
<g id="edge2_Node000001_Node000003" class="edge">
<title>Node1&#45;&gt;Node3</title>
<g id="a_edge2_Node000001_Node000003"><a xlink:title=" ">
<path fill="none" stroke="#63b8ff" d="M92.11,-55.78C96.16,-47.43 100.55,-38.41 104.31,-30.67"/>
<polygon fill="#63b8ff" stroke="#63b8ff" points="107.38,-32.36 108.61,-21.83 101.09,-29.3 107.38,-32.36"/>
</a>
</g>
</g>
</g>
</svg>
