<?xml version="1.0" encoding="UTF-8" standalone="no"?>
<!DOCTYPE svg PUBLIC "-//W3C//DTD SVG 1.1//EN"
 "http://www.w3.org/Graphics/SVG/1.1/DTD/svg11.dtd">
<!-- Generated by graphviz version 14.0.1 (20251006.0113)
 -->
<!-- Title: Graphical Class Hierarchy Pages: 1 -->
<svg width="244pt" height="104pt"
 viewBox="0.00 0.00 244.00 104.00" xmlns="http://www.w3.org/2000/svg" xmlns:xlink="http://www.w3.org/1999/xlink">
<g id="graph0" class="graph" transform="scale(1 1) rotate(0) translate(4 100)">
<title>Graphical Class Hierarchy</title>
<!-- Node0 -->
<g id="Node000000" class="node">
<title>Node0</title>
<g id="a_Node000000"><a xlink:href="$structtranslator_1_1_expr.html" xlink:title=" ">
<polygon fill="white" stroke="#666666" points="82.75,-58 0,-58 0,-38 82.75,-38 82.75,-58"/>
<text xml:space="preserve" text-anchor="middle" x="41.38" y="-44.5" font-family="Helvetica,sans-Serif" font-size="10.00">translator::Expr</text>
</a>
</g>
</g>
<!-- Node1 -->
<g id="Node000001" class="node">
<title>Node1</title>
<g id="a_Node000001"><a xlink:href="$structtranslator_1_1_binary_expr.html" xlink:title=" ">
<polygon fill="white" stroke="#666666" points="232.62,-96 122.12,-96 122.12,-76 232.62,-76 232.62,-96"/>
<text xml:space="preserve" text-anchor="middle" x="177.38" y="-82.5" font-family="Helvetica,sans-Serif" font-size="10.00">translator::BinaryExpr</text>
</a>
</g>
</g>
<!-- Node0&#45;&gt;Node1 -->
<g id="edge1_Node000000_Node000001" class="edge">
<title>Node0&#45;&gt;Node1</title>
<g id="a_edge1_Node000000_Node000001"><a xlink:title=" ">
<path fill="none" stroke="#63b8ff" d="M90.26,-61.58C106.47,-66.18 124.31,-71.23 139.52,-75.55"/>
<polygon fill="#63b8ff" stroke="#63b8ff" points="91.38,-58.26 80.8,-58.9 89.47,-64.99 91.38,-58.26"/>
</a>
</g>
</g>
<!-- Node2 -->
<g id="Node000002" class="node">
<title>Node2</title>
<g id="a_Node000002"><a xlink:href="$structtranslator_1_1_number_expr.html" xlink:title=" ">
<polygon fill="white" stroke="#666666" points="236,-58 118.75,-58 118.75,-38 236,-38 236,-58"/>
<text xml:space="preserve" text-anchor="middle" x="177.38" y="-44.5" font-family="Helvetica,sans-Serif" font-size="10.00">translator::NumberExpr</text>
</a>
</g>
</g>
<!-- Node0&#45;&gt;Node2 -->
<g id="edge2_Node000000_Node000002" class="edge">
<title>Node0&#45;&gt;Node2</title>
<g id="a_edge2_Node000000_Node000002"><a xlink:title=" ">
<path fill="none" stroke="#63b8ff" d="M94.34,-48C102.3,-48 110.56,-48 118.64,-48"/>
<polygon fill="#63b8ff" stroke="#63b8ff" points="94.46,-44.5 84.46,-48 94.46,-51.5 94.46,-44.5"/>
</a>
</g>
</g>
<!-- Node3 -->
<g id="Node000003" class="node">
<title>Node3</title>
<g id="a_Node000003"><a xlink:href="$structtranslator_1_1_variable_expr.html" xlink:title=" ">
<polygon fill="white" stroke="#666666" points="236,-20 118.75,-20 118.75,0 236,0 236,-20"/>
<text xml:space="preserve" text-anchor="middle" x="177.38" y="-6.5" font-family="Helvetica,sans-Serif" font-size="10.00">translator::VariableExpr</text>
</a>
</g>
</g>
<!-- Node0&#45;&gt;Node3 -->
<g id="edge3_Node000000_Node000003" class="edge">
<title>Node0&#45;&gt;Node3</title>
<g id="a_edge3_Node000000_Node000003"><a xlink:title=" ">
<path fill="none" stroke="#63b8ff" d="M90.26,-34.42C106.47,-29.82 124.31,-24.77 139.52,-20.45"/>
<polygon fill="#63b8ff" stroke="#63b8ff" points="89.47,-31.01 80.8,-37.1 91.38,-37.74 89.47,-31.01"/>
</a>
</g>
</g>
</g>
</svg>
