<?xml version="1.0" encoding="UTF-8" standalone="no"?>
<!DOCTYPE svg PUBLIC "-//W3C//DTD SVG 1.1//EN"
 "http://www.w3.org/Graphics/SVG/1.1/DTD/svg11.dtd">
<!-- Generated by graphviz version 14.0.1 (20251006.0113)
 -->
<!-- Title: Graphical Class Hierarchy Pages: 1 -->
<svg width="240pt" height="256pt"
 viewBox="0.00 0.00 240.00 256.00" xmlns="http://www.w3.org/2000/svg" xmlns:xlink="http://www.w3.org/1999/xlink">
<g id="graph0" class="graph" transform="scale(1 1) rotate(0) translate(4 252)">
<title>Graphical Class Hierarchy</title>
<!-- Node0 -->
<g id="Node000000" class="node">
<title>Node0</title>
<g id="a_Node000000"><a xlink:href="structtranslator_1_1_stmt.html" target="_top" xlink:title="Tüm deyimler için taban tür.">
<polygon fill="white" stroke="#666666" points="83.5,-134 0,-134 0,-114 83.5,-114 83.5,-134"/>
<text xml:space="preserve" text-anchor="middle" x="41.75" y="-120.5" font-family="Helvetica,sans-Serif" font-size="10.00">translator::Stmt</text>
</a>
</g>
</g>
<!-- Node1 -->
<g id="Node000001" class="node">
<title>Node1</title>
<g id="a_Node000001"><a xlink:href="structtranslator_1_1_gosub_stmt.html" target="_top" xlink:title="GOSUB deyimi.">
<polygon fill="white" stroke="#666666" points="231.88,-248 119.88,-248 119.88,-228 231.88,-228 231.88,-248"/>
<text xml:space="preserve" text-anchor="middle" x="175.88" y="-234.5" font-family="Helvetica,sans-Serif" font-size="10.00">translator::GosubStmt</text>
</a>
</g>
</g>
<!-- Node0&#45;&gt;Node1 -->
<g id="edge4_Node000000_Node000001" class="edge">
<title>Node0&#45;&gt;Node1</title>
<g id="a_edge4_Node000000_Node000001"><a xlink:title=" ">
<path fill="none" stroke="#63b8ff" d="M54.27,-144.16C67.46,-165.57 90.97,-199.02 119.5,-219 124.33,-222.38 129.81,-225.21 135.41,-227.55"/>
<polygon fill="#63b8ff" stroke="#63b8ff" points="57.39,-142.57 49.26,-135.77 51.37,-146.15 57.39,-142.57"/>
</a>
</g>
</g>
<!-- Node2 -->
<g id="Node000002" class="node">
<title>Node2</title>
<g id="a_Node000002"><a xlink:href="structtranslator_1_1_goto_stmt.html" target="_top" xlink:title="GOTO deyimi.">
<polygon fill="white" stroke="#666666" points="228.12,-210 123.62,-210 123.62,-190 228.12,-190 228.12,-210"/>
<text xml:space="preserve" text-anchor="middle" x="175.88" y="-196.5" font-family="Helvetica,sans-Serif" font-size="10.00">translator::GotoStmt</text>
</a>
</g>
</g>
<!-- Node0&#45;&gt;Node2 -->
<g id="edge5_Node000000_Node000002" class="edge">
<title>Node0&#45;&gt;Node2</title>
<g id="a_edge5_Node000000_Node000002"><a xlink:title=" ">
<path fill="none" stroke="#63b8ff" d="M62.57,-141.41C77.43,-153.77 98.7,-170.05 119.5,-181 125.62,-184.22 132.39,-187.07 139.04,-189.52"/>
<polygon fill="#63b8ff" stroke="#63b8ff" points="65.25,-139.1 55.36,-135.29 60.72,-144.43 65.25,-139.1"/>
</a>
</g>
</g>
<!-- Node3 -->
<g id="Node000003" class="node">
<title>Node3</title>
<g id="a_Node000003"><a xlink:href="structtranslator_1_1_if_goto_stmt.html" target="_top" xlink:title="IF THEN GOTO deyimi.">
<polygon fill="white" stroke="#666666" points="231.12,-172 120.62,-172 120.62,-152 231.12,-152 231.12,-172"/>
<text xml:space="preserve" text-anchor="middle" x="175.88" y="-158.5" font-family="Helvetica,sans-Serif" font-size="10.00">translator::IfGotoStmt</text>
</a>
</g>
</g>
<!-- Node0&#45;&gt;Node3 -->
<g id="edge6_Node000000_Node000003" class="edge">
<title>Node0&#45;&gt;Node3</title>
<g id="a_edge6_Node000000_Node000003"><a xlink:title=" ">
<path fill="none" stroke="#63b8ff" d="M89.96,-137.58C105.94,-142.18 123.54,-147.23 138.54,-151.55"/>
<polygon fill="#63b8ff" stroke="#63b8ff" points="91.24,-134.3 80.66,-134.9 89.3,-141.03 91.24,-134.3"/>
</a>
</g>
</g>
<!-- Node4 -->
<g id="Node000004" class="node">
<title>Node4</title>
<g id="a_Node000004"><a xlink:href="structtranslator_1_1_input_stmt.html" target="_top" xlink:title="INPUT deyimi.">
<polygon fill="white" stroke="#666666" points="228.5,-134 123.25,-134 123.25,-114 228.5,-114 228.5,-134"/>
<text xml:space="preserve" text-anchor="middle" x="175.88" y="-120.5" font-family="Helvetica,sans-Serif" font-size="10.00">translator::InputStmt</text>
</a>
</g>
</g>
<!-- Node0&#45;&gt;Node4 -->
<g id="edge7_Node000000_Node000004" class="edge">
<title>Node0&#45;&gt;Node4</title>
<g id="a_edge7_Node000000_Node000004"><a xlink:title=" ">
<path fill="none" stroke="#63b8ff" d="M95.2,-124C104.38,-124 113.93,-124 123.09,-124"/>
<polygon fill="#63b8ff" stroke="#63b8ff" points="95.34,-120.5 85.34,-124 95.34,-127.5 95.34,-120.5"/>
</a>
</g>
</g>
<!-- Node5 -->
<g id="Node000005" class="node">
<title>Node5</title>
<g id="a_Node000005"><a xlink:href="structtranslator_1_1_let_stmt.html" target="_top" xlink:title="LET atama deyimi.">
<polygon fill="white" stroke="#666666" points="224.38,-96 127.38,-96 127.38,-76 224.38,-76 224.38,-96"/>
<text xml:space="preserve" text-anchor="middle" x="175.88" y="-82.5" font-family="Helvetica,sans-Serif" font-size="10.00">translator::LetStmt</text>
</a>
</g>
</g>
<!-- Node0&#45;&gt;Node5 -->
<g id="edge8_Node000000_Node000005" class="edge">
<title>Node0&#45;&gt;Node5</title>
<g id="a_edge8_Node000000_Node000005"><a xlink:title=" ">
<path fill="none" stroke="#63b8ff" d="M89.96,-110.42C105.94,-105.82 123.54,-100.77 138.54,-96.45"/>
<polygon fill="#63b8ff" stroke="#63b8ff" points="89.3,-106.97 80.66,-113.1 91.24,-113.7 89.3,-106.97"/>
</a>
</g>
</g>
<!-- Node6 -->
<g id="Node000006" class="node">
<title>Node6</title>
<g id="a_Node000006"><a xlink:href="structtranslator_1_1_print_stmt.html" target="_top" xlink:title="PRINT deyimi.">
<polygon fill="white" stroke="#666666" points="227.75,-58 124,-58 124,-38 227.75,-38 227.75,-58"/>
<text xml:space="preserve" text-anchor="middle" x="175.88" y="-44.5" font-family="Helvetica,sans-Serif" font-size="10.00">translator::PrintStmt</text>
</a>
</g>
</g>
<!-- Node0&#45;&gt;Node6 -->
<g id="edge9_Node000000_Node000006" class="edge">
<title>Node0&#45;&gt;Node6</title>
<g id="a_edge9_Node000000_Node000006"><a xlink:title=" ">
<path fill="none" stroke="#63b8ff" d="M62.57,-106.59C77.43,-94.23 98.7,-77.95 119.5,-67 125.62,-63.78 132.39,-60.93 139.04,-58.48"/>
<polygon fill="#63b8ff" stroke="#63b8ff" points="60.72,-103.57 55.36,-112.71 65.25,-108.9 60.72,-103.57"/>
</a>
</g>
</g>
<!-- Node7 -->
<g id="Node000007" class="node">
<title>Node7</title>
<g id="a_Node000007"><a xlink:href="structtranslator_1_1_return_stmt.html" target="_top" xlink:title="RETURN deyimi.">
<polygon fill="white" stroke="#666666" points="232.25,-20 119.5,-20 119.5,0 232.25,0 232.25,-20"/>
<text xml:space="preserve" text-anchor="middle" x="175.88" y="-6.5" font-family="Helvetica,sans-Serif" font-size="10.00">translator::ReturnStmt</text>
</a>
</g>
</g>
<!-- Node0&#45;&gt;Node7 -->
<g id="edge10_Node000000_Node000007" class="edge">
<title>Node0&#45;&gt;Node7</title>
<g id="a_edge10_Node000000_Node000007"><a xlink:title=" ">
<path fill="none" stroke="#63b8ff" d="M54.27,-103.84C67.46,-82.43 90.97,-48.98 119.5,-29 124.33,-25.62 129.81,-22.79 135.41,-20.45"/>
<polygon fill="#63b8ff" stroke="#63b8ff" points="51.37,-101.85 49.26,-112.23 57.39,-105.43 51.37,-101.85"/>
</a>
</g>
</g>
</g>
</svg>
