<?xml version="1.0" encoding="UTF-8" standalone="no"?>
<!DOCTYPE svg PUBLIC "-//W3C//DTD SVG 1.1//EN"
 "http://www.w3.org/Graphics/SVG/1.1/DTD/svg11.dtd">
<!-- Generated by graphviz version 14.0.1 (20251006.0113)
 -->
<!-- Title: src/translator/parser.h Pages: 1 -->
<svg width="333pt" height="140pt"
 viewBox="0.00 0.00 333.00 140.00" xmlns="http://www.w3.org/2000/svg" xmlns:xlink="http://www.w3.org/1999/xlink">

<svg id="main" version="1.1" xmlns="http://www.w3.org/2000/svg" xmlns:xlink="http://www.w3.org/1999/xlink" xml:space="preserve">

<style type="text/css"><![CDATA[
.node, .edge {opacity: 0.7;}
.node.selected, .edge.selected {opacity: 1;}
.edge:hover path { stroke: red; }
.edge:hover polygon { stroke: red; fill: red; }
]]></style>
<script type="application/ecmascript" xlink:href="svg.min.js"/>
<svg id="graph" class="graph">
<g id="graph0" class="graph" transform="scale(1 1) rotate(0) translate(4 136)">
<title>src/translator/parser.h</title>
<!-- Node1 -->
<g id="Node000001" class="node">
<title>Node1</title>
<g id="a_Node000001"><a xlink:title="Leksik belirteçlerden AST üreten sözdizim analizcisi.">
<polygon fill="#999999" stroke="#666666" points="163.12,-132 51.88,-132 51.88,-112 163.12,-112 163.12,-132"/>
<text xml:space="preserve" text-anchor="middle" x="107.5" y="-118.5" font-family="Helvetica,sans-Serif" font-size="10.00">src/translator/parser.h</text>
</a>
</g>
</g>
<!-- Node2 -->
<g id="Node000002" class="node">
<title>Node2</title>
<g id="a_Node000002"><a xlink:title=" ">
<polygon fill="#e0e0e0" stroke="#999999" points="43,-20 0,-20 0,0 43,0 43,-20"/>
<text xml:space="preserve" text-anchor="middle" x="21.5" y="-6.5" font-family="Helvetica,sans-Serif" font-size="10.00">vector</text>
</a>
</g>
</g>
<!-- Node1&#45;&gt;Node2 -->
<g id="edge1_Node000001_Node000002" class="edge">
<title>Node1&#45;&gt;Node2</title>
<g id="a_edge1_Node000001_Node000002"><a xlink:title=" ">
<path fill="none" stroke="#63b8ff" d="M92.57,-111.83C80.26,-103.66 63.02,-90.74 51.5,-76 40.85,-62.36 32.91,-44.34 27.88,-30.73"/>
<polygon fill="#63b8ff" stroke="#63b8ff" points="31.29,-29.86 24.72,-21.55 24.67,-32.15 31.29,-29.86"/>
</a>
</g>
</g>
<!-- Node3 -->
<g id="Node000003" class="node">
<title>Node3</title>
<g id="a_Node000003"><a xlink:title=" ">
<polygon fill="#e0e0e0" stroke="#999999" points="122.12,-20 70.88,-20 70.88,0 122.12,0 122.12,-20"/>
<text xml:space="preserve" text-anchor="middle" x="96.5" y="-6.5" font-family="Helvetica,sans-Serif" font-size="10.00">memory</text>
</a>
</g>
</g>
<!-- Node1&#45;&gt;Node3 -->
<g id="edge2_Node000001_Node000003" class="edge">
<title>Node1&#45;&gt;Node3</title>
<g id="a_edge2_Node000001_Node000003"><a xlink:title=" ">
<path fill="none" stroke="#63b8ff" d="M91.09,-111.52C79.31,-103.68 64.34,-91.36 57.5,-76 49.86,-58.84 62.86,-40.61 75.86,-27.84"/>
<polygon fill="#63b8ff" stroke="#63b8ff" points="78.01,-30.62 83.07,-21.31 73.31,-25.43 78.01,-30.62"/>
</a>
</g>
</g>
<!-- Node4 -->
<g id="Node000004" class="node">
<title>Node4</title>
<g id="a_Node000004"><a xlink:title=" ">
<polygon fill="#e0e0e0" stroke="#999999" points="324.62,-76 276.38,-76 276.38,-56 324.62,-56 324.62,-76"/>
<text xml:space="preserve" text-anchor="middle" x="300.5" y="-62.5" font-family="Helvetica,sans-Serif" font-size="10.00">cstddef</text>
</a>
</g>
</g>
<!-- Node1&#45;&gt;Node4 -->
<g id="edge3_Node000001_Node000004" class="edge">
<title>Node1&#45;&gt;Node4</title>
<g id="a_edge3_Node000001_Node000004"><a xlink:title=" ">
<path fill="none" stroke="#63b8ff" d="M141.12,-111.59C175.91,-101.86 230.01,-86.72 265.36,-76.83"/>
<polygon fill="#63b8ff" stroke="#63b8ff" points="265.98,-80.29 274.67,-74.23 264.09,-73.55 265.98,-80.29"/>
</a>
</g>
</g>
<!-- Node5 -->
<g id="Node000005" class="node">
<title>Node5</title>
<g id="a_Node000005"><a xlink:href="token_8h.html" target="_top" xlink:title="Leksik belirteç türleri ve veri yapısı">
<polygon fill="white" stroke="#666666" points="258.38,-76 166.62,-76 166.62,-56 258.38,-56 258.38,-76"/>
<text xml:space="preserve" text-anchor="middle" x="212.5" y="-62.5" font-family="Helvetica,sans-Serif" font-size="10.00">translator/token.h</text>
</a>
</g>
</g>
<!-- Node1&#45;&gt;Node5 -->
<g id="edge4_Node000001_Node000005" class="edge">
<title>Node1&#45;&gt;Node5</title>
<g id="a_edge4_Node000001_Node000005"><a xlink:title=" ">
<path fill="none" stroke="#63b8ff" d="M125.79,-111.59C141.8,-103.36 165.33,-91.26 183.84,-81.74"/>
<polygon fill="#63b8ff" stroke="#63b8ff" points="185.43,-84.86 192.72,-77.17 182.23,-78.63 185.43,-84.86"/>
</a>
</g>
</g>
<!-- Node7 -->
<g id="Node000007" class="node">
<title>Node7</title>
<g id="a_Node000007"><a xlink:href="ast_8h.html" target="_top" xlink:title="Basit ifade ve deyim ağaçları (AST) tanımları">
<polygon fill="white" stroke="#666666" points="148.12,-76 66.88,-76 66.88,-56 148.12,-56 148.12,-76"/>
<text xml:space="preserve" text-anchor="middle" x="107.5" y="-62.5" font-family="Helvetica,sans-Serif" font-size="10.00">translator/ast.h</text>
</a>
</g>
</g>
<!-- Node1&#45;&gt;Node7 -->
<g id="edge6_Node000001_Node000007" class="edge">
<title>Node1&#45;&gt;Node7</title>
<g id="a_edge6_Node000001_Node000007"><a xlink:title=" ">
<path fill="none" stroke="#63b8ff" d="M107.5,-111.59C107.5,-105.01 107.5,-95.96 107.5,-87.73"/>
<polygon fill="#63b8ff" stroke="#63b8ff" points="111,-87.81 107.5,-77.81 104,-87.81 111,-87.81"/>
</a>
</g>
</g>
<!-- Node6 -->
<g id="Node000006" class="node">
<title>Node6</title>
<g id="a_Node000006"><a xlink:title=" ">
<polygon fill="#e0e0e0" stroke="#999999" points="206.5,-20 166.5,-20 166.5,0 206.5,0 206.5,-20"/>
<text xml:space="preserve" text-anchor="middle" x="186.5" y="-6.5" font-family="Helvetica,sans-Serif" font-size="10.00">string</text>
</a>
</g>
</g>
<!-- Node5&#45;&gt;Node6 -->
<g id="edge5_Node000005_Node000006" class="edge">
<title>Node5&#45;&gt;Node6</title>
<g id="a_edge5_Node000005_Node000006"><a xlink:title=" ">
<path fill="none" stroke="#63b8ff" d="M207.97,-55.59C204.65,-48.7 200.03,-39.1 195.92,-30.57"/>
<polygon fill="#63b8ff" stroke="#63b8ff" points="199.13,-29.15 191.63,-21.66 192.82,-32.19 199.13,-29.15"/>
</a>
</g>
</g>
<!-- Node7&#45;&gt;Node2 -->
<g id="edge9_Node000007_Node000002" class="edge">
<title>Node7&#45;&gt;Node2</title>
<g id="a_edge9_Node000007_Node000002"><a xlink:title=" ">
<path fill="none" stroke="#63b8ff" d="M92.52,-55.59C79.77,-47.59 61.21,-35.93 46.26,-26.54"/>
<polygon fill="#63b8ff" stroke="#63b8ff" points="48.21,-23.64 37.88,-21.28 44.49,-29.57 48.21,-23.64"/>
</a>
</g>
</g>
<!-- Node7&#45;&gt;Node3 -->
<g id="edge7_Node000007_Node000003" class="edge">
<title>Node7&#45;&gt;Node3</title>
<g id="a_edge7_Node000007_Node000003"><a xlink:title=" ">
<path fill="none" stroke="#63b8ff" d="M105.58,-55.59C104.23,-48.93 102.36,-39.75 100.66,-31.44"/>
<polygon fill="#63b8ff" stroke="#63b8ff" points="104.12,-30.88 98.7,-21.78 97.26,-32.28 104.12,-30.88"/>
</a>
</g>
</g>
<!-- Node7&#45;&gt;Node6 -->
<g id="edge8_Node000007_Node000006" class="edge">
<title>Node7&#45;&gt;Node6</title>
<g id="a_edge8_Node000007_Node000006"><a xlink:title=" ">
<path fill="none" stroke="#63b8ff" d="M121.26,-55.59C132.86,-47.67 149.7,-36.16 163.36,-26.82"/>
<polygon fill="#63b8ff" stroke="#63b8ff" points="165.1,-29.87 171.38,-21.33 161.15,-24.09 165.1,-29.87"/>
</a>
</g>
</g>
</g>
</svg>
</svg>

<style type='text/css'>
<![CDATA[
[data-mouse-over-selected='false'] { opacity: 0.7; }
[data-mouse-over-selected='true']  { opacity: 1.0; }
]]>
</style>
<script type="application/ecmascript"><![CDATA[
document.addEventListener('DOMContentLoaded', (event) => {
  highlightEdges();
  highlightAdjacentNodes();
});
]]></script>
</svg>
