<?xml version="1.0" encoding="UTF-8" standalone="no"?>
<!DOCTYPE svg PUBLIC "-//W3C//DTD SVG 1.1//EN"
 "http://www.w3.org/Graphics/SVG/1.1/DTD/svg11.dtd">
<!-- Generated by graphviz version 14.0.1 (20251006.0113)
 -->
<!-- Title: include/ds/sparse_matrix.h Pages: 1 -->
<svg width="271pt" height="140pt"
 viewBox="0.00 0.00 271.00 140.00" xmlns="http://www.w3.org/2000/svg" xmlns:xlink="http://www.w3.org/1999/xlink">
<g id="graph0" class="graph" transform="scale(1 1) rotate(0) translate(4 136)">
<title>include/ds/sparse_matrix.h</title>
<!-- Node1 -->
<g id="Node000001" class="node">
<title>Node1</title>
<g id="a_Node000001"><a xlink:title="Seyrek matris veri yap覺s覺 implementasyonlar覺">
<polygon fill="#999999" stroke="#666666" points="145,-132 12,-132 12,-112 145,-112 145,-132"/>
<text xml:space="preserve" text-anchor="middle" x="78.5" y="-118.5" font-family="Helvetica,sans-Serif" font-size="10.00">include/ds/sparse_matrix.h</text>
</a>
</g>
</g>
<!-- Node2 -->
<g id="Node000002" class="node">
<title>Node2</title>
<g id="a_Node000002"><a xlink:title=" ">
<polygon fill="#e0e0e0" stroke="#999999" points="60.62,-76 12.38,-76 12.38,-56 60.62,-56 60.62,-76"/>
<text xml:space="preserve" text-anchor="middle" x="36.5" y="-62.5" font-family="Helvetica,sans-Serif" font-size="10.00">cstddef</text>
</a>
</g>
</g>
<!-- Node1&#45;&gt;Node2 -->
<g id="edge1_Node000001_Node000002" class="edge">
<title>Node1&#45;&gt;Node2</title>
<g id="a_edge1_Node000001_Node000002"><a xlink:title=" ">
<path fill="none" stroke="#63b8ff" d="M71.18,-111.59C65.52,-104.32 57.51,-94.02 50.61,-85.15"/>
<polygon fill="#63b8ff" stroke="#63b8ff" points="53.56,-83.24 44.66,-77.49 48.04,-87.54 53.56,-83.24"/>
</a>
</g>
</g>
<!-- Node3 -->
<g id="Node000003" class="node">
<title>Node3</title>
<g id="a_Node000003"><a xlink:href="hash__table_8h.html" target="_top" xlink:title="Kapal覺 adreslemeli hash tablosu implementasyonu.">
<polygon fill="white" stroke="#666666" points="164,-76 79,-76 79,-56 164,-56 164,-76"/>
<text xml:space="preserve" text-anchor="middle" x="121.5" y="-62.5" font-family="Helvetica,sans-Serif" font-size="10.00">ds/hash_table.h</text>
</a>
</g>
</g>
<!-- Node1&#45;&gt;Node3 -->
<g id="edge2_Node000001_Node000003" class="edge">
<title>Node1&#45;&gt;Node3</title>
<g id="a_edge2_Node000001_Node000003"><a xlink:title=" ">
<path fill="none" stroke="#63b8ff" d="M85.99,-111.59C91.79,-104.32 99.99,-94.02 107.05,-85.15"/>
<polygon fill="#63b8ff" stroke="#63b8ff" points="109.66,-87.49 113.15,-77.48 104.19,-83.12 109.66,-87.49"/>
</a>
</g>
</g>
<!-- Node4 -->
<g id="Node000004" class="node">
<title>Node4</title>
<g id="a_Node000004"><a xlink:title=" ">
<polygon fill="#e0e0e0" stroke="#999999" points="43,-20 0,-20 0,0 43,0 43,-20"/>
<text xml:space="preserve" text-anchor="middle" x="21.5" y="-6.5" font-family="Helvetica,sans-Serif" font-size="10.00">vector</text>
</a>
</g>
</g>
<!-- Node3&#45;&gt;Node4 -->
<g id="edge3_Node000003_Node000004" class="edge">
<title>Node3&#45;&gt;Node4</title>
<g id="a_edge3_Node000003_Node000004"><a xlink:title=" ">
<path fill="none" stroke="#63b8ff" d="M104.08,-55.59C88.83,-47.36 66.42,-35.26 48.79,-25.74"/>
<polygon fill="#63b8ff" stroke="#63b8ff" points="50.85,-22.87 40.39,-21.2 47.52,-29.03 50.85,-22.87"/>
</a>
</g>
</g>
<!-- Node5 -->
<g id="Node000005" class="node">
<title>Node5</title>
<g id="a_Node000005"><a xlink:title=" ">
<polygon fill="#e0e0e0" stroke="#999999" points="110.38,-20 60.62,-20 60.62,0 110.38,0 110.38,-20"/>
<text xml:space="preserve" text-anchor="middle" x="85.5" y="-6.5" font-family="Helvetica,sans-Serif" font-size="10.00">optional</text>
</a>
</g>
</g>
<!-- Node3&#45;&gt;Node5 -->
<g id="edge4_Node000003_Node000005" class="edge">
<title>Node3&#45;&gt;Node5</title>
<g id="a_edge4_Node000003_Node000005"><a xlink:title=" ">
<path fill="none" stroke="#63b8ff" d="M115.23,-55.59C110.48,-48.47 103.8,-38.45 97.98,-29.72"/>
<polygon fill="#63b8ff" stroke="#63b8ff" points="101,-27.94 92.54,-21.56 95.17,-31.82 101,-27.94"/>
</a>
</g>
</g>
<!-- Node6 -->
<g id="Node000006" class="node">
<title>Node6</title>
<g id="a_Node000006"><a xlink:title=" ">
<polygon fill="#e0e0e0" stroke="#999999" points="186.5,-20 128.5,-20 128.5,0 186.5,0 186.5,-20"/>
<text xml:space="preserve" text-anchor="middle" x="157.5" y="-6.5" font-family="Helvetica,sans-Serif" font-size="10.00">functional</text>
</a>
</g>
</g>
<!-- Node3&#45;&gt;Node6 -->
<g id="edge5_Node000003_Node000006" class="edge">
<title>Node3&#45;&gt;Node6</title>
<g id="a_edge5_Node000003_Node000006"><a xlink:title=" ">
<path fill="none" stroke="#63b8ff" d="M127.77,-55.59C132.52,-48.47 139.2,-38.45 145.02,-29.72"/>
<polygon fill="#63b8ff" stroke="#63b8ff" points="147.83,-31.82 150.46,-21.56 142,-27.94 147.83,-31.82"/>
</a>
</g>
</g>
<!-- Node7 -->
<g id="Node000007" class="node">
<title>Node7</title>
<g id="a_Node000007"><a xlink:title=" ">
<polygon fill="#e0e0e0" stroke="#999999" points="262.88,-20 204.12,-20 204.12,0 262.88,0 262.88,-20"/>
<text xml:space="preserve" text-anchor="middle" x="233.5" y="-6.5" font-family="Helvetica,sans-Serif" font-size="10.00">stdexcept</text>
</a>
</g>
</g>
<!-- Node3&#45;&gt;Node7 -->
<g id="edge6_Node000003_Node000007" class="edge">
<title>Node3&#45;&gt;Node7</title>
<g id="a_edge6_Node000003_Node000007"><a xlink:title=" ">
<path fill="none" stroke="#63b8ff" d="M141.01,-55.59C158.25,-47.28 183.66,-35.03 203.49,-25.47"/>
<polygon fill="#63b8ff" stroke="#63b8ff" points="204.99,-28.63 212.48,-21.14 201.95,-22.33 204.99,-28.63"/>
</a>
</g>
</g>
</g>
</svg>
