<?xml version="1.0" encoding="UTF-8" standalone="no"?>
<!DOCTYPE svg PUBLIC "-//W3C//DTD SVG 1.1//EN"
 "http://www.w3.org/Graphics/SVG/1.1/DTD/svg11.dtd">
<!-- Generated by graphviz version 14.0.1 (20251006.0113)
 -->
<!-- Title: C:/Users/ahmet/OneDrive/Masaüstü/DataStructure/cen207&#45;2025&#45;2026&#45;5&#45;Mustafa&#45;Yildirimm&#45;cpp/include/ds/sparse_matrix.h Pages: 1 -->
<svg width="271pt" height="188pt"
 viewBox="0.00 0.00 271.00 188.00" xmlns="http://www.w3.org/2000/svg" xmlns:xlink="http://www.w3.org/1999/xlink">

<svg id="main" version="1.1" xmlns="http://www.w3.org/2000/svg" xmlns:xlink="http://www.w3.org/1999/xlink" xml:space="preserve">

<style type="text/css"><![CDATA[
.node, .edge {opacity: 0.7;}
.node.selected, .edge.selected {opacity: 1;}
.edge:hover path { stroke: red; }
.edge:hover polygon { stroke: red; fill: red; }
]]></style>
<script type="application/ecmascript" xlink:href="svg.min.js"/>
<svg id="graph" class="graph">
<g id="graph0" class="graph" transform="scale(1 1) rotate(0) translate(4 184)">
<title>C:/Users/ahmet/OneDrive/Masaüstü/DataStructure/cen207&#45;2025&#45;2026&#45;5&#45;Mustafa&#45;Yildirimm&#45;cpp/include/ds/sparse_matrix.h</title>
<!-- Node1 -->
<g id="Node000001" class="node">
<title>Node1</title>
<g id="a_Node000001"><a xlink:title=" ">
<polygon fill="#999999" stroke="#666666" points="157.75,-180 0,-180 0,-112 157.75,-112 157.75,-180"/>
<text xml:space="preserve" text-anchor="start" x="8" y="-166.5" font-family="Helvetica,sans-Serif" font-size="10.00">C:/Users/ahmet/OneDrive</text>
<text xml:space="preserve" text-anchor="start" x="8" y="-154.5" font-family="Helvetica,sans-Serif" font-size="10.00">/Masaüstü/DataStructure</text>
<text xml:space="preserve" text-anchor="start" x="8" y="-142.5" font-family="Helvetica,sans-Serif" font-size="10.00">/cen207&#45;2025&#45;2026&#45;5&#45;Mustafa</text>
<text xml:space="preserve" text-anchor="start" x="8" y="-130.5" font-family="Helvetica,sans-Serif" font-size="10.00">&#45;Yildirimm&#45;cpp/include/ds/sparse</text>
<text xml:space="preserve" text-anchor="middle" x="78.88" y="-118.5" font-family="Helvetica,sans-Serif" font-size="10.00">_matrix.h</text>
</a>
</g>
</g>
<!-- Node2 -->
<g id="Node000002" class="node">
<title>Node2</title>
<g id="a_Node000002"><a xlink:title=" ">
<polygon fill="#e0e0e0" stroke="#999999" points="61,-76 12.75,-76 12.75,-56 61,-56 61,-76"/>
<text xml:space="preserve" text-anchor="middle" x="36.88" y="-62.5" font-family="Helvetica,sans-Serif" font-size="10.00">cstddef</text>
</a>
</g>
</g>
<!-- Node1&#45;&gt;Node2 -->
<g id="edge1_Node000001_Node000002" class="edge">
<title>Node1&#45;&gt;Node2</title>
<g id="a_edge1_Node000001_Node000002"><a xlink:title=" ">
<path fill="none" stroke="#63b8ff" d="M61.06,-111.92C56.38,-103.22 51.47,-94.11 47.32,-86.39"/>
<polygon fill="#63b8ff" stroke="#63b8ff" points="50.41,-84.76 42.59,-77.61 44.25,-88.07 50.41,-84.76"/>
</a>
</g>
</g>
<!-- Node3 -->
<g id="Node000003" class="node">
<title>Node3</title>
<g id="a_Node000003"><a xlink:href="hash__table_8h.html" target="_top" xlink:title=" ">
<polygon fill="white" stroke="#666666" points="164.38,-76 79.38,-76 79.38,-56 164.38,-56 164.38,-76"/>
<text xml:space="preserve" text-anchor="middle" x="121.88" y="-62.5" font-family="Helvetica,sans-Serif" font-size="10.00">ds/hash_table.h</text>
</a>
</g>
</g>
<!-- Node1&#45;&gt;Node3 -->
<g id="edge2_Node000001_Node000003" class="edge">
<title>Node1&#45;&gt;Node3</title>
<g id="a_edge2_Node000001_Node000003"><a xlink:title=" ">
<path fill="none" stroke="#63b8ff" d="M97.11,-111.92C101.96,-103.12 107.05,-93.9 111.33,-86.12"/>
<polygon fill="#63b8ff" stroke="#63b8ff" points="114.27,-88.05 116.03,-77.6 108.14,-84.67 114.27,-88.05"/>
</a>
</g>
</g>
<!-- Node4 -->
<g id="Node000004" class="node">
<title>Node4</title>
<g id="a_Node000004"><a xlink:title=" ">
<polygon fill="#e0e0e0" stroke="#999999" points="43.38,-20 0.38,-20 0.38,0 43.38,0 43.38,-20"/>
<text xml:space="preserve" text-anchor="middle" x="21.88" y="-6.5" font-family="Helvetica,sans-Serif" font-size="10.00">vector</text>
</a>
</g>
</g>
<!-- Node3&#45;&gt;Node4 -->
<g id="edge3_Node000003_Node000004" class="edge">
<title>Node3&#45;&gt;Node4</title>
<g id="a_edge3_Node000003_Node000004"><a xlink:title=" ">
<path fill="none" stroke="#63b8ff" d="M104.46,-55.59C89.21,-47.36 66.8,-35.26 49.17,-25.74"/>
<polygon fill="#63b8ff" stroke="#63b8ff" points="51.22,-22.87 40.76,-21.2 47.9,-29.03 51.22,-22.87"/>
</a>
</g>
</g>
<!-- Node5 -->
<g id="Node000005" class="node">
<title>Node5</title>
<g id="a_Node000005"><a xlink:title=" ">
<polygon fill="#e0e0e0" stroke="#999999" points="110.75,-20 61,-20 61,0 110.75,0 110.75,-20"/>
<text xml:space="preserve" text-anchor="middle" x="85.88" y="-6.5" font-family="Helvetica,sans-Serif" font-size="10.00">optional</text>
</a>
</g>
</g>
<!-- Node3&#45;&gt;Node5 -->
<g id="edge4_Node000003_Node000005" class="edge">
<title>Node3&#45;&gt;Node5</title>
<g id="a_edge4_Node000003_Node000005"><a xlink:title=" ">
<path fill="none" stroke="#63b8ff" d="M115.6,-55.59C110.86,-48.47 104.18,-38.45 98.35,-29.72"/>
<polygon fill="#63b8ff" stroke="#63b8ff" points="101.37,-27.94 92.91,-21.56 95.55,-31.82 101.37,-27.94"/>
</a>
</g>
</g>
<!-- Node6 -->
<g id="Node000006" class="node">
<title>Node6</title>
<g id="a_Node000006"><a xlink:title=" ">
<polygon fill="#e0e0e0" stroke="#999999" points="186.88,-20 128.88,-20 128.88,0 186.88,0 186.88,-20"/>
<text xml:space="preserve" text-anchor="middle" x="157.88" y="-6.5" font-family="Helvetica,sans-Serif" font-size="10.00">functional</text>
</a>
</g>
</g>
<!-- Node3&#45;&gt;Node6 -->
<g id="edge5_Node000003_Node000006" class="edge">
<title>Node3&#45;&gt;Node6</title>
<g id="a_edge5_Node000003_Node000006"><a xlink:title=" ">
<path fill="none" stroke="#63b8ff" d="M128.15,-55.59C132.89,-48.47 139.57,-38.45 145.4,-29.72"/>
<polygon fill="#63b8ff" stroke="#63b8ff" points="148.2,-31.82 150.84,-21.56 142.38,-27.94 148.2,-31.82"/>
</a>
</g>
</g>
<!-- Node7 -->
<g id="Node000007" class="node">
<title>Node7</title>
<g id="a_Node000007"><a xlink:title=" ">
<polygon fill="#e0e0e0" stroke="#999999" points="263.25,-20 204.5,-20 204.5,0 263.25,0 263.25,-20"/>
<text xml:space="preserve" text-anchor="middle" x="233.88" y="-6.5" font-family="Helvetica,sans-Serif" font-size="10.00">stdexcept</text>
</a>
</g>
</g>
<!-- Node3&#45;&gt;Node7 -->
<g id="edge6_Node000003_Node000007" class="edge">
<title>Node3&#45;&gt;Node7</title>
<g id="a_edge6_Node000003_Node000007"><a xlink:title=" ">
<path fill="none" stroke="#63b8ff" d="M141.38,-55.59C158.62,-47.28 184.03,-35.03 203.86,-25.47"/>
<polygon fill="#63b8ff" stroke="#63b8ff" points="205.36,-28.63 212.85,-21.14 202.32,-22.33 205.36,-28.63"/>
</a>
</g>
</g>
</g>
</svg>
</svg>

<style type='text/css'>
<![CDATA[
[data-mouse-over-selected='false'] { opacity: 0.7; }
[data-mouse-over-selected='true']  { opacity: 1.0; }
]]>
</style>
<script type="application/ecmascript"><![CDATA[
document.addEventListener('DOMContentLoaded', (event) => {
  highlightEdges();
  highlightAdjacentNodes();
});
]]></script>
</svg>
