<?xml version="1.0" encoding="UTF-8" standalone="no"?>
<!DOCTYPE svg PUBLIC "-//W3C//DTD SVG 1.1//EN"
 "http://www.w3.org/Graphics/SVG/1.1/DTD/svg11.dtd">
<!-- Generated by graphviz version 14.0.1 (20251006.0113)
 -->
<!-- Title: translator::Stmt Pages: 1 -->
<!--zoomable 196 -->

<svg id="main" version="1.1" xmlns="http://www.w3.org/2000/svg" xmlns:xlink="http://www.w3.org/1999/xlink" xml:space="preserve" onload="init(evt)">

<style type="text/css"><![CDATA[
.node, .edge {opacity: 0.7;}
.node.selected, .edge.selected {opacity: 1;}
.edge:hover path { stroke: red; }
.edge:hover polygon { stroke: red; fill: red; }
]]></style>

<defs>
  <circle id="rim" cx="0" cy="0" r="7"/>
  <circle id="rim2" cx="0" cy="0" r="3.5"/>
  <g id="zoomPlus">
    <use xlink:href="#rim" fill="#404040"><set attributeName="fill" to="#808080" begin="zoomplus.mouseover" end="zoomplus.mouseout"/></use>
    <path d="M-4,0h8M0,-4v8" fill="none" stroke="white" stroke-width="1.5" pointer-events="none"/>
  </g>
  <g id="zoomMin">
    <use xlink:href="#rim" fill="#404040"><set attributeName="fill" to="#808080" begin="zoomminus.mouseover" end="zoomminus.mouseout"/></use>
    <path d="M-4,0h8" fill="none" stroke="white" stroke-width="1.5" pointer-events="none"/>
  </g>
  <g id="arrowUp" transform="translate(30 24)">
    <use xlink:href="#rim"/>
    <path pointer-events="none" fill="none" stroke="white" stroke-width="1.5" d="M0,-3.0v7 M-2.5,-0.5L0,-3.0L2.5,-0.5"/>
  </g>
  <g id="arrowRight" transform="rotate(90) translate(36 -43)">
    <use xlink:href="#rim"/>
    <path pointer-events="none" fill="none" stroke="white" stroke-width="1.5" d="M0,-3.0v7 M-2.5,-0.5L0,-3.0L2.5,-0.5"/>
  </g>
  <g id="arrowDown" transform="rotate(180) translate(-30 -48)">
    <use xlink:href="#rim"/>
    <path pointer-events="none" fill="none" stroke="white" stroke-width="1.5" d="M0,-3.0v7 M-2.5,-0.5L0,-3.0L2.5,-0.5"/>
  </g>
  <g id="arrowLeft" transform="rotate(270) translate(-36 17)">
    <use xlink:href="#rim"/>
    <path pointer-events="none" fill="none" stroke="white" stroke-width="1.5" d="M0,-3.0v7 M-2.5,-0.5L0,-3.0L2.5,-0.5"/>
  </g>
  <g id="resetDef">
    <use xlink:href="#rim2" fill="#404040"><set attributeName="fill" to="#808080" begin="reset.mouseover" end="reset.mouseout"/></use>
  </g>
</defs>
<script type="application/ecmascript">
var viewWidth = 805;
var viewHeight = 196;
var sectionId = 'dynsection-0';
</script>
<script type="application/ecmascript" xlink:href="svg.min.js"/>
<svg id="graph" class="graph">
<g id="viewport">
<title>translator::Stmt</title>
<!-- Node1 -->
<g id="Node000001" class="node">
<title>Node1</title>
<g id="a_Node000001"><a xlink:title=" ">
<polygon fill="#999999" stroke="none" points="443.75,-188 368.25,-188 368.25,-120 443.75,-120 443.75,-188"/>
<text xml:space="preserve" text-anchor="start" x="372.25" y="-174.5" font-family="Helvetica,sans-Serif" font-size="10.00">translator::Stmt</text>
<text xml:space="preserve" text-anchor="start" x="404.5" y="-158.5" font-family="Helvetica,sans-Serif" font-size="10.00"> </text>
<text xml:space="preserve" text-anchor="start" x="378.38" y="-142.5" font-family="Helvetica,sans-Serif" font-size="10.00">+</text>
<text xml:space="preserve" text-anchor="start" x="394.5" y="-142.5" font-family="Helvetica,sans-Serif" font-size="10.00">~Stmt()</text>
<text xml:space="preserve" text-anchor="start" x="378.38" y="-126.5" font-family="Helvetica,sans-Serif" font-size="10.00">+</text>
<text xml:space="preserve" text-anchor="start" x="394.5" y="-126.5" font-family="Helvetica,sans-Serif" font-size="10.00">kind()</text>
<polygon fill="#666666" stroke="#666666" points="368.25,-170 368.25,-170 443.75,-170 443.75,-170 368.25,-170"/>
<polygon fill="#666666" stroke="#666666" points="368.25,-154 368.25,-154 443.75,-154 443.75,-154 368.25,-154"/>
<polygon fill="none" stroke="#666666" points="368.25,-120 368.25,-188 443.75,-188 443.75,-120 368.25,-120"/>
</a>
</g>
</g>
<!-- Node2 -->
<g id="Node000002" class="node">
<title>Node2</title>
<g id="a_Node000002"><a xlink:href="structtranslator_1_1_gosub_stmt.html" target="_top" xlink:title=" ">
<polygon fill="white" stroke="none" points="104,-76 0,-76 0,-8 104,-8 104,-76"/>
<text xml:space="preserve" text-anchor="start" x="4" y="-62.5" font-family="Helvetica,sans-Serif" font-size="10.00">translator::GosubStmt</text>
<text xml:space="preserve" text-anchor="start" x="11.62" y="-46.5" font-family="Helvetica,sans-Serif" font-size="10.00">+</text>
<text xml:space="preserve" text-anchor="start" x="29.25" y="-46.5" font-family="Helvetica,sans-Serif" font-size="10.00">target</text>
<text xml:space="preserve" text-anchor="start" x="11.62" y="-30.5" font-family="Helvetica,sans-Serif" font-size="10.00">+</text>
<text xml:space="preserve" text-anchor="start" x="29.25" y="-30.5" font-family="Helvetica,sans-Serif" font-size="10.00">GosubStmt()</text>
<text xml:space="preserve" text-anchor="start" x="11.62" y="-14.5" font-family="Helvetica,sans-Serif" font-size="10.00">+</text>
<text xml:space="preserve" text-anchor="start" x="29.25" y="-14.5" font-family="Helvetica,sans-Serif" font-size="10.00">kind()</text>
<polygon fill="#666666" stroke="#666666" points="0,-58 0,-58 104,-58 104,-58 0,-58"/>
<polygon fill="#666666" stroke="#666666" points="0,-42 0,-42 27.25,-42 27.25,-42 0,-42"/>
<polygon fill="#666666" stroke="#666666" points="27.25,-42 27.25,-42 104,-42 104,-42 27.25,-42"/>
<polygon fill="none" stroke="#666666" points="0,-8 0,-76 104,-76 104,-8 0,-8"/>
</a>
</g>
</g>
<!-- Node1&#45;&gt;Node2 -->
<g id="edge1_Node000001_Node000002" class="edge">
<title>Node1&#45;&gt;Node2</title>
<g id="a_edge1_Node000001_Node000002"><a xlink:title=" ">
<path fill="none" stroke="#63b8ff" d="M357.24,-147C297.67,-138.44 194.72,-119.67 113,-84 107.74,-81.7 102.44,-78.95 97.28,-75.96"/>
<polygon fill="none" stroke="#63b8ff" points="356.67,-150.45 367.06,-148.36 357.64,-143.52 356.67,-150.45"/>
</a>
</g>
</g>
<!-- Node3 -->
<g id="Node000003" class="node">
<title>Node3</title>
<g id="a_Node000003"><a xlink:href="structtranslator_1_1_goto_stmt.html" target="_top" xlink:title=" ">
<polygon fill="white" stroke="none" points="218.25,-76 121.75,-76 121.75,-8 218.25,-8 218.25,-76"/>
<text xml:space="preserve" text-anchor="start" x="125.75" y="-62.5" font-family="Helvetica,sans-Serif" font-size="10.00">translator::GotoStmt</text>
<text xml:space="preserve" text-anchor="start" x="133.38" y="-46.5" font-family="Helvetica,sans-Serif" font-size="10.00">+</text>
<text xml:space="preserve" text-anchor="start" x="151" y="-46.5" font-family="Helvetica,sans-Serif" font-size="10.00">target</text>
<text xml:space="preserve" text-anchor="start" x="133.38" y="-30.5" font-family="Helvetica,sans-Serif" font-size="10.00">+</text>
<text xml:space="preserve" text-anchor="start" x="151" y="-30.5" font-family="Helvetica,sans-Serif" font-size="10.00">GotoStmt()</text>
<text xml:space="preserve" text-anchor="start" x="133.38" y="-14.5" font-family="Helvetica,sans-Serif" font-size="10.00">+</text>
<text xml:space="preserve" text-anchor="start" x="151" y="-14.5" font-family="Helvetica,sans-Serif" font-size="10.00">kind()</text>
<polygon fill="#666666" stroke="#666666" points="121.75,-58 121.75,-58 218.25,-58 218.25,-58 121.75,-58"/>
<polygon fill="#666666" stroke="#666666" points="121.75,-42 121.75,-42 149,-42 149,-42 121.75,-42"/>
<polygon fill="#666666" stroke="#666666" points="149,-42 149,-42 218.25,-42 218.25,-42 149,-42"/>
<polygon fill="none" stroke="#666666" points="121.75,-8 121.75,-76 218.25,-76 218.25,-8 121.75,-8"/>
</a>
</g>
</g>
<!-- Node1&#45;&gt;Node3 -->
<g id="edge2_Node000001_Node000003" class="edge">
<title>Node1&#45;&gt;Node3</title>
<g id="a_edge2_Node000001_Node000003"><a xlink:title=" ">
<path fill="none" stroke="#63b8ff" d="M357.47,-137.8C320.86,-125.49 269.95,-106.51 228,-84 223.44,-81.55 218.81,-78.8 214.26,-75.92"/>
<polygon fill="none" stroke="#63b8ff" points="356.32,-141.11 366.91,-140.93 358.52,-134.46 356.32,-141.11"/>
</a>
</g>
</g>
<!-- Node4 -->
<g id="Node000004" class="node">
<title>Node4</title>
<g id="a_Node000004"><a xlink:href="structtranslator_1_1_if_goto_stmt.html" target="_top" xlink:title=" ">
<polygon fill="white" stroke="none" points="339.25,-84 236.75,-84 236.75,0 339.25,0 339.25,-84"/>
<text xml:space="preserve" text-anchor="start" x="240.75" y="-70.5" font-family="Helvetica,sans-Serif" font-size="10.00">translator::IfGotoStmt</text>
<text xml:space="preserve" text-anchor="start" x="248.38" y="-54.5" font-family="Helvetica,sans-Serif" font-size="10.00">+</text>
<text xml:space="preserve" text-anchor="start" x="266" y="-54.5" font-family="Helvetica,sans-Serif" font-size="10.00">cond</text>
<text xml:space="preserve" text-anchor="start" x="248.38" y="-38.5" font-family="Helvetica,sans-Serif" font-size="10.00">+</text>
<text xml:space="preserve" text-anchor="start" x="266" y="-38.5" font-family="Helvetica,sans-Serif" font-size="10.00">target</text>
<text xml:space="preserve" text-anchor="start" x="248.38" y="-22.5" font-family="Helvetica,sans-Serif" font-size="10.00">+</text>
<text xml:space="preserve" text-anchor="start" x="266" y="-22.5" font-family="Helvetica,sans-Serif" font-size="10.00">IfGotoStmt()</text>
<text xml:space="preserve" text-anchor="start" x="248.38" y="-6.5" font-family="Helvetica,sans-Serif" font-size="10.00">+</text>
<text xml:space="preserve" text-anchor="start" x="266" y="-6.5" font-family="Helvetica,sans-Serif" font-size="10.00">kind()</text>
<polygon fill="#666666" stroke="#666666" points="236.75,-66 236.75,-66 339.25,-66 339.25,-66 236.75,-66"/>
<polygon fill="#666666" stroke="#666666" points="236.75,-34 236.75,-34 264,-34 264,-34 236.75,-34"/>
<polygon fill="#666666" stroke="#666666" points="264,-34 264,-34 339.25,-34 339.25,-34 264,-34"/>
<polygon fill="none" stroke="#666666" points="236.75,0 236.75,-84 339.25,-84 339.25,0 236.75,0"/>
</a>
</g>
</g>
<!-- Node1&#45;&gt;Node4 -->
<g id="edge3_Node000001_Node000004" class="edge">
<title>Node1&#45;&gt;Node4</title>
<g id="a_edge3_Node000001_Node000004"><a xlink:title=" ">
<path fill="none" stroke="#63b8ff" d="M362.68,-112.62C352.66,-103.28 342,-93.34 331.95,-83.97"/>
<polygon fill="none" stroke="#63b8ff" points="360.11,-115 369.81,-119.26 364.88,-109.88 360.11,-115"/>
</a>
</g>
</g>
<!-- Node5 -->
<g id="Node000005" class="node">
<title>Node5</title>
<g id="a_Node000005"><a xlink:href="structtranslator_1_1_input_stmt.html" target="_top" xlink:title=" ">
<polygon fill="white" stroke="none" points="454.62,-76 357.38,-76 357.38,-8 454.62,-8 454.62,-76"/>
<text xml:space="preserve" text-anchor="start" x="361.38" y="-62.5" font-family="Helvetica,sans-Serif" font-size="10.00">translator::InputStmt</text>
<text xml:space="preserve" text-anchor="start" x="369" y="-46.5" font-family="Helvetica,sans-Serif" font-size="10.00">+</text>
<text xml:space="preserve" text-anchor="start" x="386.62" y="-46.5" font-family="Helvetica,sans-Serif" font-size="10.00">name</text>
<text xml:space="preserve" text-anchor="start" x="369" y="-30.5" font-family="Helvetica,sans-Serif" font-size="10.00">+</text>
<text xml:space="preserve" text-anchor="start" x="386.62" y="-30.5" font-family="Helvetica,sans-Serif" font-size="10.00">InputStmt()</text>
<text xml:space="preserve" text-anchor="start" x="369" y="-14.5" font-family="Helvetica,sans-Serif" font-size="10.00">+</text>
<text xml:space="preserve" text-anchor="start" x="386.62" y="-14.5" font-family="Helvetica,sans-Serif" font-size="10.00">kind()</text>
<polygon fill="#666666" stroke="#666666" points="357.38,-58 357.38,-58 454.62,-58 454.62,-58 357.38,-58"/>
<polygon fill="#666666" stroke="#666666" points="357.38,-42 357.38,-42 384.62,-42 384.62,-42 357.38,-42"/>
<polygon fill="#666666" stroke="#666666" points="384.62,-42 384.62,-42 454.62,-42 454.62,-42 384.62,-42"/>
<polygon fill="none" stroke="#666666" points="357.38,-8 357.38,-76 454.62,-76 454.62,-8 357.38,-8"/>
</a>
</g>
</g>
<!-- Node1&#45;&gt;Node5 -->
<g id="edge4_Node000001_Node000005" class="edge">
<title>Node1&#45;&gt;Node5</title>
<g id="a_edge4_Node000001_Node000005"><a xlink:title=" ">
<path fill="none" stroke="#63b8ff" d="M406,-109.03C406,-97.93 406,-86.21 406,-75.77"/>
<polygon fill="none" stroke="#63b8ff" points="402.5,-108.78 406,-118.78 409.5,-108.78 402.5,-108.78"/>
</a>
</g>
</g>
<!-- Node6 -->
<g id="Node000006" class="node">
<title>Node6</title>
<g id="a_Node000006"><a xlink:href="structtranslator_1_1_let_stmt.html" target="_top" xlink:title=" ">
<polygon fill="white" stroke="none" points="561.5,-84 472.5,-84 472.5,0 561.5,0 561.5,-84"/>
<text xml:space="preserve" text-anchor="start" x="476.5" y="-70.5" font-family="Helvetica,sans-Serif" font-size="10.00">translator::LetStmt</text>
<text xml:space="preserve" text-anchor="start" x="484.12" y="-54.5" font-family="Helvetica,sans-Serif" font-size="10.00">+</text>
<text xml:space="preserve" text-anchor="start" x="501.75" y="-54.5" font-family="Helvetica,sans-Serif" font-size="10.00">name</text>
<text xml:space="preserve" text-anchor="start" x="484.12" y="-38.5" font-family="Helvetica,sans-Serif" font-size="10.00">+</text>
<text xml:space="preserve" text-anchor="start" x="501.75" y="-38.5" font-family="Helvetica,sans-Serif" font-size="10.00">expr</text>
<text xml:space="preserve" text-anchor="start" x="484.12" y="-22.5" font-family="Helvetica,sans-Serif" font-size="10.00">+</text>
<text xml:space="preserve" text-anchor="start" x="501.75" y="-22.5" font-family="Helvetica,sans-Serif" font-size="10.00">LetStmt()</text>
<text xml:space="preserve" text-anchor="start" x="484.12" y="-6.5" font-family="Helvetica,sans-Serif" font-size="10.00">+</text>
<text xml:space="preserve" text-anchor="start" x="501.75" y="-6.5" font-family="Helvetica,sans-Serif" font-size="10.00">kind()</text>
<polygon fill="#666666" stroke="#666666" points="472.5,-66 472.5,-66 561.5,-66 561.5,-66 472.5,-66"/>
<polygon fill="#666666" stroke="#666666" points="472.5,-34 472.5,-34 499.75,-34 499.75,-34 472.5,-34"/>
<polygon fill="#666666" stroke="#666666" points="499.75,-34 499.75,-34 561.5,-34 561.5,-34 499.75,-34"/>
<polygon fill="none" stroke="#666666" points="472.5,0 472.5,-84 561.5,-84 561.5,0 472.5,0"/>
</a>
</g>
</g>
<!-- Node1&#45;&gt;Node6 -->
<g id="edge5_Node000001_Node000006" class="edge">
<title>Node1&#45;&gt;Node6</title>
<g id="a_edge5_Node000001_Node000006"><a xlink:title=" ">
<path fill="none" stroke="#63b8ff" d="M447.03,-112.34C456.37,-103.08 466.3,-93.24 475.66,-83.97"/>
<polygon fill="none" stroke="#63b8ff" points="444.72,-109.7 440.08,-119.23 449.64,-114.68 444.72,-109.7"/>
</a>
</g>
</g>
<!-- Node7 -->
<g id="Node000007" class="node">
<title>Node7</title>
<g id="a_Node000007"><a xlink:href="structtranslator_1_1_print_stmt.html" target="_top" xlink:title=" ">
<polygon fill="white" stroke="none" points="674.88,-76 579.12,-76 579.12,-8 674.88,-8 674.88,-76"/>
<text xml:space="preserve" text-anchor="start" x="583.12" y="-62.5" font-family="Helvetica,sans-Serif" font-size="10.00">translator::PrintStmt</text>
<text xml:space="preserve" text-anchor="start" x="590.75" y="-46.5" font-family="Helvetica,sans-Serif" font-size="10.00">+</text>
<text xml:space="preserve" text-anchor="start" x="608.38" y="-46.5" font-family="Helvetica,sans-Serif" font-size="10.00">items</text>
<text xml:space="preserve" text-anchor="start" x="590.75" y="-30.5" font-family="Helvetica,sans-Serif" font-size="10.00">+</text>
<text xml:space="preserve" text-anchor="start" x="608.38" y="-30.5" font-family="Helvetica,sans-Serif" font-size="10.00">PrintStmt()</text>
<text xml:space="preserve" text-anchor="start" x="590.75" y="-14.5" font-family="Helvetica,sans-Serif" font-size="10.00">+</text>
<text xml:space="preserve" text-anchor="start" x="608.38" y="-14.5" font-family="Helvetica,sans-Serif" font-size="10.00">kind()</text>
<polygon fill="#666666" stroke="#666666" points="579.12,-58 579.12,-58 674.88,-58 674.88,-58 579.12,-58"/>
<polygon fill="#666666" stroke="#666666" points="579.12,-42 579.12,-42 606.38,-42 606.38,-42 579.12,-42"/>
<polygon fill="#666666" stroke="#666666" points="606.38,-42 606.38,-42 674.88,-42 674.88,-42 606.38,-42"/>
<polygon fill="none" stroke="#666666" points="579.12,-8 579.12,-76 674.88,-76 674.88,-8 579.12,-8"/>
</a>
</g>
</g>
<!-- Node1&#45;&gt;Node7 -->
<g id="edge6_Node000001_Node000007" class="edge">
<title>Node1&#45;&gt;Node7</title>
<g id="a_edge6_Node000001_Node000007"><a xlink:title=" ">
<path fill="none" stroke="#63b8ff" d="M454.04,-136.34C487.73,-123.85 533.31,-105.28 571,-84 575.41,-81.51 579.87,-78.74 584.27,-75.83"/>
<polygon fill="none" stroke="#63b8ff" points="453.16,-132.94 444.97,-139.66 455.56,-139.52 453.16,-132.94"/>
</a>
</g>
</g>
<!-- Node8 -->
<g id="Node000008" class="node">
<title>Node8</title>
<g id="a_Node000008"><a xlink:href="structtranslator_1_1_return_stmt.html" target="_top" xlink:title=" ">
<polygon fill="white" stroke="none" points="797.38,-68 692.62,-68 692.62,-16 797.38,-16 797.38,-68"/>
<text xml:space="preserve" text-anchor="start" x="696.62" y="-54.5" font-family="Helvetica,sans-Serif" font-size="10.00">translator::ReturnStmt</text>
<text xml:space="preserve" text-anchor="start" x="743.5" y="-38.5" font-family="Helvetica,sans-Serif" font-size="10.00"> </text>
<text xml:space="preserve" text-anchor="start" x="712.31" y="-22.5" font-family="Helvetica,sans-Serif" font-size="10.00">+</text>
<text xml:space="preserve" text-anchor="start" x="738" y="-22.5" font-family="Helvetica,sans-Serif" font-size="10.00">kind()</text>
<polygon fill="#666666" stroke="#666666" points="692.62,-50 692.62,-50 797.38,-50 797.38,-50 692.62,-50"/>
<polygon fill="#666666" stroke="#666666" points="692.62,-34 692.62,-34 797.38,-34 797.38,-34 692.62,-34"/>
<polygon fill="none" stroke="#666666" points="692.62,-16 692.62,-68 797.38,-68 797.38,-16 692.62,-16"/>
</a>
</g>
</g>
<!-- Node1&#45;&gt;Node8 -->
<g id="edge7_Node000001_Node000008" class="edge">
<title>Node1&#45;&gt;Node8</title>
<g id="a_edge7_Node000001_Node000008"><a xlink:title=" ">
<path fill="none" stroke="#63b8ff" d="M454.49,-146.22C511.32,-137.1 607.45,-117.96 684,-84 693.68,-79.71 703.5,-73.89 712.34,-67.98"/>
<polygon fill="none" stroke="#63b8ff" points="454.16,-142.73 444.82,-147.73 455.24,-149.64 454.16,-142.73"/>
</a>
</g>
</g>
</g>
</svg>

<g id="navigator" transform="translate(0 0)" fill="#404254">
  <rect fill="#f2f5e9" fill-opacity="0.5" stroke="#606060" stroke-width=".5" x="0" y="0" width="60" height="60"/>
  <use id="zoomplus" xlink:href="#zoomPlus" x="17" y="9" onmousedown="handleZoom(evt,'in')"/>
  <use id="zoomminus" xlink:href="#zoomMin" x="42" y="9" onmousedown="handleZoom(evt,'out')"/>
  <use id="reset" xlink:href="#resetDef" x="30" y="36" onmousedown="handleReset()"/>
   <use id="arrowup" xlink:href="#arrowUp" x="0" y="0" onmousedown="handlePan(0,-1)"/>
  <use id="arrowright" xlink:href="#arrowRight" x="0" y="0" onmousedown="handlePan(1,0)"/>
  <use id="arrowdown" xlink:href="#arrowDown" x="0" y="0" onmousedown="handlePan(0,1)"/>
  <use id="arrowleft" xlink:href="#arrowLeft" x="0" y="0" onmousedown="handlePan(-1,0)"/>
</g>
<svg viewBox="0 0 15 15" width="100%" height="30px" preserveAspectRatio="xMaxYMin meet">
 <g id="arrow_out" transform="scale(0.3 0.3)">
  <a xlink:href="structtranslator_1_1_stmt__inherit__graph_org.svg" target="_base">
   <rect id="button" ry="5" rx="5" y="6" x="6" height="38" width="38"
        fill="#f2f5e9" fill-opacity="0.5" stroke="#606060" stroke-width="1.0"/>
   <path id="arrow"
     d="M 11.500037,31.436501 C 11.940474,20.09759 22.043105,11.32322 32.158766,21.979434 L 37.068811,17.246167 C 37.068811,17.246167 37.088388,32 37.088388,32 L 22.160133,31.978069 C 22.160133,31.978069 26.997745,27.140456 26.997745,27.140456 C 18.528582,18.264221 13.291696,25.230495 11.500037,31.436501 z"
     style="fill:#404040;"/>
  </a>
 </g>
</svg>

<style type='text/css'>
<![CDATA[
[data-mouse-over-selected='false'] { opacity: 0.7; }
[data-mouse-over-selected='true']  { opacity: 1.0; }
]]>
</style>
<script type="application/ecmascript"><![CDATA[
document.addEventListener('DOMContentLoaded', (event) => {
  highlightEdges();
  highlightAdjacentNodes();
});
]]></script>
</svg>
