<?xml version="1.0" encoding="UTF-8" standalone="no"?>
<!DOCTYPE svg PUBLIC "-//W3C//DTD SVG 1.1//EN"
 "http://www.w3.org/Graphics/SVG/1.1/DTD/svg11.dtd">
<!-- Generated by graphviz version 14.0.1 (20251006.0113)
 -->
<!-- Title: translator::GosubStmt Pages: 1 -->
<svg width="112pt" height="164pt"
 viewBox="0.00 0.00 112.00 164.00" xmlns="http://www.w3.org/2000/svg" xmlns:xlink="http://www.w3.org/1999/xlink">
<g id="graph0" class="graph" transform="scale(1 1) rotate(0) translate(4 160)">
<title>translator::GosubStmt</title>
<!-- Node1 -->
<g id="Node000001" class="node">
<title>Node1</title>
<g id="a_Node000001"><a xlink:title="GOSUB deyimi.">
<polygon fill="#999999" stroke="none" points="104,-68 0,-68 0,0 104,0 104,-68"/>
<text xml:space="preserve" text-anchor="start" x="4" y="-54.5" font-family="Helvetica,sans-Serif" font-size="10.00">translator::GosubStmt</text>
<text xml:space="preserve" text-anchor="start" x="11.62" y="-38.5" font-family="Helvetica,sans-Serif" font-size="10.00">+</text>
<text xml:space="preserve" text-anchor="start" x="29.25" y="-38.5" font-family="Helvetica,sans-Serif" font-size="10.00">target</text>
<text xml:space="preserve" text-anchor="start" x="11.62" y="-22.5" font-family="Helvetica,sans-Serif" font-size="10.00">+</text>
<text xml:space="preserve" text-anchor="start" x="29.25" y="-22.5" font-family="Helvetica,sans-Serif" font-size="10.00">GosubStmt()</text>
<text xml:space="preserve" text-anchor="start" x="11.62" y="-6.5" font-family="Helvetica,sans-Serif" font-size="10.00">+</text>
<text xml:space="preserve" text-anchor="start" x="29.25" y="-6.5" font-family="Helvetica,sans-Serif" font-size="10.00">kind()</text>
<polygon fill="#666666" stroke="#666666" points="0,-50 0,-50 104,-50 104,-50 0,-50"/>
<polygon fill="#666666" stroke="#666666" points="0,-34 0,-34 27.25,-34 27.25,-34 0,-34"/>
<polygon fill="#666666" stroke="#666666" points="27.25,-34 27.25,-34 104,-34 104,-34 27.25,-34"/>
<polygon fill="none" stroke="#666666" points="0,0 0,-68 104,-68 104,0 0,0"/>
</a>
</g>
</g>
<!-- Node2 -->
<g id="Node000002" class="node">
<title>Node2</title>
<g id="a_Node000002"><a xlink:href="structtranslator_1_1_stmt.html" target="_top" xlink:title="Tüm deyimler için taban tür.">
<polygon fill="white" stroke="none" points="89.75,-156 14.25,-156 14.25,-104 89.75,-104 89.75,-156"/>
<text xml:space="preserve" text-anchor="start" x="18.25" y="-142.5" font-family="Helvetica,sans-Serif" font-size="10.00">translator::Stmt</text>
<text xml:space="preserve" text-anchor="start" x="50.5" y="-126.5" font-family="Helvetica,sans-Serif" font-size="10.00"> </text>
<text xml:space="preserve" text-anchor="start" x="26.62" y="-110.5" font-family="Helvetica,sans-Serif" font-size="10.00">+</text>
<text xml:space="preserve" text-anchor="start" x="45" y="-110.5" font-family="Helvetica,sans-Serif" font-size="10.00">kind()</text>
<polygon fill="#666666" stroke="#666666" points="14.25,-138 14.25,-138 89.75,-138 89.75,-138 14.25,-138"/>
<polygon fill="#666666" stroke="#666666" points="14.25,-122 14.25,-122 89.75,-122 89.75,-122 14.25,-122"/>
<polygon fill="none" stroke="#666666" points="14.25,-104 14.25,-156 89.75,-156 89.75,-104 14.25,-104"/>
</a>
</g>
</g>
<!-- Node2&#45;&gt;Node1 -->
<g id="edge1_Node000001_Node000002" class="edge">
<title>Node2&#45;&gt;Node1</title>
<g id="a_edge1_Node000001_Node000002"><a xlink:title=" ">
<path fill="none" stroke="#63b8ff" d="M52,-92.97C52,-84.65 52,-75.84 52,-67.67"/>
<polygon fill="none" stroke="#63b8ff" points="48.5,-92.79 52,-102.79 55.5,-92.79 48.5,-92.79"/>
</a>
</g>
</g>
</g>
</svg>
