<?xml version="1.0" encoding="UTF-8" standalone="no"?>
<!DOCTYPE svg PUBLIC "-//W3C//DTD SVG 1.1//EN"
 "http://www.w3.org/Graphics/SVG/1.1/DTD/svg11.dtd">
<!-- Generated by graphviz version 14.0.1 (20251006.0113)
 -->
<!-- Title: translator::PrintStmt Pages: 1 -->
<svg width="104pt" height="164pt"
 viewBox="0.00 0.00 104.00 164.00" xmlns="http://www.w3.org/2000/svg" xmlns:xlink="http://www.w3.org/1999/xlink">
<g id="graph0" class="graph" transform="scale(1 1) rotate(0) translate(4 160)">
<title>translator::PrintStmt</title>
<!-- Node1 -->
<g id="Node000001" class="node">
<title>Node1</title>
<g id="a_Node000001"><a xlink:title="PRINT deyimi.">
<polygon fill="#999999" stroke="none" points="95.75,-68 0,-68 0,0 95.75,0 95.75,-68"/>
<text xml:space="preserve" text-anchor="start" x="4" y="-54.5" font-family="Helvetica,sans-Serif" font-size="10.00">translator::PrintStmt</text>
<text xml:space="preserve" text-anchor="start" x="11.62" y="-38.5" font-family="Helvetica,sans-Serif" font-size="10.00">+</text>
<text xml:space="preserve" text-anchor="start" x="29.25" y="-38.5" font-family="Helvetica,sans-Serif" font-size="10.00">items</text>
<text xml:space="preserve" text-anchor="start" x="11.62" y="-22.5" font-family="Helvetica,sans-Serif" font-size="10.00">+</text>
<text xml:space="preserve" text-anchor="start" x="29.25" y="-22.5" font-family="Helvetica,sans-Serif" font-size="10.00">PrintStmt()</text>
<text xml:space="preserve" text-anchor="start" x="11.62" y="-6.5" font-family="Helvetica,sans-Serif" font-size="10.00">+</text>
<text xml:space="preserve" text-anchor="start" x="29.25" y="-6.5" font-family="Helvetica,sans-Serif" font-size="10.00">kind()</text>
<polygon fill="#666666" stroke="#666666" points="0,-50 0,-50 95.75,-50 95.75,-50 0,-50"/>
<polygon fill="#666666" stroke="#666666" points="0,-34 0,-34 27.25,-34 27.25,-34 0,-34"/>
<polygon fill="#666666" stroke="#666666" points="27.25,-34 27.25,-34 95.75,-34 95.75,-34 27.25,-34"/>
<polygon fill="none" stroke="#666666" points="0,0 0,-68 95.75,-68 95.75,0 0,0"/>
</a>
</g>
</g>
<!-- Node2 -->
<g id="Node000002" class="node">
<title>Node2</title>
<g id="a_Node000002"><a xlink:href="structtranslator_1_1_stmt.html" target="_top" xlink:title="Tüm deyimler için taban tür.">
<polygon fill="white" stroke="none" points="85.62,-156 10.12,-156 10.12,-104 85.62,-104 85.62,-156"/>
<text xml:space="preserve" text-anchor="start" x="14.12" y="-142.5" font-family="Helvetica,sans-Serif" font-size="10.00">translator::Stmt</text>
<text xml:space="preserve" text-anchor="start" x="46.38" y="-126.5" font-family="Helvetica,sans-Serif" font-size="10.00"> </text>
<text xml:space="preserve" text-anchor="start" x="22.5" y="-110.5" font-family="Helvetica,sans-Serif" font-size="10.00">+</text>
<text xml:space="preserve" text-anchor="start" x="40.88" y="-110.5" font-family="Helvetica,sans-Serif" font-size="10.00">kind()</text>
<polygon fill="#666666" stroke="#666666" points="10.12,-138 10.12,-138 85.62,-138 85.62,-138 10.12,-138"/>
<polygon fill="#666666" stroke="#666666" points="10.12,-122 10.12,-122 85.62,-122 85.62,-122 10.12,-122"/>
<polygon fill="none" stroke="#666666" points="10.12,-104 10.12,-156 85.62,-156 85.62,-104 10.12,-104"/>
</a>
</g>
</g>
<!-- Node2&#45;&gt;Node1 -->
<g id="edge1_Node000001_Node000002" class="edge">
<title>Node2&#45;&gt;Node1</title>
<g id="a_edge1_Node000001_Node000002"><a xlink:title=" ">
<path fill="none" stroke="#63b8ff" d="M47.88,-92.97C47.88,-84.65 47.88,-75.84 47.88,-67.67"/>
<polygon fill="none" stroke="#63b8ff" points="44.38,-92.79 47.88,-102.79 51.38,-92.79 44.38,-92.79"/>
</a>
</g>
</g>
</g>
</svg>
