<?xml version="1.0" encoding="UTF-8" standalone="no"?>
<!DOCTYPE svg PUBLIC "-//W3C//DTD SVG 1.1//EN"
 "http://www.w3.org/Graphics/SVG/1.1/DTD/svg11.dtd">
<!-- Generated by graphviz version 14.0.1 (20251006.0113)
 -->
<!-- Title: ds::DoublyLinkedList&lt; T &gt;::Node Pages: 1 -->
<svg width="156pt" height="206pt"
 viewBox="0.00 0.00 156.00 206.00" xmlns="http://www.w3.org/2000/svg" xmlns:xlink="http://www.w3.org/1999/xlink">
<g id="graph0" class="graph" transform="scale(1 1) rotate(0) translate(4 202)">
<title>ds::DoublyLinkedList&lt; T &gt;::Node</title>
<!-- Node1 -->
<g id="Node000001" class="node">
<title>Node1</title>
<g id="a_Node000001"><a xlink:title=" ">
<polygon fill="#999999" stroke="none" points="99.5,-64 0,-64 0,0 99.5,0 99.5,-64"/>
<text xml:space="preserve" text-anchor="start" x="4" y="-50.5" font-family="Helvetica,sans-Serif" font-size="10.00">ds::DoublyLinkedList</text>
<text xml:space="preserve" text-anchor="start" x="23.5" y="-38.5" font-family="Helvetica,sans-Serif" font-size="10.00">&lt; T &gt;::Node</text>
<text xml:space="preserve" text-anchor="start" x="17.06" y="-22.5" font-family="Helvetica,sans-Serif" font-size="10.00">+</text>
<text xml:space="preserve" text-anchor="start" x="40.12" y="-22.5" font-family="Helvetica,sans-Serif" font-size="10.00">value</text>
<text xml:space="preserve" text-anchor="start" x="17.06" y="-6.5" font-family="Helvetica,sans-Serif" font-size="10.00">+</text>
<text xml:space="preserve" text-anchor="start" x="40.12" y="-6.5" font-family="Helvetica,sans-Serif" font-size="10.00">Node()</text>
<polygon fill="#666666" stroke="#666666" points="0,-34 0,-34 99.5,-34 99.5,-34 0,-34"/>
<polygon fill="#666666" stroke="#666666" points="0,-18 0,-18 38.12,-18 38.12,-18 0,-18"/>
<polygon fill="#666666" stroke="#666666" points="38.12,-18 38.12,-18 99.5,-18 99.5,-18 38.12,-18"/>
<polygon fill="none" stroke="#666666" points="0,0 0,-64 99.5,-64 99.5,0 0,0"/>
</a>
</g>
</g>
<!-- Node2 -->
<g id="Node000002" class="node">
<title>Node2</title>
<g id="a_Node000002"><a xlink:href="$structds_1_1_doubly_linked_list_1_1_node.html" xlink:title=" ">
<polygon fill="white" stroke="none" points="99.5,-198 0,-198 0,-134 99.5,-134 99.5,-198"/>
<text xml:space="preserve" text-anchor="start" x="4" y="-184.5" font-family="Helvetica,sans-Serif" font-size="10.00">ds::DoublyLinkedList</text>
<text xml:space="preserve" text-anchor="start" x="23.5" y="-172.5" font-family="Helvetica,sans-Serif" font-size="10.00">&lt; T &gt;::Node</text>
<text xml:space="preserve" text-anchor="start" x="17.06" y="-156.5" font-family="Helvetica,sans-Serif" font-size="10.00">+</text>
<text xml:space="preserve" text-anchor="start" x="40.12" y="-156.5" font-family="Helvetica,sans-Serif" font-size="10.00">value</text>
<text xml:space="preserve" text-anchor="start" x="17.06" y="-140.5" font-family="Helvetica,sans-Serif" font-size="10.00">+</text>
<text xml:space="preserve" text-anchor="start" x="40.12" y="-140.5" font-family="Helvetica,sans-Serif" font-size="10.00">Node()</text>
<polygon fill="#666666" stroke="#666666" points="0,-168 0,-168 99.5,-168 99.5,-168 0,-168"/>
<polygon fill="#666666" stroke="#666666" points="0,-152 0,-152 38.12,-152 38.12,-152 0,-152"/>
<polygon fill="#666666" stroke="#666666" points="38.12,-152 38.12,-152 99.5,-152 99.5,-152 38.12,-152"/>
<polygon fill="none" stroke="#666666" points="0,-134 0,-198 99.5,-198 99.5,-134 0,-134"/>
</a>
</g>
</g>
<!-- Node2&#45;&gt;Node1 -->
<g id="edge1_Node000001_Node000002" class="edge">
<title>Node2&#45;&gt;Node1</title>
<g id="a_edge1_Node000001_Node000002"><a xlink:title=" ">
<path fill="none" stroke="#63b8ff" d="M49.75,-134.05C49.75,-116.92 49.75,-95.36 49.75,-76.55"/>
<polygon fill="none" stroke="#63b8ff" points="49.75,-76.66 45.75,-70.66 49.75,-64.66 53.75,-70.66 49.75,-76.66"/>
</a>
</g>
<text xml:space="preserve" text-anchor="start" x="52.75" y="-103.5" font-family="Helvetica,sans-Serif" font-size="10.00" fill="grey">+next</text>
<text xml:space="preserve" text-anchor="start" x="52.75" y="-87.5" font-family="Helvetica,sans-Serif" font-size="10.00" fill="grey">+prev</text>
</g>
<!-- Node2&#45;&gt;Node2 -->
<g id="edge2_Node000002_Node000002" class="edge">
<title>Node2&#45;&gt;Node2</title>
<g id="a_edge2_Node000002_Node000002"><a xlink:title=" ">
<path fill="none" stroke="#63b8ff" d="M99.38,-178.16C109.9,-176.92 117.5,-172.87 117.5,-166 117.5,-162.35 115.36,-159.5 111.77,-157.44"/>
<polygon fill="none" stroke="#63b8ff" points="111.77,-157.44 104.89,-159.61 100.25,-154.09 107.12,-151.92 111.77,-157.44"/>
</a>
</g>
<text xml:space="preserve" text-anchor="start" x="120.5" y="-170.5" font-family="Helvetica,sans-Serif" font-size="10.00" fill="grey">+next</text>
<text xml:space="preserve" text-anchor="start" x="120.5" y="-154.5" font-family="Helvetica,sans-Serif" font-size="10.00" fill="grey">+prev</text>
</g>
</g>
</svg>
