<?xml version="1.0" encoding="UTF-8" standalone="no"?>
<!DOCTYPE svg PUBLIC "-//W3C//DTD SVG 1.1//EN"
 "http://www.w3.org/Graphics/SVG/1.1/DTD/svg11.dtd">
<!-- Generated by graphviz version 14.0.1 (20251006.0113)
 -->
<!-- Title: Coruh::LanguageTranslator::PhraseEntry Pages: 1 -->
<svg width="134pt" height="88pt"
 viewBox="0.00 0.00 134.00 88.00" xmlns="http://www.w3.org/2000/svg" xmlns:xlink="http://www.w3.org/1999/xlink">
<g id="graph0" class="graph" transform="scale(1 1) rotate(0) translate(4 84)">
<title>Coruh::LanguageTranslator::PhraseEntry</title>
<!-- Node1 -->
<g id="Node000001" class="node">
<title>Node1</title>
<g id="a_Node000001"><a xlink:title="Genel ifade girdisi.">
<polygon fill="#999999" stroke="none" points="125.75,-80 0,-80 0,0 125.75,0 125.75,-80"/>
<text xml:space="preserve" text-anchor="start" x="4" y="-66.5" font-family="Helvetica,sans-Serif" font-size="10.00">Coruh::LanguageTranslator</text>
<text xml:space="preserve" text-anchor="start" x="32.88" y="-54.5" font-family="Helvetica,sans-Serif" font-size="10.00">::PhraseEntry</text>
<text xml:space="preserve" text-anchor="start" x="21.56" y="-38.5" font-family="Helvetica,sans-Serif" font-size="10.00">+</text>
<text xml:space="preserve" text-anchor="start" x="49.12" y="-38.5" font-family="Helvetica,sans-Serif" font-size="10.00">phrase</text>
<text xml:space="preserve" text-anchor="start" x="21.56" y="-22.5" font-family="Helvetica,sans-Serif" font-size="10.00">+</text>
<text xml:space="preserve" text-anchor="start" x="49.12" y="-22.5" font-family="Helvetica,sans-Serif" font-size="10.00">category</text>
<text xml:space="preserve" text-anchor="start" x="61.38" y="-6.5" font-family="Helvetica,sans-Serif" font-size="10.00"> </text>
<polygon fill="#666666" stroke="#666666" points="0,-50 0,-50 125.75,-50 125.75,-50 0,-50"/>
<polygon fill="#666666" stroke="#666666" points="0,-18 0,-18 47.12,-18 47.12,-18 0,-18"/>
<polygon fill="#666666" stroke="#666666" points="47.12,-18 47.12,-18 125.75,-18 125.75,-18 47.12,-18"/>
<polygon fill="none" stroke="#666666" points="0,0 0,-80 125.75,-80 125.75,0 0,0"/>
</a>
</g>
</g>
</g>
</svg>
