<?xml version="1.0" encoding="UTF-8" standalone="no"?>
<!DOCTYPE svg PUBLIC "-//W3C//DTD SVG 1.1//EN"
 "http://www.w3.org/Graphics/SVG/1.1/DTD/svg11.dtd">
<!-- Generated by graphviz version 14.0.1 (20251006.0113)
 -->
<!-- Title: translator::CFG Pages: 1 -->
<svg width="88pt" height="278pt"
 viewBox="0.00 0.00 88.00 278.00" xmlns="http://www.w3.org/2000/svg" xmlns:xlink="http://www.w3.org/1999/xlink">
<g id="graph0" class="graph" transform="scale(1 1) rotate(0) translate(4 274)">
<title>translator::CFG</title>
<!-- Node1 -->
<g id="Node000001" class="node">
<title>Node1</title>
<g id="a_Node000001"><a xlink:title=" ">
<polygon fill="#999999" stroke="none" points="80.25,-52 0,-52 0,0 80.25,0 80.25,-52"/>
<text xml:space="preserve" text-anchor="start" x="6.38" y="-38.5" font-family="Helvetica,sans-Serif" font-size="10.00">translator::CFG</text>
<text xml:space="preserve" text-anchor="start" x="4" y="-22.5" font-family="Helvetica,sans-Serif" font-size="10.00">+</text>
<text xml:space="preserve" text-anchor="start" x="14" y="-22.5" font-family="Helvetica,sans-Serif" font-size="10.00">label_to_index</text>
<text xml:space="preserve" text-anchor="start" x="38.62" y="-6.5" font-family="Helvetica,sans-Serif" font-size="10.00"> </text>
<polygon fill="#666666" stroke="#666666" points="0,-34 0,-34 80.25,-34 80.25,-34 0,-34"/>
<polygon fill="#666666" stroke="#666666" points="0,-18 0,-18 12,-18 12,-18 0,-18"/>
<polygon fill="#666666" stroke="#666666" points="12,-18 12,-18 80.25,-18 80.25,-18 12,-18"/>
<polygon fill="none" stroke="#666666" points="0,0 0,-52 80.25,-52 80.25,0 0,0"/>
</a>
</g>
</g>
<!-- Node2 -->
<g id="Node000002" class="node">
<title>Node2</title>
<g id="a_Node000002"><a xlink:href="classds_1_1_graph.html" target="_top" xlink:title=" ">
<polygon fill="white" stroke="none" points="73.12,-270 7.12,-270 7.12,-106 73.12,-106 73.12,-270"/>
<text xml:space="preserve" text-anchor="start" x="18.75" y="-256.5" font-family="Helvetica,sans-Serif" font-size="10.00">ds::Graph</text>
<text xml:space="preserve" text-anchor="start" x="12.62" y="-240.5" font-family="Helvetica,sans-Serif" font-size="10.00">&#45;</text>
<text xml:space="preserve" text-anchor="start" x="21.12" y="-240.5" font-family="Helvetica,sans-Serif" font-size="10.00">adj_</text>
<text xml:space="preserve" text-anchor="start" x="11.12" y="-224.5" font-family="Helvetica,sans-Serif" font-size="10.00">+</text>
<text xml:space="preserve" text-anchor="start" x="21.12" y="-224.5" font-family="Helvetica,sans-Serif" font-size="10.00">Graph()</text>
<text xml:space="preserve" text-anchor="start" x="11.12" y="-208.5" font-family="Helvetica,sans-Serif" font-size="10.00">+</text>
<text xml:space="preserve" text-anchor="start" x="21.12" y="-208.5" font-family="Helvetica,sans-Serif" font-size="10.00">resize()</text>
<text xml:space="preserve" text-anchor="start" x="11.12" y="-192.5" font-family="Helvetica,sans-Serif" font-size="10.00">+</text>
<text xml:space="preserve" text-anchor="start" x="21.12" y="-192.5" font-family="Helvetica,sans-Serif" font-size="10.00">add_edge()</text>
<text xml:space="preserve" text-anchor="start" x="11.12" y="-176.5" font-family="Helvetica,sans-Serif" font-size="10.00">+</text>
<text xml:space="preserve" text-anchor="start" x="21.12" y="-176.5" font-family="Helvetica,sans-Serif" font-size="10.00">neighbors()</text>
<text xml:space="preserve" text-anchor="start" x="11.12" y="-160.5" font-family="Helvetica,sans-Serif" font-size="10.00">+</text>
<text xml:space="preserve" text-anchor="start" x="21.12" y="-160.5" font-family="Helvetica,sans-Serif" font-size="10.00">size()</text>
<text xml:space="preserve" text-anchor="start" x="11.12" y="-144.5" font-family="Helvetica,sans-Serif" font-size="10.00">+</text>
<text xml:space="preserve" text-anchor="start" x="21.12" y="-144.5" font-family="Helvetica,sans-Serif" font-size="10.00">bfs_dist()</text>
<text xml:space="preserve" text-anchor="start" x="11.12" y="-128.5" font-family="Helvetica,sans-Serif" font-size="10.00">+</text>
<text xml:space="preserve" text-anchor="start" x="21.12" y="-128.5" font-family="Helvetica,sans-Serif" font-size="10.00">dfs_util()</text>
<text xml:space="preserve" text-anchor="start" x="11.12" y="-112.5" font-family="Helvetica,sans-Serif" font-size="10.00">+</text>
<text xml:space="preserve" text-anchor="start" x="21.12" y="-112.5" font-family="Helvetica,sans-Serif" font-size="10.00">dfs_order()</text>
<polygon fill="#666666" stroke="#666666" points="7.12,-252 7.12,-252 73.12,-252 73.12,-252 7.12,-252"/>
<polygon fill="#666666" stroke="#666666" points="7.12,-236 7.12,-236 19.12,-236 19.12,-236 7.12,-236"/>
<polygon fill="#666666" stroke="#666666" points="19.12,-236 19.12,-236 73.12,-236 73.12,-236 19.12,-236"/>
<polygon fill="none" stroke="#666666" points="7.12,-106 7.12,-270 73.12,-270 73.12,-106 7.12,-106"/>
</a>
</g>
</g>
<!-- Node2&#45;&gt;Node1 -->
<g id="edge1_Node000001_Node000002" class="edge">
<title>Node2&#45;&gt;Node1</title>
<g id="a_edge1_Node000001_Node000002"><a xlink:title=" ">
<path fill="none" stroke="#63b8ff" d="M40.12,-106.06C40.12,-91.6 40.12,-77.19 40.12,-64.7"/>
<polygon fill="none" stroke="#63b8ff" points="40.13,-64.9 36.13,-58.9 40.13,-52.9 44.13,-58.9 40.13,-64.9"/>
</a>
</g>
<text xml:space="preserve" text-anchor="start" x="43.12" y="-75.5" font-family="Helvetica,sans-Serif" font-size="10.00" fill="grey">+g</text>
</g>
</g>
</svg>
