<?xml version="1.0" encoding="UTF-8" standalone="no"?>
<!DOCTYPE svg PUBLIC "-//W3C//DTD SVG 1.1//EN"
 "http://www.w3.org/Graphics/SVG/1.1/DTD/svg11.dtd">
<!-- Generated by graphviz version 14.0.1 (20251006.0113)
 -->
<!-- Title: ds::TreeNode&lt; T &gt; Pages: 1 -->
<svg width="147pt" height="182pt"
 viewBox="0.00 0.00 147.00 182.00" xmlns="http://www.w3.org/2000/svg" xmlns:xlink="http://www.w3.org/1999/xlink">

<svg id="main" version="1.1" xmlns="http://www.w3.org/2000/svg" xmlns:xlink="http://www.w3.org/1999/xlink" xml:space="preserve">

<style type="text/css"><![CDATA[
.node, .edge {opacity: 0.7;}
.node.selected, .edge.selected {opacity: 1;}
.edge:hover path { stroke: red; }
.edge:hover polygon { stroke: red; fill: red; }
]]></style>
<script type="application/ecmascript" xlink:href="svg.min.js"/>
<svg id="graph" class="graph">
<g id="graph0" class="graph" transform="scale(1 1) rotate(0) translate(4 178)">
<title>ds::TreeNode&lt; T &gt;</title>
<!-- Node1 -->
<g id="Node000001" class="node">
<title>Node1</title>
<g id="a_Node000001"><a xlink:title="Binary tree düğüm yapısı">
<polygon fill="#999999" stroke="none" points="90.5,-52 0,-52 0,0 90.5,0 90.5,-52"/>
<text xml:space="preserve" text-anchor="start" x="4" y="-38.5" font-family="Helvetica,sans-Serif" font-size="10.00">ds::TreeNode&lt; T &gt;</text>
<text xml:space="preserve" text-anchor="start" x="9.94" y="-22.5" font-family="Helvetica,sans-Serif" font-size="10.00">+</text>
<text xml:space="preserve" text-anchor="start" x="25.88" y="-22.5" font-family="Helvetica,sans-Serif" font-size="10.00">value</text>
<text xml:space="preserve" text-anchor="start" x="9.94" y="-6.5" font-family="Helvetica,sans-Serif" font-size="10.00">+</text>
<text xml:space="preserve" text-anchor="start" x="25.88" y="-6.5" font-family="Helvetica,sans-Serif" font-size="10.00">TreeNode()</text>
<polygon fill="#666666" stroke="#666666" points="0,-34 0,-34 90.5,-34 90.5,-34 0,-34"/>
<polygon fill="#666666" stroke="#666666" points="0,-18 0,-18 23.88,-18 23.88,-18 0,-18"/>
<polygon fill="#666666" stroke="#666666" points="23.88,-18 23.88,-18 90.5,-18 90.5,-18 23.88,-18"/>
<polygon fill="none" stroke="#666666" points="0,0 0,-52 90.5,-52 90.5,0 0,0"/>
</a>
</g>
</g>
<!-- Node2 -->
<g id="Node000002" class="node">
<title>Node2</title>
<g id="a_Node000002"><a xlink:href="structds_1_1_tree_node.html" target="_top" xlink:title="Binary tree düğüm yapısı">
<polygon fill="white" stroke="none" points="90.5,-174 0,-174 0,-122 90.5,-122 90.5,-174"/>
<text xml:space="preserve" text-anchor="start" x="4" y="-160.5" font-family="Helvetica,sans-Serif" font-size="10.00">ds::TreeNode&lt; T &gt;</text>
<text xml:space="preserve" text-anchor="start" x="9.94" y="-144.5" font-family="Helvetica,sans-Serif" font-size="10.00">+</text>
<text xml:space="preserve" text-anchor="start" x="25.88" y="-144.5" font-family="Helvetica,sans-Serif" font-size="10.00">value</text>
<text xml:space="preserve" text-anchor="start" x="9.94" y="-128.5" font-family="Helvetica,sans-Serif" font-size="10.00">+</text>
<text xml:space="preserve" text-anchor="start" x="25.88" y="-128.5" font-family="Helvetica,sans-Serif" font-size="10.00">TreeNode()</text>
<polygon fill="#666666" stroke="#666666" points="0,-156 0,-156 90.5,-156 90.5,-156 0,-156"/>
<polygon fill="#666666" stroke="#666666" points="0,-140 0,-140 23.88,-140 23.88,-140 0,-140"/>
<polygon fill="#666666" stroke="#666666" points="23.88,-140 23.88,-140 90.5,-140 90.5,-140 23.88,-140"/>
<polygon fill="none" stroke="#666666" points="0,-122 0,-174 90.5,-174 90.5,-122 0,-122"/>
</a>
</g>
</g>
<!-- Node2&#45;&gt;Node1 -->
<g id="edge1_Node000001_Node000002" class="edge">
<title>Node2&#45;&gt;Node1</title>
<g id="a_edge1_Node000001_Node000002"><a xlink:title=" ">
<path fill="none" stroke="#63b8ff" d="M45.25,-122.14C45.25,-105.56 45.25,-83.47 45.25,-64.74"/>
<polygon fill="none" stroke="#63b8ff" points="45.25,-64.73 41.25,-58.73 45.25,-52.73 49.25,-58.73 45.25,-64.73"/>
</a>
</g>
<text xml:space="preserve" text-anchor="start" x="48.25" y="-91.5" font-family="Helvetica,sans-Serif" font-size="10.00" fill="grey">+left</text>
<text xml:space="preserve" text-anchor="start" x="48.25" y="-75.5" font-family="Helvetica,sans-Serif" font-size="10.00" fill="grey">+right</text>
</g>
<!-- Node2&#45;&gt;Node2 -->
<g id="edge2_Node000002_Node000002" class="edge">
<title>Node2&#45;&gt;Node2</title>
<g id="a_edge2_Node000002_Node000002"><a xlink:title=" ">
<path fill="none" stroke="#63b8ff" d="M90.45,-159.19C100.86,-158.22 108.5,-154.49 108.5,-148 108.5,-144.55 106.34,-141.88 102.76,-139.99"/>
<polygon fill="none" stroke="#63b8ff" points="102.94,-140.04 96.13,-142.41 91.32,-137.04 98.13,-134.67 102.94,-140.04"/>
</a>
</g>
<text xml:space="preserve" text-anchor="start" x="111.5" y="-152.5" font-family="Helvetica,sans-Serif" font-size="10.00" fill="grey">+left</text>
<text xml:space="preserve" text-anchor="start" x="111.5" y="-136.5" font-family="Helvetica,sans-Serif" font-size="10.00" fill="grey">+right</text>
</g>
</g>
</svg>
</svg>

<style type='text/css'>
<![CDATA[
[data-mouse-over-selected='false'] { opacity: 0.7; }
[data-mouse-over-selected='true']  { opacity: 1.0; }
]]>
</style>
<script type="application/ecmascript"><![CDATA[
document.addEventListener('DOMContentLoaded', (event) => {
  highlightEdges();
  highlightAdjacentNodes();
});
]]></script>
</svg>
