<?xml version="1.0" encoding="UTF-8" standalone="no"?>
<!DOCTYPE svg PUBLIC "-//W3C//DTD SVG 1.1//EN"
 "http://www.w3.org/Graphics/SVG/1.1/DTD/svg11.dtd">
<!-- Generated by graphviz version 14.0.1 (20251006.0113)
 -->
<!-- Title: ds::HashTable&lt; K, V &gt;::Entry Pages: 1 -->
<svg width="108pt" height="104pt"
 viewBox="0.00 0.00 108.00 104.00" xmlns="http://www.w3.org/2000/svg" xmlns:xlink="http://www.w3.org/1999/xlink">
<g id="graph0" class="graph" transform="scale(1 1) rotate(0) translate(4 100)">
<title>ds::HashTable&lt; K, V &gt;::Entry</title>
<!-- Node1 -->
<g id="Node000001" class="node">
<title>Node1</title>
<g id="a_Node000001"><a xlink:title=" ">
<polygon fill="#999999" stroke="none" points="99.5,-96 0,-96 0,0 99.5,0 99.5,-96"/>
<text xml:space="preserve" text-anchor="start" x="4" y="-82.5" font-family="Helvetica,sans-Serif" font-size="10.00">ds::HashTable&lt; K, V</text>
<text xml:space="preserve" text-anchor="start" x="30.62" y="-70.5" font-family="Helvetica,sans-Serif" font-size="10.00"> &gt;::Entry</text>
<text xml:space="preserve" text-anchor="start" x="18.56" y="-54.5" font-family="Helvetica,sans-Serif" font-size="10.00">+</text>
<text xml:space="preserve" text-anchor="start" x="43.12" y="-54.5" font-family="Helvetica,sans-Serif" font-size="10.00">key</text>
<text xml:space="preserve" text-anchor="start" x="18.56" y="-38.5" font-family="Helvetica,sans-Serif" font-size="10.00">+</text>
<text xml:space="preserve" text-anchor="start" x="43.12" y="-38.5" font-family="Helvetica,sans-Serif" font-size="10.00">value</text>
<text xml:space="preserve" text-anchor="start" x="18.56" y="-22.5" font-family="Helvetica,sans-Serif" font-size="10.00">+</text>
<text xml:space="preserve" text-anchor="start" x="43.12" y="-22.5" font-family="Helvetica,sans-Serif" font-size="10.00">state</text>
<text xml:space="preserve" text-anchor="start" x="48.25" y="-6.5" font-family="Helvetica,sans-Serif" font-size="10.00"> </text>
<polygon fill="#666666" stroke="#666666" points="0,-66 0,-66 99.5,-66 99.5,-66 0,-66"/>
<polygon fill="#666666" stroke="#666666" points="0,-18 0,-18 41.12,-18 41.12,-18 0,-18"/>
<polygon fill="#666666" stroke="#666666" points="41.12,-18 41.12,-18 99.5,-18 99.5,-18 41.12,-18"/>
<polygon fill="none" stroke="#666666" points="0,0 0,-96 99.5,-96 99.5,0 0,0"/>
</a>
</g>
</g>
</g>
</svg>
