<?xml version="1.0" encoding="UTF-8" standalone="no"?>
<!DOCTYPE svg PUBLIC "-//W3C//DTD SVG 1.1//EN"
 "http://www.w3.org/Graphics/SVG/1.1/DTD/svg11.dtd">
<!-- Generated by graphviz version 14.0.1 (20251006.0113)
 -->
<!-- Title: ds::Stack&lt; T &gt;::Node Pages: 1 -->
<svg width="159pt" height="166pt"
 viewBox="0.00 0.00 159.00 166.00" xmlns="http://www.w3.org/2000/svg" xmlns:xlink="http://www.w3.org/1999/xlink">
<g id="graph0" class="graph" transform="scale(1 1) rotate(0) translate(4 162)">
<title>ds::Stack&lt; T &gt;::Node</title>
<!-- Node1 -->
<g id="Node000001" class="node">
<title>Node1</title>
<g id="a_Node000001"><a xlink:title="Bağlı liste düğümü.">
<polygon fill="#999999" stroke="none" points="102.5,-52 0,-52 0,0 102.5,0 102.5,-52"/>
<text xml:space="preserve" text-anchor="start" x="4" y="-38.5" font-family="Helvetica,sans-Serif" font-size="10.00">ds::Stack&lt; T &gt;::Node</text>
<text xml:space="preserve" text-anchor="start" x="23.81" y="-22.5" font-family="Helvetica,sans-Serif" font-size="10.00">+</text>
<text xml:space="preserve" text-anchor="start" x="53.62" y="-22.5" font-family="Helvetica,sans-Serif" font-size="10.00">v</text>
<text xml:space="preserve" text-anchor="start" x="49.75" y="-6.5" font-family="Helvetica,sans-Serif" font-size="10.00"> </text>
<polygon fill="#666666" stroke="#666666" points="0,-34 0,-34 102.5,-34 102.5,-34 0,-34"/>
<polygon fill="#666666" stroke="#666666" points="0,-18 0,-18 51.62,-18 51.62,-18 0,-18"/>
<polygon fill="#666666" stroke="#666666" points="51.62,-18 51.62,-18 102.5,-18 102.5,-18 51.62,-18"/>
<polygon fill="none" stroke="#666666" points="0,0 0,-52 102.5,-52 102.5,0 0,0"/>
</a>
</g>
</g>
<!-- Node2 -->
<g id="Node000002" class="node">
<title>Node2</title>
<g id="a_Node000002"><a xlink:href="structds_1_1_stack_1_1_node.html" target="_top" xlink:title="Bağlı liste düğümü.">
<polygon fill="white" stroke="none" points="102.5,-158 0,-158 0,-106 102.5,-106 102.5,-158"/>
<text xml:space="preserve" text-anchor="start" x="4" y="-144.5" font-family="Helvetica,sans-Serif" font-size="10.00">ds::Stack&lt; T &gt;::Node</text>
<text xml:space="preserve" text-anchor="start" x="23.81" y="-128.5" font-family="Helvetica,sans-Serif" font-size="10.00">+</text>
<text xml:space="preserve" text-anchor="start" x="53.62" y="-128.5" font-family="Helvetica,sans-Serif" font-size="10.00">v</text>
<text xml:space="preserve" text-anchor="start" x="49.75" y="-112.5" font-family="Helvetica,sans-Serif" font-size="10.00"> </text>
<polygon fill="#666666" stroke="#666666" points="0,-140 0,-140 102.5,-140 102.5,-140 0,-140"/>
<polygon fill="#666666" stroke="#666666" points="0,-124 0,-124 51.62,-124 51.62,-124 0,-124"/>
<polygon fill="#666666" stroke="#666666" points="51.62,-124 51.62,-124 102.5,-124 102.5,-124 51.62,-124"/>
<polygon fill="none" stroke="#666666" points="0,-106 0,-158 102.5,-158 102.5,-106 0,-106"/>
</a>
</g>
</g>
<!-- Node2&#45;&gt;Node1 -->
<g id="edge1_Node000001_Node000002" class="edge">
<title>Node2&#45;&gt;Node1</title>
<g id="a_edge1_Node000001_Node000002"><a xlink:title=" ">
<path fill="none" stroke="#63b8ff" d="M51.25,-106.09C51.25,-93.61 51.25,-78.25 51.25,-64.39"/>
<polygon fill="none" stroke="#63b8ff" points="51.25,-64.61 47.25,-58.61 51.25,-52.61 55.25,-58.61 51.25,-64.61"/>
</a>
</g>
<text xml:space="preserve" text-anchor="start" x="54.25" y="-75.5" font-family="Helvetica,sans-Serif" font-size="10.00" fill="grey">+next</text>
</g>
<!-- Node2&#45;&gt;Node2 -->
<g id="edge2_Node000002_Node000002" class="edge">
<title>Node2&#45;&gt;Node2</title>
<g id="a_edge2_Node000002_Node000002"><a xlink:title=" ">
<path fill="none" stroke="#63b8ff" d="M102.29,-141.59C112.88,-140.58 120.5,-137.38 120.5,-132 120.5,-129.14 118.35,-126.9 114.75,-125.27"/>
<polygon fill="none" stroke="#63b8ff" points="114.86,-125.3 108.12,-127.85 103.16,-122.61 109.91,-120.06 114.86,-125.3"/>
</a>
</g>
<text xml:space="preserve" text-anchor="start" x="123.5" y="-128.5" font-family="Helvetica,sans-Serif" font-size="10.00" fill="grey">+next</text>
</g>
</g>
</svg>
