<?xml version="1.0" encoding="UTF-8" standalone="no"?>
<!DOCTYPE svg PUBLIC "-//W3C//DTD SVG 1.1//EN"
 "http://www.w3.org/Graphics/SVG/1.1/DTD/svg11.dtd">
<!-- Generated by graphviz version 14.0.1 (20251006.0113)
 -->
<!-- Title: translator::IfGotoStmt Pages: 1 -->
<svg width="111pt" height="196pt"
 viewBox="0.00 0.00 111.00 196.00" xmlns="http://www.w3.org/2000/svg" xmlns:xlink="http://www.w3.org/1999/xlink">
<g id="graph0" class="graph" transform="scale(1 1) rotate(0) translate(4 192)">
<title>translator::IfGotoStmt</title>
<!-- Node1 -->
<g id="Node000001" class="node">
<title>Node1</title>
<g id="a_Node000001"><a xlink:title=" ">
<polygon fill="#999999" stroke="none" points="102.5,-84 0,-84 0,0 102.5,0 102.5,-84"/>
<text xml:space="preserve" text-anchor="start" x="4" y="-70.5" font-family="Helvetica,sans-Serif" font-size="10.00">translator::IfGotoStmt</text>
<text xml:space="preserve" text-anchor="start" x="11.62" y="-54.5" font-family="Helvetica,sans-Serif" font-size="10.00">+</text>
<text xml:space="preserve" text-anchor="start" x="29.25" y="-54.5" font-family="Helvetica,sans-Serif" font-size="10.00">cond</text>
<text xml:space="preserve" text-anchor="start" x="11.62" y="-38.5" font-family="Helvetica,sans-Serif" font-size="10.00">+</text>
<text xml:space="preserve" text-anchor="start" x="29.25" y="-38.5" font-family="Helvetica,sans-Serif" font-size="10.00">target</text>
<text xml:space="preserve" text-anchor="start" x="11.62" y="-22.5" font-family="Helvetica,sans-Serif" font-size="10.00">+</text>
<text xml:space="preserve" text-anchor="start" x="29.25" y="-22.5" font-family="Helvetica,sans-Serif" font-size="10.00">IfGotoStmt()</text>
<text xml:space="preserve" text-anchor="start" x="11.62" y="-6.5" font-family="Helvetica,sans-Serif" font-size="10.00">+</text>
<text xml:space="preserve" text-anchor="start" x="29.25" y="-6.5" font-family="Helvetica,sans-Serif" font-size="10.00">kind()</text>
<polygon fill="#666666" stroke="#666666" points="0,-66 0,-66 102.5,-66 102.5,-66 0,-66"/>
<polygon fill="#666666" stroke="#666666" points="0,-34 0,-34 27.25,-34 27.25,-34 0,-34"/>
<polygon fill="#666666" stroke="#666666" points="27.25,-34 27.25,-34 102.5,-34 102.5,-34 27.25,-34"/>
<polygon fill="none" stroke="#666666" points="0,0 0,-84 102.5,-84 102.5,0 0,0"/>
</a>
</g>
</g>
<!-- Node2 -->
<g id="Node000002" class="node">
<title>Node2</title>
<g id="a_Node000002"><a xlink:href="structtranslator_1_1_stmt.html" target="_top" xlink:title=" ">
<polygon fill="white" stroke="none" points="89,-188 13.5,-188 13.5,-120 89,-120 89,-188"/>
<text xml:space="preserve" text-anchor="start" x="17.5" y="-174.5" font-family="Helvetica,sans-Serif" font-size="10.00">translator::Stmt</text>
<text xml:space="preserve" text-anchor="start" x="49.75" y="-158.5" font-family="Helvetica,sans-Serif" font-size="10.00"> </text>
<text xml:space="preserve" text-anchor="start" x="23.62" y="-142.5" font-family="Helvetica,sans-Serif" font-size="10.00">+</text>
<text xml:space="preserve" text-anchor="start" x="39.75" y="-142.5" font-family="Helvetica,sans-Serif" font-size="10.00">~Stmt()</text>
<text xml:space="preserve" text-anchor="start" x="23.62" y="-126.5" font-family="Helvetica,sans-Serif" font-size="10.00">+</text>
<text xml:space="preserve" text-anchor="start" x="39.75" y="-126.5" font-family="Helvetica,sans-Serif" font-size="10.00">kind()</text>
<polygon fill="#666666" stroke="#666666" points="13.5,-170 13.5,-170 89,-170 89,-170 13.5,-170"/>
<polygon fill="#666666" stroke="#666666" points="13.5,-154 13.5,-154 89,-154 89,-154 13.5,-154"/>
<polygon fill="none" stroke="#666666" points="13.5,-120 13.5,-188 89,-188 89,-120 13.5,-120"/>
</a>
</g>
</g>
<!-- Node2&#45;&gt;Node1 -->
<g id="edge1_Node000001_Node000002" class="edge">
<title>Node2&#45;&gt;Node1</title>
<g id="a_edge1_Node000001_Node000002"><a xlink:title=" ">
<path fill="none" stroke="#63b8ff" d="M51.25,-108.95C51.25,-100.7 51.25,-92.12 51.25,-83.97"/>
<polygon fill="none" stroke="#63b8ff" points="47.75,-108.78 51.25,-118.78 54.75,-108.78 47.75,-108.78"/>
</a>
</g>
</g>
</g>
</svg>
