<?xml version="1.0" encoding="UTF-8" standalone="no"?>
<!DOCTYPE svg PUBLIC "-//W3C//DTD SVG 1.1//EN"
 "http://www.w3.org/Graphics/SVG/1.1/DTD/svg11.dtd">
<!-- Generated by graphviz version 14.0.1 (20251006.0113)
 -->
<!-- Title: ds::DoublyLinkedList&lt; T &gt;::iterator Pages: 1 -->
<svg width="156pt" height="334pt"
 viewBox="0.00 0.00 156.00 334.00" xmlns="http://www.w3.org/2000/svg" xmlns:xlink="http://www.w3.org/1999/xlink">
<g id="graph0" class="graph" transform="scale(1 1) rotate(0) translate(4 330)">
<title>ds::DoublyLinkedList&lt; T &gt;::iterator</title>
<!-- Node1 -->
<g id="Node000001" class="node">
<title>Node1</title>
<g id="a_Node000001"><a xlink:title=" ">
<polygon fill="#999999" stroke="none" points="99.5,-208 0,-208 0,0 99.5,0 99.5,-208"/>
<text xml:space="preserve" text-anchor="start" x="4" y="-194.5" font-family="Helvetica,sans-Serif" font-size="10.00">ds::DoublyLinkedList</text>
<text xml:space="preserve" text-anchor="start" x="20.12" y="-182.5" font-family="Helvetica,sans-Serif" font-size="10.00">&lt; T &gt;::iterator</text>
<text xml:space="preserve" text-anchor="start" x="48.25" y="-166.5" font-family="Helvetica,sans-Serif" font-size="10.00"> </text>
<text xml:space="preserve" text-anchor="start" x="11.06" y="-150.5" font-family="Helvetica,sans-Serif" font-size="10.00">+</text>
<text xml:space="preserve" text-anchor="start" x="28.12" y="-150.5" font-family="Helvetica,sans-Serif" font-size="10.00">iterator()</text>
<text xml:space="preserve" text-anchor="start" x="11.06" y="-134.5" font-family="Helvetica,sans-Serif" font-size="10.00">+</text>
<text xml:space="preserve" text-anchor="start" x="28.12" y="-134.5" font-family="Helvetica,sans-Serif" font-size="10.00">iterator()</text>
<text xml:space="preserve" text-anchor="start" x="11.06" y="-118.5" font-family="Helvetica,sans-Serif" font-size="10.00">+</text>
<text xml:space="preserve" text-anchor="start" x="28.12" y="-118.5" font-family="Helvetica,sans-Serif" font-size="10.00">operator*()</text>
<text xml:space="preserve" text-anchor="start" x="11.06" y="-102.5" font-family="Helvetica,sans-Serif" font-size="10.00">+</text>
<text xml:space="preserve" text-anchor="start" x="28.12" y="-102.5" font-family="Helvetica,sans-Serif" font-size="10.00">operator&#45;&gt;()</text>
<text xml:space="preserve" text-anchor="start" x="11.06" y="-86.5" font-family="Helvetica,sans-Serif" font-size="10.00">+</text>
<text xml:space="preserve" text-anchor="start" x="28.12" y="-86.5" font-family="Helvetica,sans-Serif" font-size="10.00">operator++()</text>
<text xml:space="preserve" text-anchor="start" x="11.06" y="-70.5" font-family="Helvetica,sans-Serif" font-size="10.00">+</text>
<text xml:space="preserve" text-anchor="start" x="28.12" y="-70.5" font-family="Helvetica,sans-Serif" font-size="10.00">operator++()</text>
<text xml:space="preserve" text-anchor="start" x="11.06" y="-54.5" font-family="Helvetica,sans-Serif" font-size="10.00">+</text>
<text xml:space="preserve" text-anchor="start" x="28.12" y="-54.5" font-family="Helvetica,sans-Serif" font-size="10.00">operator&#45;&#45;()</text>
<text xml:space="preserve" text-anchor="start" x="11.06" y="-38.5" font-family="Helvetica,sans-Serif" font-size="10.00">+</text>
<text xml:space="preserve" text-anchor="start" x="28.12" y="-38.5" font-family="Helvetica,sans-Serif" font-size="10.00">operator&#45;&#45;()</text>
<text xml:space="preserve" text-anchor="start" x="11.06" y="-22.5" font-family="Helvetica,sans-Serif" font-size="10.00">+</text>
<text xml:space="preserve" text-anchor="start" x="28.12" y="-22.5" font-family="Helvetica,sans-Serif" font-size="10.00">operator==()</text>
<text xml:space="preserve" text-anchor="start" x="11.06" y="-6.5" font-family="Helvetica,sans-Serif" font-size="10.00">+</text>
<text xml:space="preserve" text-anchor="start" x="28.12" y="-6.5" font-family="Helvetica,sans-Serif" font-size="10.00">operator!=()</text>
<polygon fill="#666666" stroke="#666666" points="0,-178 0,-178 99.5,-178 99.5,-178 0,-178"/>
<polygon fill="#666666" stroke="#666666" points="0,-162 0,-162 99.5,-162 99.5,-162 0,-162"/>
<polygon fill="none" stroke="#666666" points="0,0 0,-208 99.5,-208 99.5,0 0,0"/>
</a>
</g>
</g>
<!-- Node2 -->
<g id="Node000002" class="node">
<title>Node2</title>
<g id="a_Node000002"><a xlink:href="structds_1_1_doubly_linked_list_1_1_node.html" target="_top" xlink:title=" ">
<polygon fill="white" stroke="none" points="99.5,-326 0,-326 0,-262 99.5,-262 99.5,-326"/>
<text xml:space="preserve" text-anchor="start" x="4" y="-312.5" font-family="Helvetica,sans-Serif" font-size="10.00">ds::DoublyLinkedList</text>
<text xml:space="preserve" text-anchor="start" x="23.5" y="-300.5" font-family="Helvetica,sans-Serif" font-size="10.00">&lt; T &gt;::Node</text>
<text xml:space="preserve" text-anchor="start" x="17.06" y="-284.5" font-family="Helvetica,sans-Serif" font-size="10.00">+</text>
<text xml:space="preserve" text-anchor="start" x="40.12" y="-284.5" font-family="Helvetica,sans-Serif" font-size="10.00">value</text>
<text xml:space="preserve" text-anchor="start" x="17.06" y="-268.5" font-family="Helvetica,sans-Serif" font-size="10.00">+</text>
<text xml:space="preserve" text-anchor="start" x="40.12" y="-268.5" font-family="Helvetica,sans-Serif" font-size="10.00">Node()</text>
<polygon fill="#666666" stroke="#666666" points="0,-296 0,-296 99.5,-296 99.5,-296 0,-296"/>
<polygon fill="#666666" stroke="#666666" points="0,-280 0,-280 38.12,-280 38.12,-280 0,-280"/>
<polygon fill="#666666" stroke="#666666" points="38.12,-280 38.12,-280 99.5,-280 99.5,-280 38.12,-280"/>
<polygon fill="none" stroke="#666666" points="0,-262 0,-326 99.5,-326 99.5,-262 0,-262"/>
</a>
</g>
</g>
<!-- Node2&#45;&gt;Node1 -->
<g id="edge1_Node000001_Node000002" class="edge">
<title>Node2&#45;&gt;Node1</title>
<g id="a_edge1_Node000001_Node000002"><a xlink:title=" ">
<path fill="none" stroke="#63b8ff" d="M49.75,-262.38C49.75,-250.51 49.75,-236.12 49.75,-220.92"/>
<polygon fill="none" stroke="#63b8ff" points="49.75,-220.9 45.75,-214.9 49.75,-208.9 53.75,-214.9 49.75,-220.9"/>
</a>
</g>
<text xml:space="preserve" text-anchor="start" x="52.75" y="-231.5" font-family="Helvetica,sans-Serif" font-size="10.00" fill="grey">+n</text>
</g>
<!-- Node2&#45;&gt;Node2 -->
<g id="edge2_Node000002_Node000002" class="edge">
<title>Node2&#45;&gt;Node2</title>
<g id="a_edge2_Node000002_Node000002"><a xlink:title=" ">
<path fill="none" stroke="#63b8ff" d="M99.38,-304.71C109.9,-303.62 117.5,-300.05 117.5,-294 117.5,-290.79 115.36,-288.27 111.77,-286.46"/>
<polygon fill="none" stroke="#63b8ff" points="111.88,-286.49 105.08,-288.88 100.25,-283.52 107.06,-281.13 111.88,-286.49"/>
</a>
</g>
<text xml:space="preserve" text-anchor="start" x="120.5" y="-298.5" font-family="Helvetica,sans-Serif" font-size="10.00" fill="grey">+next</text>
<text xml:space="preserve" text-anchor="start" x="120.5" y="-282.5" font-family="Helvetica,sans-Serif" font-size="10.00" fill="grey">+prev</text>
</g>
</g>
</svg>
