<?xml version="1.0" encoding="UTF-8" standalone="no"?>
<!DOCTYPE svg PUBLIC "-//W3C//DTD SVG 1.1//EN"
 "http://www.w3.org/Graphics/SVG/1.1/DTD/svg11.dtd">
<!-- Generated by graphviz version 14.0.1 (20251006.0113)
 -->
<!-- Title: ds::XORLinkedList&lt; T &gt;::Node Pages: 1 -->
<svg width="150pt" height="190pt"
 viewBox="0.00 0.00 150.00 190.00" xmlns="http://www.w3.org/2000/svg" xmlns:xlink="http://www.w3.org/1999/xlink">

<svg id="main" version="1.1" xmlns="http://www.w3.org/2000/svg" xmlns:xlink="http://www.w3.org/1999/xlink" xml:space="preserve">

<style type="text/css"><![CDATA[
.node, .edge {opacity: 0.7;}
.node.selected, .edge.selected {opacity: 1;}
.edge:hover path { stroke: red; }
.edge:hover polygon { stroke: red; fill: red; }
]]></style>
<script type="application/ecmascript" xlink:href="svg.min.js"/>
<svg id="graph" class="graph">
<g id="graph0" class="graph" transform="scale(1 1) rotate(0) translate(4 186)">
<title>ds::XORLinkedList&lt; T &gt;::Node</title>
<!-- Node1 -->
<g id="Node000001" class="node">
<title>Node1</title>
<g id="a_Node000001"><a xlink:title="İç düğüm yapısı XOR tekniği ile hem önceki hem sonraki işaretçiyi tek alanda tutar.">
<polygon fill="#999999" stroke="none" points="96.5,-64 0,-64 0,0 96.5,0 96.5,-64"/>
<text xml:space="preserve" text-anchor="start" x="4" y="-50.5" font-family="Helvetica,sans-Serif" font-size="10.00">ds::XORLinkedList&lt;</text>
<text xml:space="preserve" text-anchor="start" x="25" y="-38.5" font-family="Helvetica,sans-Serif" font-size="10.00"> T &gt;::Node</text>
<text xml:space="preserve" text-anchor="start" x="17.81" y="-22.5" font-family="Helvetica,sans-Serif" font-size="10.00">+</text>
<text xml:space="preserve" text-anchor="start" x="41.62" y="-22.5" font-family="Helvetica,sans-Serif" font-size="10.00">value</text>
<text xml:space="preserve" text-anchor="start" x="46.75" y="-6.5" font-family="Helvetica,sans-Serif" font-size="10.00"> </text>
<polygon fill="#666666" stroke="#666666" points="0,-34 0,-34 96.5,-34 96.5,-34 0,-34"/>
<polygon fill="#666666" stroke="#666666" points="0,-18 0,-18 39.62,-18 39.62,-18 0,-18"/>
<polygon fill="#666666" stroke="#666666" points="39.62,-18 39.62,-18 96.5,-18 96.5,-18 39.62,-18"/>
<polygon fill="none" stroke="#666666" points="0,0 0,-64 96.5,-64 96.5,0 0,0"/>
</a>
</g>
</g>
<!-- Node2 -->
<g id="Node000002" class="node">
<title>Node2</title>
<g id="a_Node000002"><a xlink:href="structds_1_1_x_o_r_linked_list_1_1_node.html" target="_top" xlink:title="İç düğüm yapısı XOR tekniği ile hem önceki hem sonraki işaretçiyi tek alanda tutar.">
<polygon fill="white" stroke="none" points="96.5,-182 0,-182 0,-118 96.5,-118 96.5,-182"/>
<text xml:space="preserve" text-anchor="start" x="4" y="-168.5" font-family="Helvetica,sans-Serif" font-size="10.00">ds::XORLinkedList&lt;</text>
<text xml:space="preserve" text-anchor="start" x="25" y="-156.5" font-family="Helvetica,sans-Serif" font-size="10.00"> T &gt;::Node</text>
<text xml:space="preserve" text-anchor="start" x="17.81" y="-140.5" font-family="Helvetica,sans-Serif" font-size="10.00">+</text>
<text xml:space="preserve" text-anchor="start" x="41.62" y="-140.5" font-family="Helvetica,sans-Serif" font-size="10.00">value</text>
<text xml:space="preserve" text-anchor="start" x="46.75" y="-124.5" font-family="Helvetica,sans-Serif" font-size="10.00"> </text>
<polygon fill="#666666" stroke="#666666" points="0,-152 0,-152 96.5,-152 96.5,-152 0,-152"/>
<polygon fill="#666666" stroke="#666666" points="0,-136 0,-136 39.62,-136 39.62,-136 0,-136"/>
<polygon fill="#666666" stroke="#666666" points="39.62,-136 39.62,-136 96.5,-136 96.5,-136 39.62,-136"/>
<polygon fill="none" stroke="#666666" points="0,-118 0,-182 96.5,-182 96.5,-118 0,-118"/>
</a>
</g>
</g>
<!-- Node2&#45;&gt;Node1 -->
<g id="edge1_Node000001_Node000002" class="edge">
<title>Node2&#45;&gt;Node1</title>
<g id="a_edge1_Node000001_Node000002"><a xlink:title=" ">
<path fill="none" stroke="#63b8ff" d="M48.25,-118.22C48.25,-105.5 48.25,-90.53 48.25,-76.71"/>
<polygon fill="none" stroke="#63b8ff" points="48.25,-76.83 44.25,-70.83 48.25,-64.83 52.25,-70.83 48.25,-76.83"/>
</a>
</g>
<text xml:space="preserve" text-anchor="start" x="51.25" y="-87.5" font-family="Helvetica,sans-Serif" font-size="10.00" fill="grey">+npx</text>
</g>
<!-- Node2&#45;&gt;Node2 -->
<g id="edge2_Node000002_Node000002" class="edge">
<title>Node2&#45;&gt;Node2</title>
<g id="a_edge2_Node000002_Node000002"><a xlink:title=" ">
<path fill="none" stroke="#63b8ff" d="M96.49,-160.74C106.93,-159.69 114.5,-156.11 114.5,-150 114.5,-146.85 112.49,-144.37 109.11,-142.57"/>
<polygon fill="none" stroke="#63b8ff" points="108.97,-142.53 102.15,-144.88 97.36,-139.49 104.18,-137.14 108.97,-142.53"/>
</a>
</g>
<text xml:space="preserve" text-anchor="start" x="117.5" y="-146.5" font-family="Helvetica,sans-Serif" font-size="10.00" fill="grey">+npx</text>
</g>
</g>
</svg>
</svg>

<style type='text/css'>
<![CDATA[
[data-mouse-over-selected='false'] { opacity: 0.7; }
[data-mouse-over-selected='true']  { opacity: 1.0; }
]]>
</style>
<script type="application/ecmascript"><![CDATA[
document.addEventListener('DOMContentLoaded', (event) => {
  highlightEdges();
  highlightAdjacentNodes();
});
]]></script>
</svg>
