<?xml version="1.0" encoding="UTF-8" standalone="no"?>
<!DOCTYPE svg PUBLIC "-//W3C//DTD SVG 1.1//EN"
 "http://www.w3.org/Graphics/SVG/1.1/DTD/svg11.dtd">
<!-- Generated by graphviz version 14.0.1 (20251006.0113)
 -->
<!-- Title: translator::Stmt Pages: 1 -->
<svg width="805pt" height="180pt"
 viewBox="0.00 0.00 805.00 180.00" xmlns="http://www.w3.org/2000/svg" xmlns:xlink="http://www.w3.org/1999/xlink">
<g id="graph0" class="graph" transform="scale(1 1) rotate(0) translate(4 176)">
<title>translator::Stmt</title>
<!-- Node1 -->
<g id="Node000001" class="node">
<title>Node1</title>
<g id="a_Node000001"><a xlink:title="Tüm deyimler için taban tür.">
<polygon fill="#999999" stroke="none" points="443.75,-172 368.25,-172 368.25,-120 443.75,-120 443.75,-172"/>
<text xml:space="preserve" text-anchor="start" x="372.25" y="-158.5" font-family="Helvetica,sans-Serif" font-size="10.00">translator::Stmt</text>
<text xml:space="preserve" text-anchor="start" x="404.5" y="-142.5" font-family="Helvetica,sans-Serif" font-size="10.00"> </text>
<text xml:space="preserve" text-anchor="start" x="380.62" y="-126.5" font-family="Helvetica,sans-Serif" font-size="10.00">+</text>
<text xml:space="preserve" text-anchor="start" x="399" y="-126.5" font-family="Helvetica,sans-Serif" font-size="10.00">kind()</text>
<polygon fill="#666666" stroke="#666666" points="368.25,-154 368.25,-154 443.75,-154 443.75,-154 368.25,-154"/>
<polygon fill="#666666" stroke="#666666" points="368.25,-138 368.25,-138 443.75,-138 443.75,-138 368.25,-138"/>
<polygon fill="none" stroke="#666666" points="368.25,-120 368.25,-172 443.75,-172 443.75,-120 368.25,-120"/>
</a>
</g>
</g>
<!-- Node2 -->
<g id="Node000002" class="node">
<title>Node2</title>
<g id="a_Node000002"><a xlink:href="structtranslator_1_1_gosub_stmt.html" target="_top" xlink:title="GOSUB deyimi.">
<polygon fill="white" stroke="none" points="104,-76 0,-76 0,-8 104,-8 104,-76"/>
<text xml:space="preserve" text-anchor="start" x="4" y="-62.5" font-family="Helvetica,sans-Serif" font-size="10.00">translator::GosubStmt</text>
<text xml:space="preserve" text-anchor="start" x="11.62" y="-46.5" font-family="Helvetica,sans-Serif" font-size="10.00">+</text>
<text xml:space="preserve" text-anchor="start" x="29.25" y="-46.5" font-family="Helvetica,sans-Serif" font-size="10.00">target</text>
<text xml:space="preserve" text-anchor="start" x="11.62" y="-30.5" font-family="Helvetica,sans-Serif" font-size="10.00">+</text>
<text xml:space="preserve" text-anchor="start" x="29.25" y="-30.5" font-family="Helvetica,sans-Serif" font-size="10.00">GosubStmt()</text>
<text xml:space="preserve" text-anchor="start" x="11.62" y="-14.5" font-family="Helvetica,sans-Serif" font-size="10.00">+</text>
<text xml:space="preserve" text-anchor="start" x="29.25" y="-14.5" font-family="Helvetica,sans-Serif" font-size="10.00">kind()</text>
<polygon fill="#666666" stroke="#666666" points="0,-58 0,-58 104,-58 104,-58 0,-58"/>
<polygon fill="#666666" stroke="#666666" points="0,-42 0,-42 27.25,-42 27.25,-42 0,-42"/>
<polygon fill="#666666" stroke="#666666" points="27.25,-42 27.25,-42 104,-42 104,-42 27.25,-42"/>
<polygon fill="none" stroke="#666666" points="0,-8 0,-76 104,-76 104,-8 0,-8"/>
</a>
</g>
</g>
<!-- Node1&#45;&gt;Node2 -->
<g id="edge1_Node000001_Node000002" class="edge">
<title>Node1&#45;&gt;Node2</title>
<g id="a_edge1_Node000001_Node000002"><a xlink:title=" ">
<path fill="none" stroke="#63b8ff" d="M357.24,-140.65C297.66,-134.04 194.71,-118.4 113,-84 107.59,-81.72 102.16,-78.94 96.88,-75.91"/>
<polygon fill="none" stroke="#63b8ff" points="356.74,-144.12 367.05,-141.69 357.48,-137.16 356.74,-144.12"/>
</a>
</g>
</g>
<!-- Node3 -->
<g id="Node000003" class="node">
<title>Node3</title>
<g id="a_Node000003"><a xlink:href="structtranslator_1_1_goto_stmt.html" target="_top" xlink:title="GOTO deyimi.">
<polygon fill="white" stroke="none" points="218.25,-76 121.75,-76 121.75,-8 218.25,-8 218.25,-76"/>
<text xml:space="preserve" text-anchor="start" x="125.75" y="-62.5" font-family="Helvetica,sans-Serif" font-size="10.00">translator::GotoStmt</text>
<text xml:space="preserve" text-anchor="start" x="133.38" y="-46.5" font-family="Helvetica,sans-Serif" font-size="10.00">+</text>
<text xml:space="preserve" text-anchor="start" x="151" y="-46.5" font-family="Helvetica,sans-Serif" font-size="10.00">target</text>
<text xml:space="preserve" text-anchor="start" x="133.38" y="-30.5" font-family="Helvetica,sans-Serif" font-size="10.00">+</text>
<text xml:space="preserve" text-anchor="start" x="151" y="-30.5" font-family="Helvetica,sans-Serif" font-size="10.00">GotoStmt()</text>
<text xml:space="preserve" text-anchor="start" x="133.38" y="-14.5" font-family="Helvetica,sans-Serif" font-size="10.00">+</text>
<text xml:space="preserve" text-anchor="start" x="151" y="-14.5" font-family="Helvetica,sans-Serif" font-size="10.00">kind()</text>
<polygon fill="#666666" stroke="#666666" points="121.75,-58 121.75,-58 218.25,-58 218.25,-58 121.75,-58"/>
<polygon fill="#666666" stroke="#666666" points="121.75,-42 121.75,-42 149,-42 149,-42 121.75,-42"/>
<polygon fill="#666666" stroke="#666666" points="149,-42 149,-42 218.25,-42 218.25,-42 149,-42"/>
<polygon fill="none" stroke="#666666" points="121.75,-8 121.75,-76 218.25,-76 218.25,-8 121.75,-8"/>
</a>
</g>
</g>
<!-- Node1&#45;&gt;Node3 -->
<g id="edge2_Node000001_Node000003" class="edge">
<title>Node1&#45;&gt;Node3</title>
<g id="a_edge2_Node000001_Node000003"><a xlink:title=" ">
<path fill="none" stroke="#63b8ff" d="M357.37,-132.41C320.71,-121.96 269.78,-105.37 228,-84 223.28,-81.59 218.51,-78.83 213.84,-75.9"/>
<polygon fill="none" stroke="#63b8ff" points="356.24,-135.73 366.81,-135.05 358.12,-128.98 356.24,-135.73"/>
</a>
</g>
</g>
<!-- Node4 -->
<g id="Node000004" class="node">
<title>Node4</title>
<g id="a_Node000004"><a xlink:href="structtranslator_1_1_if_goto_stmt.html" target="_top" xlink:title="IF THEN GOTO deyimi.">
<polygon fill="white" stroke="none" points="339.25,-84 236.75,-84 236.75,0 339.25,0 339.25,-84"/>
<text xml:space="preserve" text-anchor="start" x="240.75" y="-70.5" font-family="Helvetica,sans-Serif" font-size="10.00">translator::IfGotoStmt</text>
<text xml:space="preserve" text-anchor="start" x="248.38" y="-54.5" font-family="Helvetica,sans-Serif" font-size="10.00">+</text>
<text xml:space="preserve" text-anchor="start" x="266" y="-54.5" font-family="Helvetica,sans-Serif" font-size="10.00">cond</text>
<text xml:space="preserve" text-anchor="start" x="248.38" y="-38.5" font-family="Helvetica,sans-Serif" font-size="10.00">+</text>
<text xml:space="preserve" text-anchor="start" x="266" y="-38.5" font-family="Helvetica,sans-Serif" font-size="10.00">target</text>
<text xml:space="preserve" text-anchor="start" x="248.38" y="-22.5" font-family="Helvetica,sans-Serif" font-size="10.00">+</text>
<text xml:space="preserve" text-anchor="start" x="266" y="-22.5" font-family="Helvetica,sans-Serif" font-size="10.00">IfGotoStmt()</text>
<text xml:space="preserve" text-anchor="start" x="248.38" y="-6.5" font-family="Helvetica,sans-Serif" font-size="10.00">+</text>
<text xml:space="preserve" text-anchor="start" x="266" y="-6.5" font-family="Helvetica,sans-Serif" font-size="10.00">kind()</text>
<polygon fill="#666666" stroke="#666666" points="236.75,-66 236.75,-66 339.25,-66 339.25,-66 236.75,-66"/>
<polygon fill="#666666" stroke="#666666" points="236.75,-34 236.75,-34 264,-34 264,-34 236.75,-34"/>
<polygon fill="#666666" stroke="#666666" points="264,-34 264,-34 339.25,-34 339.25,-34 264,-34"/>
<polygon fill="none" stroke="#666666" points="236.75,0 236.75,-84 339.25,-84 339.25,0 236.75,0"/>
</a>
</g>
</g>
<!-- Node1&#45;&gt;Node4 -->
<g id="edge3_Node000001_Node000004" class="edge">
<title>Node1&#45;&gt;Node4</title>
<g id="a_edge3_Node000001_Node000004"><a xlink:title=" ">
<path fill="none" stroke="#63b8ff" d="M368.57,-112.65C358.04,-103.55 346.45,-93.52 335.42,-83.99"/>
<polygon fill="none" stroke="#63b8ff" points="366.13,-115.17 375.99,-119.06 370.71,-109.87 366.13,-115.17"/>
</a>
</g>
</g>
<!-- Node5 -->
<g id="Node000005" class="node">
<title>Node5</title>
<g id="a_Node000005"><a xlink:href="structtranslator_1_1_input_stmt.html" target="_top" xlink:title="INPUT deyimi.">
<polygon fill="white" stroke="none" points="454.62,-76 357.38,-76 357.38,-8 454.62,-8 454.62,-76"/>
<text xml:space="preserve" text-anchor="start" x="361.38" y="-62.5" font-family="Helvetica,sans-Serif" font-size="10.00">translator::InputStmt</text>
<text xml:space="preserve" text-anchor="start" x="369" y="-46.5" font-family="Helvetica,sans-Serif" font-size="10.00">+</text>
<text xml:space="preserve" text-anchor="start" x="386.62" y="-46.5" font-family="Helvetica,sans-Serif" font-size="10.00">name</text>
<text xml:space="preserve" text-anchor="start" x="369" y="-30.5" font-family="Helvetica,sans-Serif" font-size="10.00">+</text>
<text xml:space="preserve" text-anchor="start" x="386.62" y="-30.5" font-family="Helvetica,sans-Serif" font-size="10.00">InputStmt()</text>
<text xml:space="preserve" text-anchor="start" x="369" y="-14.5" font-family="Helvetica,sans-Serif" font-size="10.00">+</text>
<text xml:space="preserve" text-anchor="start" x="386.62" y="-14.5" font-family="Helvetica,sans-Serif" font-size="10.00">kind()</text>
<polygon fill="#666666" stroke="#666666" points="357.38,-58 357.38,-58 454.62,-58 454.62,-58 357.38,-58"/>
<polygon fill="#666666" stroke="#666666" points="357.38,-42 357.38,-42 384.62,-42 384.62,-42 357.38,-42"/>
<polygon fill="#666666" stroke="#666666" points="384.62,-42 384.62,-42 454.62,-42 454.62,-42 384.62,-42"/>
<polygon fill="none" stroke="#666666" points="357.38,-8 357.38,-76 454.62,-76 454.62,-8 357.38,-8"/>
</a>
</g>
</g>
<!-- Node1&#45;&gt;Node5 -->
<g id="edge4_Node000001_Node000005" class="edge">
<title>Node1&#45;&gt;Node5</title>
<g id="a_edge4_Node000001_Node000005"><a xlink:title=" ">
<path fill="none" stroke="#63b8ff" d="M406,-108.84C406,-98.07 406,-86.33 406,-75.79"/>
<polygon fill="none" stroke="#63b8ff" points="402.5,-108.53 406,-118.53 409.5,-108.53 402.5,-108.53"/>
</a>
</g>
</g>
<!-- Node6 -->
<g id="Node000006" class="node">
<title>Node6</title>
<g id="a_Node000006"><a xlink:href="structtranslator_1_1_let_stmt.html" target="_top" xlink:title="LET atama deyimi.">
<polygon fill="white" stroke="none" points="561.5,-84 472.5,-84 472.5,0 561.5,0 561.5,-84"/>
<text xml:space="preserve" text-anchor="start" x="476.5" y="-70.5" font-family="Helvetica,sans-Serif" font-size="10.00">translator::LetStmt</text>
<text xml:space="preserve" text-anchor="start" x="484.12" y="-54.5" font-family="Helvetica,sans-Serif" font-size="10.00">+</text>
<text xml:space="preserve" text-anchor="start" x="501.75" y="-54.5" font-family="Helvetica,sans-Serif" font-size="10.00">name</text>
<text xml:space="preserve" text-anchor="start" x="484.12" y="-38.5" font-family="Helvetica,sans-Serif" font-size="10.00">+</text>
<text xml:space="preserve" text-anchor="start" x="501.75" y="-38.5" font-family="Helvetica,sans-Serif" font-size="10.00">expr</text>
<text xml:space="preserve" text-anchor="start" x="484.12" y="-22.5" font-family="Helvetica,sans-Serif" font-size="10.00">+</text>
<text xml:space="preserve" text-anchor="start" x="501.75" y="-22.5" font-family="Helvetica,sans-Serif" font-size="10.00">LetStmt()</text>
<text xml:space="preserve" text-anchor="start" x="484.12" y="-6.5" font-family="Helvetica,sans-Serif" font-size="10.00">+</text>
<text xml:space="preserve" text-anchor="start" x="501.75" y="-6.5" font-family="Helvetica,sans-Serif" font-size="10.00">kind()</text>
<polygon fill="#666666" stroke="#666666" points="472.5,-66 472.5,-66 561.5,-66 561.5,-66 472.5,-66"/>
<polygon fill="#666666" stroke="#666666" points="472.5,-34 472.5,-34 499.75,-34 499.75,-34 472.5,-34"/>
<polygon fill="#666666" stroke="#666666" points="499.75,-34 499.75,-34 561.5,-34 561.5,-34 499.75,-34"/>
<polygon fill="none" stroke="#666666" points="472.5,0 472.5,-84 561.5,-84 561.5,0 472.5,0"/>
</a>
</g>
</g>
<!-- Node1&#45;&gt;Node6 -->
<g id="edge5_Node000001_Node000006" class="edge">
<title>Node1&#45;&gt;Node6</title>
<g id="a_edge5_Node000001_Node000006"><a xlink:title=" ">
<path fill="none" stroke="#63b8ff" d="M441.6,-112.29C451.54,-103.15 462.46,-93.12 472.83,-83.59"/>
<polygon fill="none" stroke="#63b8ff" points="439.26,-109.68 434.27,-119.02 444,-114.83 439.26,-109.68"/>
</a>
</g>
</g>
<!-- Node7 -->
<g id="Node000007" class="node">
<title>Node7</title>
<g id="a_Node000007"><a xlink:href="structtranslator_1_1_print_stmt.html" target="_top" xlink:title="PRINT deyimi.">
<polygon fill="white" stroke="none" points="674.88,-76 579.12,-76 579.12,-8 674.88,-8 674.88,-76"/>
<text xml:space="preserve" text-anchor="start" x="583.12" y="-62.5" font-family="Helvetica,sans-Serif" font-size="10.00">translator::PrintStmt</text>
<text xml:space="preserve" text-anchor="start" x="590.75" y="-46.5" font-family="Helvetica,sans-Serif" font-size="10.00">+</text>
<text xml:space="preserve" text-anchor="start" x="608.38" y="-46.5" font-family="Helvetica,sans-Serif" font-size="10.00">items</text>
<text xml:space="preserve" text-anchor="start" x="590.75" y="-30.5" font-family="Helvetica,sans-Serif" font-size="10.00">+</text>
<text xml:space="preserve" text-anchor="start" x="608.38" y="-30.5" font-family="Helvetica,sans-Serif" font-size="10.00">PrintStmt()</text>
<text xml:space="preserve" text-anchor="start" x="590.75" y="-14.5" font-family="Helvetica,sans-Serif" font-size="10.00">+</text>
<text xml:space="preserve" text-anchor="start" x="608.38" y="-14.5" font-family="Helvetica,sans-Serif" font-size="10.00">kind()</text>
<polygon fill="#666666" stroke="#666666" points="579.12,-58 579.12,-58 674.88,-58 674.88,-58 579.12,-58"/>
<polygon fill="#666666" stroke="#666666" points="579.12,-42 579.12,-42 606.38,-42 606.38,-42 579.12,-42"/>
<polygon fill="#666666" stroke="#666666" points="606.38,-42 606.38,-42 674.88,-42 674.88,-42 606.38,-42"/>
<polygon fill="none" stroke="#666666" points="579.12,-8 579.12,-76 674.88,-76 674.88,-8 579.12,-8"/>
</a>
</g>
</g>
<!-- Node1&#45;&gt;Node7 -->
<g id="edge6_Node000001_Node000007" class="edge">
<title>Node1&#45;&gt;Node7</title>
<g id="a_edge6_Node000001_Node000007"><a xlink:title=" ">
<path fill="none" stroke="#63b8ff" d="M454.6,-130.97C488.3,-120.3 533.66,-104.07 571,-84 575.56,-81.55 580.17,-78.76 584.69,-75.83"/>
<polygon fill="none" stroke="#63b8ff" points="453.6,-127.61 445.09,-133.92 455.68,-134.3 453.6,-127.61"/>
</a>
</g>
</g>
<!-- Node8 -->
<g id="Node000008" class="node">
<title>Node8</title>
<g id="a_Node000008"><a xlink:href="structtranslator_1_1_return_stmt.html" target="_top" xlink:title="RETURN deyimi.">
<polygon fill="white" stroke="none" points="797.38,-68 692.62,-68 692.62,-16 797.38,-16 797.38,-68"/>
<text xml:space="preserve" text-anchor="start" x="696.62" y="-54.5" font-family="Helvetica,sans-Serif" font-size="10.00">translator::ReturnStmt</text>
<text xml:space="preserve" text-anchor="start" x="743.5" y="-38.5" font-family="Helvetica,sans-Serif" font-size="10.00"> </text>
<text xml:space="preserve" text-anchor="start" x="712.31" y="-22.5" font-family="Helvetica,sans-Serif" font-size="10.00">+</text>
<text xml:space="preserve" text-anchor="start" x="738" y="-22.5" font-family="Helvetica,sans-Serif" font-size="10.00">kind()</text>
<polygon fill="#666666" stroke="#666666" points="692.62,-50 692.62,-50 797.38,-50 797.38,-50 692.62,-50"/>
<polygon fill="#666666" stroke="#666666" points="692.62,-34 692.62,-34 797.38,-34 797.38,-34 692.62,-34"/>
<polygon fill="none" stroke="#666666" points="692.62,-16 692.62,-68 797.38,-68 797.38,-16 692.62,-16"/>
</a>
</g>
</g>
<!-- Node1&#45;&gt;Node8 -->
<g id="edge7_Node000001_Node000008" class="edge">
<title>Node1&#45;&gt;Node8</title>
<g id="a_edge7_Node000001_Node000008"><a xlink:title=" ">
<path fill="none" stroke="#63b8ff" d="M454.5,-139.95C511.34,-132.78 607.49,-116.7 684,-84 693.86,-79.79 703.81,-73.93 712.74,-67.95"/>
<polygon fill="none" stroke="#63b8ff" points="454.34,-136.44 444.83,-141.12 455.18,-143.39 454.34,-136.44"/>
</a>
</g>
</g>
</g>
</svg>
