<?xml version="1.0" encoding="UTF-8" standalone="no"?>
<!DOCTYPE svg PUBLIC "-//W3C//DTD SVG 1.1//EN"
 "http://www.w3.org/Graphics/SVG/1.1/DTD/svg11.dtd">
<!-- Generated by graphviz version 14.0.1 (20251006.0113)
 -->
<!-- Title: src/translator/cfg.h Pages: 1 -->
<svg width="297pt" height="140pt"
 viewBox="0.00 0.00 297.00 140.00" xmlns="http://www.w3.org/2000/svg" xmlns:xlink="http://www.w3.org/1999/xlink">
<g id="graph0" class="graph" transform="scale(1 1) rotate(0) translate(4 136)">
<title>src/translator/cfg.h</title>
<!-- Node1 -->
<g id="Node000001" class="node">
<title>Node1</title>
<g id="a_Node000001"><a xlink:title="Programdan kontrol akışı grafiği (CFG) üretimi yardımcıları">
<polygon fill="#999999" stroke="#666666" points="196,-132 98.25,-132 98.25,-112 196,-112 196,-132"/>
<text xml:space="preserve" text-anchor="middle" x="147.12" y="-118.5" font-family="Helvetica,sans-Serif" font-size="10.00">src/translator/cfg.h</text>
</a>
</g>
</g>
<!-- Node2 -->
<g id="Node000002" class="node">
<title>Node2</title>
<g id="a_Node000002"><a xlink:href="$graph_8h.html" xlink:title="Basit yönlü/yönsüz grafik yardımcıları.">
<polygon fill="white" stroke="#666666" points="88,-76 26.25,-76 26.25,-56 88,-56 88,-76"/>
<text xml:space="preserve" text-anchor="middle" x="57.12" y="-62.5" font-family="Helvetica,sans-Serif" font-size="10.00">ds/graph.h</text>
</a>
</g>
</g>
<!-- Node1&#45;&gt;Node2 -->
<g id="edge17_Node000001_Node000002" class="edge">
<title>Node1&#45;&gt;Node2</title>
<g id="a_edge17_Node000001_Node000002"><a xlink:title=" ">
<path fill="none" stroke="#63b8ff" d="M131.45,-111.59C117.98,-103.51 98.31,-91.71 82.58,-82.27"/>
<polygon fill="#63b8ff" stroke="#63b8ff" points="84.6,-79.4 74.22,-77.26 81,-85.4 84.6,-79.4"/>
</a>
</g>
</g>
<!-- Node5 -->
<g id="Node000005" class="node">
<title>Node5</title>
<g id="a_Node000005"><a xlink:href="$ast_8h.html" xlink:title="Basit ifade ve deyim ağaçları (AST) tanımları">
<polygon fill="white" stroke="#666666" points="187.75,-76 106.5,-76 106.5,-56 187.75,-56 187.75,-76"/>
<text xml:space="preserve" text-anchor="middle" x="147.12" y="-62.5" font-family="Helvetica,sans-Serif" font-size="10.00">translator/ast.h</text>
</a>
</g>
</g>
<!-- Node1&#45;&gt;Node5 -->
<g id="edge20_Node000001_Node000005" class="edge">
<title>Node1&#45;&gt;Node5</title>
<g id="a_edge20_Node000001_Node000005"><a xlink:title=" ">
<path fill="none" stroke="#63b8ff" d="M147.12,-111.59C147.12,-105.01 147.12,-95.96 147.12,-87.73"/>
<polygon fill="#63b8ff" stroke="#63b8ff" points="150.63,-87.81 147.13,-77.81 143.63,-87.81 150.63,-87.81"/>
</a>
</g>
</g>
<!-- Node8 -->
<g id="Node000008" class="node">
<title>Node8</title>
<g id="a_Node000008"><a xlink:title=" ">
<polygon fill="#e0e0e0" stroke="#999999" points="288.5,-76 205.75,-76 205.75,-56 288.5,-56 288.5,-76"/>
<text xml:space="preserve" text-anchor="middle" x="247.12" y="-62.5" font-family="Helvetica,sans-Serif" font-size="10.00">unordered_map</text>
</a>
</g>
</g>
<!-- Node1&#45;&gt;Node8 -->
<g id="edge24_Node000001_Node000008" class="edge">
<title>Node1&#45;&gt;Node8</title>
<g id="a_edge24_Node000001_Node000008"><a xlink:title=" ">
<path fill="none" stroke="#63b8ff" d="M164.54,-111.59C179.79,-103.36 202.2,-91.26 219.83,-81.74"/>
<polygon fill="#63b8ff" stroke="#63b8ff" points="221.1,-85.03 228.24,-77.2 217.78,-78.87 221.1,-85.03"/>
</a>
</g>
</g>
<!-- Node3 -->
<g id="Node000003" class="node">
<title>Node3</title>
<g id="a_Node000003"><a xlink:title=" ">
<polygon fill="#e0e0e0" stroke="#999999" points="103.62,-20 60.62,-20 60.62,0 103.62,0 103.62,-20"/>
<text xml:space="preserve" text-anchor="middle" x="82.12" y="-6.5" font-family="Helvetica,sans-Serif" font-size="10.00">vector</text>
</a>
</g>
</g>
<!-- Node2&#45;&gt;Node3 -->
<g id="edge18_Node000002_Node000003" class="edge">
<title>Node2&#45;&gt;Node3</title>
<g id="a_edge18_Node000002_Node000003"><a xlink:title=" ">
<path fill="none" stroke="#63b8ff" d="M61.48,-55.59C64.67,-48.7 69.11,-39.1 73.06,-30.57"/>
<polygon fill="#63b8ff" stroke="#63b8ff" points="76.16,-32.22 77.18,-21.67 69.81,-29.28 76.16,-32.22"/>
</a>
</g>
</g>
<!-- Node4 -->
<g id="Node000004" class="node">
<title>Node4</title>
<g id="a_Node000004"><a xlink:title=" ">
<polygon fill="#e0e0e0" stroke="#999999" points="42.25,-20 0,-20 0,0 42.25,0 42.25,-20"/>
<text xml:space="preserve" text-anchor="middle" x="21.12" y="-6.5" font-family="Helvetica,sans-Serif" font-size="10.00">queue</text>
</a>
</g>
</g>
<!-- Node2&#45;&gt;Node4 -->
<g id="edge19_Node000002_Node000004" class="edge">
<title>Node2&#45;&gt;Node4</title>
<g id="a_edge19_Node000002_Node000004"><a xlink:title=" ">
<path fill="none" stroke="#63b8ff" d="M50.85,-55.59C46.11,-48.47 39.43,-38.45 33.6,-29.72"/>
<polygon fill="#63b8ff" stroke="#63b8ff" points="36.62,-27.94 28.16,-21.56 30.8,-31.82 36.62,-27.94"/>
</a>
</g>
</g>
<!-- Node5&#45;&gt;Node3 -->
<g id="edge23_Node000005_Node000003" class="edge">
<title>Node5&#45;&gt;Node3</title>
<g id="a_edge23_Node000005_Node000003"><a xlink:title=" ">
<path fill="none" stroke="#63b8ff" d="M135.8,-55.59C126.48,-47.85 113.05,-36.69 101.95,-27.47"/>
<polygon fill="#63b8ff" stroke="#63b8ff" points="104.41,-24.96 94.48,-21.27 99.94,-30.35 104.41,-24.96"/>
</a>
</g>
</g>
<!-- Node6 -->
<g id="Node000006" class="node">
<title>Node6</title>
<g id="a_Node000006"><a xlink:title=" ">
<polygon fill="#e0e0e0" stroke="#999999" points="172.75,-20 121.5,-20 121.5,0 172.75,0 172.75,-20"/>
<text xml:space="preserve" text-anchor="middle" x="147.12" y="-6.5" font-family="Helvetica,sans-Serif" font-size="10.00">memory</text>
</a>
</g>
</g>
<!-- Node5&#45;&gt;Node6 -->
<g id="edge21_Node000005_Node000006" class="edge">
<title>Node5&#45;&gt;Node6</title>
<g id="a_edge21_Node000005_Node000006"><a xlink:title=" ">
<path fill="none" stroke="#63b8ff" d="M147.12,-55.59C147.12,-49.01 147.12,-39.96 147.12,-31.73"/>
<polygon fill="#63b8ff" stroke="#63b8ff" points="150.63,-31.81 147.13,-21.81 143.63,-31.81 150.63,-31.81"/>
</a>
</g>
</g>
<!-- Node7 -->
<g id="Node000007" class="node">
<title>Node7</title>
<g id="a_Node000007"><a xlink:title=" ">
<polygon fill="#e0e0e0" stroke="#999999" points="231.12,-20 191.12,-20 191.12,0 231.12,0 231.12,-20"/>
<text xml:space="preserve" text-anchor="middle" x="211.12" y="-6.5" font-family="Helvetica,sans-Serif" font-size="10.00">string</text>
</a>
</g>
</g>
<!-- Node5&#45;&gt;Node7 -->
<g id="edge22_Node000005_Node000007" class="edge">
<title>Node5&#45;&gt;Node7</title>
<g id="a_edge22_Node000005_Node000007"><a xlink:title=" ">
<path fill="none" stroke="#63b8ff" d="M158.27,-55.59C167.45,-47.85 180.68,-36.69 191.61,-27.47"/>
<polygon fill="#63b8ff" stroke="#63b8ff" points="193.56,-30.4 198.95,-21.27 189.05,-25.05 193.56,-30.4"/>
</a>
</g>
</g>
</g>
</svg>
