<?xml version="1.0" encoding="UTF-8" standalone="no"?>
<!DOCTYPE svg PUBLIC "-//W3C//DTD SVG 1.1//EN"
 "http://www.w3.org/Graphics/SVG/1.1/DTD/svg11.dtd">
<!-- Generated by graphviz version 14.0.1 (20251006.0113)
 -->
<!-- Title: ds::DoublyLinkedList&lt; T &gt; Pages: 1 -->
<svg width="168pt" height="402pt"
 viewBox="0.00 0.00 168.00 402.00" xmlns="http://www.w3.org/2000/svg" xmlns:xlink="http://www.w3.org/1999/xlink">
<g id="graph0" class="graph" transform="scale(1 1) rotate(0) translate(4 398)">
<title>ds::DoublyLinkedList&lt; T &gt;</title>
<!-- Node1 -->
<g id="Node000001" class="node">
<title>Node1</title>
<g id="a_Node000001"><a xlink:title="Çift yönlü bağlı liste kapsayıcısı">
<polygon fill="#999999" stroke="none" points="122.75,-260 0,-260 0,0 122.75,0 122.75,-260"/>
<text xml:space="preserve" text-anchor="start" x="4" y="-246.5" font-family="Helvetica,sans-Serif" font-size="10.00">ds::DoublyLinkedList&lt; T &gt;</text>
<text xml:space="preserve" text-anchor="start" x="9.94" y="-230.5" font-family="Helvetica,sans-Serif" font-size="10.00">&#45;</text>
<text xml:space="preserve" text-anchor="start" x="22.88" y="-230.5" font-family="Helvetica,sans-Serif" font-size="10.00">size_</text>
<text xml:space="preserve" text-anchor="start" x="8.44" y="-214.5" font-family="Helvetica,sans-Serif" font-size="10.00">+</text>
<text xml:space="preserve" text-anchor="start" x="22.88" y="-214.5" font-family="Helvetica,sans-Serif" font-size="10.00">DoublyLinkedList()</text>
<text xml:space="preserve" text-anchor="start" x="8.44" y="-198.5" font-family="Helvetica,sans-Serif" font-size="10.00">+</text>
<text xml:space="preserve" text-anchor="start" x="22.88" y="-198.5" font-family="Helvetica,sans-Serif" font-size="10.00">~DoublyLinkedList()</text>
<text xml:space="preserve" text-anchor="start" x="8.44" y="-182.5" font-family="Helvetica,sans-Serif" font-size="10.00">+</text>
<text xml:space="preserve" text-anchor="start" x="22.88" y="-182.5" font-family="Helvetica,sans-Serif" font-size="10.00">DoublyLinkedList()</text>
<text xml:space="preserve" text-anchor="start" x="8.44" y="-166.5" font-family="Helvetica,sans-Serif" font-size="10.00">+</text>
<text xml:space="preserve" text-anchor="start" x="22.88" y="-166.5" font-family="Helvetica,sans-Serif" font-size="10.00">operator=()</text>
<text xml:space="preserve" text-anchor="start" x="8.44" y="-150.5" font-family="Helvetica,sans-Serif" font-size="10.00">+</text>
<text xml:space="preserve" text-anchor="start" x="22.88" y="-150.5" font-family="Helvetica,sans-Serif" font-size="10.00">begin()</text>
<text xml:space="preserve" text-anchor="start" x="8.44" y="-134.5" font-family="Helvetica,sans-Serif" font-size="10.00">+</text>
<text xml:space="preserve" text-anchor="start" x="22.88" y="-134.5" font-family="Helvetica,sans-Serif" font-size="10.00">end()</text>
<text xml:space="preserve" text-anchor="start" x="8.44" y="-118.5" font-family="Helvetica,sans-Serif" font-size="10.00">+</text>
<text xml:space="preserve" text-anchor="start" x="22.88" y="-118.5" font-family="Helvetica,sans-Serif" font-size="10.00">rbegin()</text>
<text xml:space="preserve" text-anchor="start" x="8.44" y="-102.5" font-family="Helvetica,sans-Serif" font-size="10.00">+</text>
<text xml:space="preserve" text-anchor="start" x="22.88" y="-102.5" font-family="Helvetica,sans-Serif" font-size="10.00">size()</text>
<text xml:space="preserve" text-anchor="start" x="8.44" y="-86.5" font-family="Helvetica,sans-Serif" font-size="10.00">+</text>
<text xml:space="preserve" text-anchor="start" x="22.88" y="-86.5" font-family="Helvetica,sans-Serif" font-size="10.00">empty()</text>
<text xml:space="preserve" text-anchor="start" x="8.44" y="-70.5" font-family="Helvetica,sans-Serif" font-size="10.00">+</text>
<text xml:space="preserve" text-anchor="start" x="22.88" y="-70.5" font-family="Helvetica,sans-Serif" font-size="10.00">clear()</text>
<text xml:space="preserve" text-anchor="start" x="8.44" y="-54.5" font-family="Helvetica,sans-Serif" font-size="10.00">+</text>
<text xml:space="preserve" text-anchor="start" x="22.88" y="-54.5" font-family="Helvetica,sans-Serif" font-size="10.00">push_back()</text>
<text xml:space="preserve" text-anchor="start" x="8.44" y="-38.5" font-family="Helvetica,sans-Serif" font-size="10.00">+</text>
<text xml:space="preserve" text-anchor="start" x="22.88" y="-38.5" font-family="Helvetica,sans-Serif" font-size="10.00">push_front()</text>
<text xml:space="preserve" text-anchor="start" x="8.44" y="-22.5" font-family="Helvetica,sans-Serif" font-size="10.00">+</text>
<text xml:space="preserve" text-anchor="start" x="22.88" y="-22.5" font-family="Helvetica,sans-Serif" font-size="10.00">insert_after()</text>
<text xml:space="preserve" text-anchor="start" x="8.44" y="-6.5" font-family="Helvetica,sans-Serif" font-size="10.00">+</text>
<text xml:space="preserve" text-anchor="start" x="22.88" y="-6.5" font-family="Helvetica,sans-Serif" font-size="10.00">erase()</text>
<polygon fill="#666666" stroke="#666666" points="0,-242 0,-242 122.75,-242 122.75,-242 0,-242"/>
<polygon fill="#666666" stroke="#666666" points="0,-226 0,-226 20.88,-226 20.88,-226 0,-226"/>
<polygon fill="#666666" stroke="#666666" points="20.88,-226 20.88,-226 122.75,-226 122.75,-226 20.88,-226"/>
<polygon fill="none" stroke="#666666" points="0,0 0,-260 122.75,-260 122.75,0 0,0"/>
</a>
</g>
</g>
<!-- Node2 -->
<g id="Node000002" class="node">
<title>Node2</title>
<g id="a_Node000002"><a xlink:href="$structds_1_1_doubly_linked_list_1_1_node.html" xlink:title="Liste düğümü">
<polygon fill="white" stroke="none" points="111.12,-394 11.62,-394 11.62,-330 111.12,-330 111.12,-394"/>
<text xml:space="preserve" text-anchor="start" x="15.62" y="-380.5" font-family="Helvetica,sans-Serif" font-size="10.00">ds::DoublyLinkedList</text>
<text xml:space="preserve" text-anchor="start" x="35.12" y="-368.5" font-family="Helvetica,sans-Serif" font-size="10.00">&lt; T &gt;::Node</text>
<text xml:space="preserve" text-anchor="start" x="28.69" y="-352.5" font-family="Helvetica,sans-Serif" font-size="10.00">+</text>
<text xml:space="preserve" text-anchor="start" x="51.75" y="-352.5" font-family="Helvetica,sans-Serif" font-size="10.00">value</text>
<text xml:space="preserve" text-anchor="start" x="28.69" y="-336.5" font-family="Helvetica,sans-Serif" font-size="10.00">+</text>
<text xml:space="preserve" text-anchor="start" x="51.75" y="-336.5" font-family="Helvetica,sans-Serif" font-size="10.00">Node()</text>
<polygon fill="#666666" stroke="#666666" points="11.62,-364 11.62,-364 111.12,-364 111.12,-364 11.62,-364"/>
<polygon fill="#666666" stroke="#666666" points="11.62,-348 11.62,-348 49.75,-348 49.75,-348 11.62,-348"/>
<polygon fill="#666666" stroke="#666666" points="49.75,-348 49.75,-348 111.12,-348 111.12,-348 49.75,-348"/>
<polygon fill="none" stroke="#666666" points="11.62,-330 11.62,-394 111.12,-394 111.12,-330 11.62,-330"/>
</a>
</g>
</g>
<!-- Node2&#45;&gt;Node1 -->
<g id="edge5_Node000001_Node000002" class="edge">
<title>Node2&#45;&gt;Node1</title>
<g id="a_edge5_Node000001_Node000002"><a xlink:title=" ">
<path fill="none" stroke="#63b8ff" d="M61.38,-330.46C61.38,-314.78 61.38,-294.43 61.38,-272.74"/>
<polygon fill="none" stroke="#63b8ff" points="61.38,-272.74 57.38,-266.74 61.38,-260.74 65.38,-266.74 61.38,-272.74"/>
</a>
</g>
<text xml:space="preserve" text-anchor="start" x="64.38" y="-299.5" font-family="Helvetica,sans-Serif" font-size="10.00" fill="grey">&#45;head_</text>
<text xml:space="preserve" text-anchor="start" x="64.38" y="-283.5" font-family="Helvetica,sans-Serif" font-size="10.00" fill="grey">&#45;tail_</text>
</g>
<!-- Node2&#45;&gt;Node2 -->
<g id="edge6_Node000002_Node000002" class="edge">
<title>Node2&#45;&gt;Node2</title>
<g id="a_edge6_Node000002_Node000002"><a xlink:title=" ">
<path fill="none" stroke="#63b8ff" d="M111,-374.16C121.53,-372.92 129.12,-368.87 129.12,-362 129.12,-358.35 126.98,-355.5 123.39,-353.44"/>
<polygon fill="none" stroke="#63b8ff" points="123.4,-353.44 116.52,-355.61 111.87,-350.09 118.75,-347.92 123.4,-353.44"/>
</a>
</g>
<text xml:space="preserve" text-anchor="start" x="132.12" y="-366.5" font-family="Helvetica,sans-Serif" font-size="10.00" fill="grey">+next</text>
<text xml:space="preserve" text-anchor="start" x="132.12" y="-350.5" font-family="Helvetica,sans-Serif" font-size="10.00" fill="grey">+prev</text>
</g>
</g>
</svg>
