<?xml version="1.0" encoding="UTF-8" standalone="no"?>
<!DOCTYPE svg PUBLIC "-//W3C//DTD SVG 1.1//EN"
 "http://www.w3.org/Graphics/SVG/1.1/DTD/svg11.dtd">
<!-- Generated by graphviz version 14.0.1 (20251006.0113)
 -->
<!-- Title: ds::Queue&lt; T &gt; Pages: 1 -->
<svg width="162pt" height="262pt"
 viewBox="0.00 0.00 162.00 262.00" xmlns="http://www.w3.org/2000/svg" xmlns:xlink="http://www.w3.org/1999/xlink">
<g id="graph0" class="graph" transform="scale(1 1) rotate(0) translate(4 258)">
<title>ds::Queue&lt; T &gt;</title>
<!-- Node1 -->
<g id="Node000001" class="node">
<title>Node1</title>
<g id="a_Node000001"><a xlink:title=" ">
<polygon fill="#999999" stroke="none" points="90.88,-132 14.62,-132 14.62,0 90.88,0 90.88,-132"/>
<text xml:space="preserve" text-anchor="start" x="18.62" y="-118.5" font-family="Helvetica,sans-Serif" font-size="10.00">ds::Queue&lt; T &gt;</text>
<text xml:space="preserve" text-anchor="start" x="24" y="-102.5" font-family="Helvetica,sans-Serif" font-size="10.00">&#45;</text>
<text xml:space="preserve" text-anchor="start" x="36.38" y="-102.5" font-family="Helvetica,sans-Serif" font-size="10.00">sz_</text>
<text xml:space="preserve" text-anchor="start" x="22.5" y="-86.5" font-family="Helvetica,sans-Serif" font-size="10.00">+</text>
<text xml:space="preserve" text-anchor="start" x="36.38" y="-86.5" font-family="Helvetica,sans-Serif" font-size="10.00">~Queue()</text>
<text xml:space="preserve" text-anchor="start" x="22.5" y="-70.5" font-family="Helvetica,sans-Serif" font-size="10.00">+</text>
<text xml:space="preserve" text-anchor="start" x="36.38" y="-70.5" font-family="Helvetica,sans-Serif" font-size="10.00">enqueue()</text>
<text xml:space="preserve" text-anchor="start" x="22.5" y="-54.5" font-family="Helvetica,sans-Serif" font-size="10.00">+</text>
<text xml:space="preserve" text-anchor="start" x="36.38" y="-54.5" font-family="Helvetica,sans-Serif" font-size="10.00">dequeue()</text>
<text xml:space="preserve" text-anchor="start" x="22.5" y="-38.5" font-family="Helvetica,sans-Serif" font-size="10.00">+</text>
<text xml:space="preserve" text-anchor="start" x="36.38" y="-38.5" font-family="Helvetica,sans-Serif" font-size="10.00">front()</text>
<text xml:space="preserve" text-anchor="start" x="22.5" y="-22.5" font-family="Helvetica,sans-Serif" font-size="10.00">+</text>
<text xml:space="preserve" text-anchor="start" x="36.38" y="-22.5" font-family="Helvetica,sans-Serif" font-size="10.00">empty()</text>
<text xml:space="preserve" text-anchor="start" x="22.5" y="-6.5" font-family="Helvetica,sans-Serif" font-size="10.00">+</text>
<text xml:space="preserve" text-anchor="start" x="36.38" y="-6.5" font-family="Helvetica,sans-Serif" font-size="10.00">size()</text>
<polygon fill="#666666" stroke="#666666" points="14.62,-114 14.62,-114 90.88,-114 90.88,-114 14.62,-114"/>
<polygon fill="#666666" stroke="#666666" points="14.62,-98 14.62,-98 34.38,-98 34.38,-98 14.62,-98"/>
<polygon fill="#666666" stroke="#666666" points="34.38,-98 34.38,-98 90.88,-98 90.88,-98 34.38,-98"/>
<polygon fill="none" stroke="#666666" points="14.62,0 14.62,-132 90.88,-132 90.88,0 14.62,0"/>
</a>
</g>
</g>
<!-- Node2 -->
<g id="Node000002" class="node">
<title>Node2</title>
<g id="a_Node000002"><a xlink:href="$structds_1_1_queue_1_1_node.html" xlink:title="Bağlı liste düğümü.">
<polygon fill="white" stroke="none" points="105.5,-254 0,-254 0,-202 105.5,-202 105.5,-254"/>
<text xml:space="preserve" text-anchor="start" x="4" y="-240.5" font-family="Helvetica,sans-Serif" font-size="10.00">ds::Queue&lt; T &gt;::Node</text>
<text xml:space="preserve" text-anchor="start" x="24.56" y="-224.5" font-family="Helvetica,sans-Serif" font-size="10.00">+</text>
<text xml:space="preserve" text-anchor="start" x="55.12" y="-224.5" font-family="Helvetica,sans-Serif" font-size="10.00">v</text>
<text xml:space="preserve" text-anchor="start" x="51.25" y="-208.5" font-family="Helvetica,sans-Serif" font-size="10.00"> </text>
<polygon fill="#666666" stroke="#666666" points="0,-236 0,-236 105.5,-236 105.5,-236 0,-236"/>
<polygon fill="#666666" stroke="#666666" points="0,-220 0,-220 53.12,-220 53.12,-220 0,-220"/>
<polygon fill="#666666" stroke="#666666" points="53.12,-220 53.12,-220 105.5,-220 105.5,-220 53.12,-220"/>
<polygon fill="none" stroke="#666666" points="0,-202 0,-254 105.5,-254 105.5,-202 0,-202"/>
</a>
</g>
</g>
<!-- Node2&#45;&gt;Node1 -->
<g id="edge5_Node000001_Node000002" class="edge">
<title>Node2&#45;&gt;Node1</title>
<g id="a_edge5_Node000001_Node000002"><a xlink:title=" ">
<path fill="none" stroke="#63b8ff" d="M52.75,-202C52.75,-186.42 52.75,-165.46 52.75,-144.7"/>
<polygon fill="none" stroke="#63b8ff" points="52.75,-144.75 48.75,-138.75 52.75,-132.75 56.75,-138.75 52.75,-144.75"/>
</a>
</g>
<text xml:space="preserve" text-anchor="start" x="55.75" y="-171.5" font-family="Helvetica,sans-Serif" font-size="10.00" fill="grey">&#45;head_</text>
<text xml:space="preserve" text-anchor="start" x="55.75" y="-155.5" font-family="Helvetica,sans-Serif" font-size="10.00" fill="grey">&#45;tail_</text>
</g>
<!-- Node2&#45;&gt;Node2 -->
<g id="edge6_Node000002_Node000002" class="edge">
<title>Node2&#45;&gt;Node2</title>
<g id="a_edge6_Node000002_Node000002"><a xlink:title=" ">
<path fill="none" stroke="#63b8ff" d="M105.2,-239C115.86,-237.8 123.5,-234.14 123.5,-228 123.5,-224.74 121.35,-222.18 117.73,-220.31"/>
<polygon fill="none" stroke="#63b8ff" points="117.67,-220.3 110.85,-222.63 106.07,-217.23 112.9,-214.9 117.67,-220.3"/>
</a>
</g>
<text xml:space="preserve" text-anchor="start" x="126.5" y="-224.5" font-family="Helvetica,sans-Serif" font-size="10.00" fill="grey">+next</text>
</g>
</g>
</svg>
