<?xml version="1.0" encoding="UTF-8" standalone="no"?>
<!DOCTYPE svg PUBLIC "-//W3C//DTD SVG 1.1//EN"
 "http://www.w3.org/Graphics/SVG/1.1/DTD/svg11.dtd">
<!-- Generated by graphviz version 14.0.1 (20251006.0113)
 -->
<!-- Title: C:/Users/ahmet/OneDrive/Masaüstü/DataStructure/cen207&#45;2025&#45;2026&#45;5&#45;Mustafa&#45;Yildirimm&#45;cpp/src/translator/lexer.h Pages: 1 -->
<svg width="224pt" height="176pt"
 viewBox="0.00 0.00 224.00 176.00" xmlns="http://www.w3.org/2000/svg" xmlns:xlink="http://www.w3.org/1999/xlink">
<g id="graph0" class="graph" transform="scale(1 1) rotate(0) translate(4 172)">
<title>C:/Users/ahmet/OneDrive/Masaüstü/DataStructure/cen207&#45;2025&#45;2026&#45;5&#45;Mustafa&#45;Yildirimm&#45;cpp/src/translator/lexer.h</title>
<!-- Node1 -->
<g id="Node000001" class="node">
<title>Node1</title>
<g id="a_Node000001"><a xlink:title="BASIC benzeri dil için leksik analizci arabirimi.">
<polygon fill="#999999" stroke="#666666" points="170.5,-168 0,-168 0,-112 170.5,-112 170.5,-168"/>
<text xml:space="preserve" text-anchor="start" x="8" y="-154.5" font-family="Helvetica,sans-Serif" font-size="10.00">C:/Users/ahmet/OneDrive</text>
<text xml:space="preserve" text-anchor="start" x="8" y="-142.5" font-family="Helvetica,sans-Serif" font-size="10.00">/Masaüstü/DataStructure</text>
<text xml:space="preserve" text-anchor="start" x="8" y="-130.5" font-family="Helvetica,sans-Serif" font-size="10.00">/cen207&#45;2025&#45;2026&#45;5&#45;Mustafa</text>
<text xml:space="preserve" text-anchor="middle" x="85.25" y="-118.5" font-family="Helvetica,sans-Serif" font-size="10.00">&#45;Yildirimm&#45;cpp/src/translator/lexer.h</text>
</a>
</g>
</g>
<!-- Node2 -->
<g id="Node000002" class="node">
<title>Node2</title>
<g id="a_Node000002"><a xlink:title=" ">
<polygon fill="#e0e0e0" stroke="#999999" points="122.25,-20 82.25,-20 82.25,0 122.25,0 122.25,-20"/>
<text xml:space="preserve" text-anchor="middle" x="102.25" y="-6.5" font-family="Helvetica,sans-Serif" font-size="10.00">string</text>
</a>
</g>
</g>
<!-- Node1&#45;&gt;Node2 -->
<g id="edge9_Node000001_Node000002" class="edge">
<title>Node1&#45;&gt;Node2</title>
<g id="a_edge9_Node000001_Node000002"><a xlink:title=" ">
<path fill="none" stroke="#63b8ff" d="M64.34,-111.81C54.42,-95.47 46.3,-74.35 54.25,-56 59.22,-44.52 68.72,-34.63 77.97,-27.07"/>
<polygon fill="#63b8ff" stroke="#63b8ff" points="79.86,-30.03 85.74,-21.22 75.65,-24.43 79.86,-30.03"/>
</a>
</g>
</g>
<!-- Node3 -->
<g id="Node000003" class="node">
<title>Node3</title>
<g id="a_Node000003"><a xlink:title=" ">
<polygon fill="#e0e0e0" stroke="#999999" points="106.75,-76 63.75,-76 63.75,-56 106.75,-56 106.75,-76"/>
<text xml:space="preserve" text-anchor="middle" x="85.25" y="-62.5" font-family="Helvetica,sans-Serif" font-size="10.00">vector</text>
</a>
</g>
</g>
<!-- Node1&#45;&gt;Node3 -->
<g id="edge10_Node000001_Node000003" class="edge">
<title>Node1&#45;&gt;Node3</title>
<g id="a_edge10_Node000001_Node000003"><a xlink:title=" ">
<path fill="none" stroke="#63b8ff" d="M85.25,-111.78C85.25,-103.82 85.25,-95.25 85.25,-87.76"/>
<polygon fill="#63b8ff" stroke="#63b8ff" points="88.75,-87.99 85.25,-77.99 81.75,-87.99 88.75,-87.99"/>
</a>
</g>
</g>
<!-- Node4 -->
<g id="Node000004" class="node">
<title>Node4</title>
<g id="a_Node000004"><a xlink:href="$token_8h.html" xlink:title="Leksik belirteç türleri ve veri yapısı">
<polygon fill="white" stroke="#666666" points="216.12,-76 124.38,-76 124.38,-56 216.12,-56 216.12,-76"/>
<text xml:space="preserve" text-anchor="middle" x="170.25" y="-62.5" font-family="Helvetica,sans-Serif" font-size="10.00">translator/token.h</text>
</a>
</g>
</g>
<!-- Node1&#45;&gt;Node4 -->
<g id="edge11_Node000001_Node000004" class="edge">
<title>Node1&#45;&gt;Node4</title>
<g id="a_edge11_Node000001_Node000004"><a xlink:title=" ">
<path fill="none" stroke="#63b8ff" d="M117.38,-111.78C128.5,-102.36 140.62,-92.1 150.45,-83.77"/>
<polygon fill="#63b8ff" stroke="#63b8ff" points="152.54,-86.59 157.91,-77.45 148.02,-81.24 152.54,-86.59"/>
</a>
</g>
</g>
<!-- Node4&#45;&gt;Node2 -->
<g id="edge12_Node000004_Node000002" class="edge">
<title>Node4&#45;&gt;Node2</title>
<g id="a_edge12_Node000004_Node000002"><a xlink:title=" ">
<path fill="none" stroke="#63b8ff" d="M158.41,-55.59C148.56,-47.77 134.32,-36.46 122.64,-27.19"/>
<polygon fill="#63b8ff" stroke="#63b8ff" points="125.15,-24.72 115.14,-21.24 120.8,-30.2 125.15,-24.72"/>
</a>
</g>
</g>
</g>
</svg>
