<?xml version="1.0" encoding="UTF-8" standalone="no"?>
<!DOCTYPE svg PUBLIC "-//W3C//DTD SVG 1.1//EN"
 "http://www.w3.org/Graphics/SVG/1.1/DTD/svg11.dtd">
<!-- Generated by graphviz version 14.0.1 (20251006.0113)
 -->
<!-- Title: src/translator/lexer.h Pages: 1 -->
<svg width="192pt" height="140pt"
 viewBox="0.00 0.00 192.00 140.00" xmlns="http://www.w3.org/2000/svg" xmlns:xlink="http://www.w3.org/1999/xlink">
<g id="graph0" class="graph" transform="scale(1 1) rotate(0) translate(4 136)">
<title>src/translator/lexer.h</title>
<!-- Node1 -->
<g id="Node000001" class="node">
<title>Node1</title>
<g id="a_Node000001"><a xlink:title="BASIC benzeri dil için leksik analizci arabirimi.">
<polygon fill="#999999" stroke="#666666" points="105.25,-132 0,-132 0,-112 105.25,-112 105.25,-132"/>
<text xml:space="preserve" text-anchor="middle" x="52.62" y="-118.5" font-family="Helvetica,sans-Serif" font-size="10.00">src/translator/lexer.h</text>
</a>
</g>
</g>
<!-- Node2 -->
<g id="Node000002" class="node">
<title>Node2</title>
<g id="a_Node000002"><a xlink:title=" ">
<polygon fill="#e0e0e0" stroke="#999999" points="89.62,-20 49.62,-20 49.62,0 89.62,0 89.62,-20"/>
<text xml:space="preserve" text-anchor="middle" x="69.62" y="-6.5" font-family="Helvetica,sans-Serif" font-size="10.00">string</text>
</a>
</g>
</g>
<!-- Node1&#45;&gt;Node2 -->
<g id="edge9_Node000001_Node000002" class="edge">
<title>Node1&#45;&gt;Node2</title>
<g id="a_edge9_Node000001_Node000002"><a xlink:title=" ">
<path fill="none" stroke="#63b8ff" d="M42.87,-111.84C30.81,-99.34 12.88,-76.19 21.62,-56 26.6,-44.52 36.1,-34.63 45.34,-27.07"/>
<polygon fill="#63b8ff" stroke="#63b8ff" points="47.23,-30.03 53.12,-21.22 43.02,-24.43 47.23,-30.03"/>
</a>
</g>
</g>
<!-- Node3 -->
<g id="Node000003" class="node">
<title>Node3</title>
<g id="a_Node000003"><a xlink:title=" ">
<polygon fill="#e0e0e0" stroke="#999999" points="74.12,-76 31.12,-76 31.12,-56 74.12,-56 74.12,-76"/>
<text xml:space="preserve" text-anchor="middle" x="52.62" y="-62.5" font-family="Helvetica,sans-Serif" font-size="10.00">vector</text>
</a>
</g>
</g>
<!-- Node1&#45;&gt;Node3 -->
<g id="edge10_Node000001_Node000003" class="edge">
<title>Node1&#45;&gt;Node3</title>
<g id="a_edge10_Node000001_Node000003"><a xlink:title=" ">
<path fill="none" stroke="#63b8ff" d="M52.62,-111.59C52.62,-105.01 52.62,-95.96 52.62,-87.73"/>
<polygon fill="#63b8ff" stroke="#63b8ff" points="56.13,-87.81 52.63,-77.81 49.13,-87.81 56.13,-87.81"/>
</a>
</g>
</g>
<!-- Node4 -->
<g id="Node000004" class="node">
<title>Node4</title>
<g id="a_Node000004"><a xlink:href="$token_8h.html" xlink:title="Leksik belirteç türleri ve veri yapısı">
<polygon fill="white" stroke="#666666" points="183.5,-76 91.75,-76 91.75,-56 183.5,-56 183.5,-76"/>
<text xml:space="preserve" text-anchor="middle" x="137.62" y="-62.5" font-family="Helvetica,sans-Serif" font-size="10.00">translator/token.h</text>
</a>
</g>
</g>
<!-- Node1&#45;&gt;Node4 -->
<g id="edge11_Node000001_Node000004" class="edge">
<title>Node1&#45;&gt;Node4</title>
<g id="a_edge11_Node000001_Node000004"><a xlink:title=" ">
<path fill="none" stroke="#63b8ff" d="M67.43,-111.59C80.03,-103.59 98.38,-91.93 113.16,-82.54"/>
<polygon fill="#63b8ff" stroke="#63b8ff" points="114.86,-85.61 121.43,-77.29 111.11,-79.7 114.86,-85.61"/>
</a>
</g>
</g>
<!-- Node4&#45;&gt;Node2 -->
<g id="edge12_Node000004_Node000002" class="edge">
<title>Node4&#45;&gt;Node2</title>
<g id="a_edge12_Node000004_Node000002"><a xlink:title=" ">
<path fill="none" stroke="#63b8ff" d="M125.78,-55.59C115.93,-47.77 101.69,-36.46 90.02,-27.19"/>
<polygon fill="#63b8ff" stroke="#63b8ff" points="92.53,-24.72 82.52,-21.24 88.17,-30.2 92.53,-24.72"/>
</a>
</g>
</g>
</g>
</svg>
