<?xml version="1.0" encoding="UTF-8" standalone="no"?>
<!DOCTYPE svg PUBLIC "-//W3C//DTD SVG 1.1//EN"
 "http://www.w3.org/Graphics/SVG/1.1/DTD/svg11.dtd">
<!-- Generated by graphviz version 14.0.1 (20251006.0113)
 -->
<!-- Title: src/translator/lexer.cpp Pages: 1 -->
<svg width="183pt" height="196pt"
 viewBox="0.00 0.00 183.00 196.00" xmlns="http://www.w3.org/2000/svg" xmlns:xlink="http://www.w3.org/1999/xlink">
<g id="graph0" class="graph" transform="scale(1 1) rotate(0) translate(4 192)">
<title>src/translator/lexer.cpp</title>
<!-- Node1 -->
<g id="Node000001" class="node">
<title>Node1</title>
<g id="a_Node000001"><a xlink:title="Lexer uygulaması: girdi kaynağını Token listesine dönüştürür.">
<polygon fill="#999999" stroke="#666666" points="144.25,-188 28.5,-188 28.5,-168 144.25,-168 144.25,-188"/>
<text xml:space="preserve" text-anchor="middle" x="86.38" y="-174.5" font-family="Helvetica,sans-Serif" font-size="10.00">src/translator/lexer.cpp</text>
</a>
</g>
</g>
<!-- Node2 -->
<g id="Node000002" class="node">
<title>Node2</title>
<g id="a_Node000002"><a xlink:href="$lexer_8h.html" xlink:title="BASIC benzeri dil için leksik analizci arabirimi.">
<polygon fill="white" stroke="#666666" points="88.75,-132 0,-132 0,-112 88.75,-112 88.75,-132"/>
<text xml:space="preserve" text-anchor="middle" x="44.38" y="-118.5" font-family="Helvetica,sans-Serif" font-size="10.00">translator/lexer.h</text>
</a>
</g>
</g>
<!-- Node1&#45;&gt;Node2 -->
<g id="edge13_Node000001_Node000002" class="edge">
<title>Node1&#45;&gt;Node2</title>
<g id="a_edge13_Node000001_Node000002"><a xlink:title=" ">
<path fill="none" stroke="#63b8ff" d="M79.06,-167.59C73.4,-160.32 65.39,-150.02 58.49,-141.15"/>
<polygon fill="#63b8ff" stroke="#63b8ff" points="61.44,-139.24 52.54,-133.49 55.91,-143.54 61.44,-139.24"/>
</a>
</g>
</g>
<!-- Node6 -->
<g id="Node000006" class="node">
<title>Node6</title>
<g id="a_Node000006"><a xlink:title=" ">
<polygon fill="#e0e0e0" stroke="#999999" points="152,-132 106.75,-132 106.75,-112 152,-112 152,-132"/>
<text xml:space="preserve" text-anchor="middle" x="129.38" y="-118.5" font-family="Helvetica,sans-Serif" font-size="10.00">cctype</text>
</a>
</g>
</g>
<!-- Node1&#45;&gt;Node6 -->
<g id="edge18_Node000001_Node000006" class="edge">
<title>Node1&#45;&gt;Node6</title>
<g id="a_edge18_Node000001_Node000006"><a xlink:title=" ">
<path fill="none" stroke="#63b8ff" d="M93.87,-167.59C99.66,-160.32 107.86,-150.02 114.92,-141.15"/>
<polygon fill="#63b8ff" stroke="#63b8ff" points="117.54,-143.49 121.03,-133.48 112.06,-139.12 117.54,-143.49"/>
</a>
</g>
</g>
<!-- Node3 -->
<g id="Node000003" class="node">
<title>Node3</title>
<g id="a_Node000003"><a xlink:title=" ">
<polygon fill="#e0e0e0" stroke="#999999" points="81.38,-20 41.38,-20 41.38,0 81.38,0 81.38,-20"/>
<text xml:space="preserve" text-anchor="middle" x="61.38" y="-6.5" font-family="Helvetica,sans-Serif" font-size="10.00">string</text>
</a>
</g>
</g>
<!-- Node2&#45;&gt;Node3 -->
<g id="edge14_Node000002_Node000003" class="edge">
<title>Node2&#45;&gt;Node3</title>
<g id="a_edge14_Node000002_Node000003"><a xlink:title=" ">
<path fill="none" stroke="#63b8ff" d="M34.62,-111.84C22.56,-99.34 4.63,-76.19 13.38,-56 18.35,-44.52 27.85,-34.63 37.09,-27.07"/>
<polygon fill="#63b8ff" stroke="#63b8ff" points="38.98,-30.03 44.87,-21.22 34.77,-24.43 38.98,-30.03"/>
</a>
</g>
</g>
<!-- Node4 -->
<g id="Node000004" class="node">
<title>Node4</title>
<g id="a_Node000004"><a xlink:title=" ">
<polygon fill="#e0e0e0" stroke="#999999" points="65.88,-76 22.88,-76 22.88,-56 65.88,-56 65.88,-76"/>
<text xml:space="preserve" text-anchor="middle" x="44.38" y="-62.5" font-family="Helvetica,sans-Serif" font-size="10.00">vector</text>
</a>
</g>
</g>
<!-- Node2&#45;&gt;Node4 -->
<g id="edge15_Node000002_Node000004" class="edge">
<title>Node2&#45;&gt;Node4</title>
<g id="a_edge15_Node000002_Node000004"><a xlink:title=" ">
<path fill="none" stroke="#63b8ff" d="M44.38,-111.59C44.38,-105.01 44.38,-95.96 44.38,-87.73"/>
<polygon fill="#63b8ff" stroke="#63b8ff" points="47.88,-87.81 44.38,-77.81 40.88,-87.81 47.88,-87.81"/>
</a>
</g>
</g>
<!-- Node5 -->
<g id="Node000005" class="node">
<title>Node5</title>
<g id="a_Node000005"><a xlink:href="$token_8h.html" xlink:title="Leksik belirteç türleri ve veri yapısı">
<polygon fill="white" stroke="#666666" points="175.25,-76 83.5,-76 83.5,-56 175.25,-56 175.25,-76"/>
<text xml:space="preserve" text-anchor="middle" x="129.38" y="-62.5" font-family="Helvetica,sans-Serif" font-size="10.00">translator/token.h</text>
</a>
</g>
</g>
<!-- Node2&#45;&gt;Node5 -->
<g id="edge16_Node000002_Node000005" class="edge">
<title>Node2&#45;&gt;Node5</title>
<g id="a_edge16_Node000002_Node000005"><a xlink:title=" ">
<path fill="none" stroke="#63b8ff" d="M59.18,-111.59C71.78,-103.59 90.13,-91.93 104.91,-82.54"/>
<polygon fill="#63b8ff" stroke="#63b8ff" points="106.61,-85.61 113.18,-77.29 102.86,-79.7 106.61,-85.61"/>
</a>
</g>
</g>
<!-- Node5&#45;&gt;Node3 -->
<g id="edge17_Node000005_Node000003" class="edge">
<title>Node5&#45;&gt;Node3</title>
<g id="a_edge17_Node000005_Node000003"><a xlink:title=" ">
<path fill="none" stroke="#63b8ff" d="M117.53,-55.59C107.68,-47.77 93.44,-36.46 81.77,-27.19"/>
<polygon fill="#63b8ff" stroke="#63b8ff" points="84.28,-24.72 74.27,-21.24 79.92,-30.2 84.28,-24.72"/>
</a>
</g>
</g>
</g>
</svg>
