<?xml version="1.0" encoding="UTF-8" standalone="no"?>
<!DOCTYPE svg PUBLIC "-//W3C//DTD SVG 1.1//EN"
 "http://www.w3.org/Graphics/SVG/1.1/DTD/svg11.dtd">
<!-- Generated by graphviz version 14.0.1 (20251006.0113)
 -->
<!-- Title: C:/Users/ahmet/OneDrive/Masaüstü/DataStructure/cen207&#45;2025&#45;2026&#45;5&#45;Mustafa&#45;Yildirimm&#45;cpp/src/utility/src/mathUtility.cpp Pages: 1 -->
<svg width="186pt" height="244pt"
 viewBox="0.00 0.00 186.00 244.00" xmlns="http://www.w3.org/2000/svg" xmlns:xlink="http://www.w3.org/1999/xlink">
<g id="graph0" class="graph" transform="scale(1 1) rotate(0) translate(4 240)">
<title>C:/Users/ahmet/OneDrive/Masaüstü/DataStructure/cen207&#45;2025&#45;2026&#45;5&#45;Mustafa&#45;Yildirimm&#45;cpp/src/utility/src/mathUtility.cpp</title>
<!-- Node1 -->
<g id="Node000001" class="node">
<title>Node1</title>
<g id="a_Node000001"><a xlink:title="Provides functions for math. utilities.">
<polygon fill="#999999" stroke="#666666" points="145,-236 0,-236 0,-168 145,-168 145,-236"/>
<text xml:space="preserve" text-anchor="start" x="8" y="-222.5" font-family="Helvetica,sans-Serif" font-size="10.00">C:/Users/ahmet/OneDrive</text>
<text xml:space="preserve" text-anchor="start" x="8" y="-210.5" font-family="Helvetica,sans-Serif" font-size="10.00">/Masaüstü/DataStructure</text>
<text xml:space="preserve" text-anchor="start" x="8" y="-198.5" font-family="Helvetica,sans-Serif" font-size="10.00">/cen207&#45;2025&#45;2026&#45;5&#45;Mustafa</text>
<text xml:space="preserve" text-anchor="start" x="8" y="-186.5" font-family="Helvetica,sans-Serif" font-size="10.00">&#45;Yildirimm&#45;cpp/src/utility</text>
<text xml:space="preserve" text-anchor="middle" x="72.5" y="-174.5" font-family="Helvetica,sans-Serif" font-size="10.00">/src/mathUtility.cpp</text>
</a>
</g>
</g>
<!-- Node2 -->
<g id="Node000002" class="node">
<title>Node2</title>
<g id="a_Node000002"><a xlink:title=" ">
<polygon fill="#e0e0e0" stroke="#999999" points="47.12,-132 1.88,-132 1.88,-112 47.12,-112 47.12,-132"/>
<text xml:space="preserve" text-anchor="middle" x="24.5" y="-118.5" font-family="Helvetica,sans-Serif" font-size="10.00">cstring</text>
</a>
</g>
</g>
<!-- Node1&#45;&gt;Node2 -->
<g id="edge9_Node000001_Node000002" class="edge">
<title>Node1&#45;&gt;Node2</title>
<g id="a_edge9_Node000001_Node000002"><a xlink:title=" ">
<path fill="none" stroke="#63b8ff" d="M52.14,-167.92C46.66,-159.01 40.92,-149.69 36.1,-141.85"/>
<polygon fill="#63b8ff" stroke="#63b8ff" points="39.22,-140.25 31,-133.57 33.26,-143.92 39.22,-140.25"/>
</a>
</g>
</g>
<!-- Node3 -->
<g id="Node000003" class="node">
<title>Node3</title>
<g id="a_Node000003"><a xlink:href="$math_utility_8h.html" xlink:title="Provides functions for math. utilities.">
<polygon fill="white" stroke="#666666" points="177.5,-132 65.5,-132 65.5,-112 177.5,-112 177.5,-132"/>
<text xml:space="preserve" text-anchor="middle" x="121.5" y="-118.5" font-family="Helvetica,sans-Serif" font-size="10.00">../header/mathUtility.h</text>
</a>
</g>
</g>
<!-- Node1&#45;&gt;Node3 -->
<g id="edge10_Node000001_Node000003" class="edge">
<title>Node1&#45;&gt;Node3</title>
<g id="a_edge10_Node000001_Node000003"><a xlink:title=" ">
<path fill="none" stroke="#63b8ff" d="M93.28,-167.92C98.88,-159.01 104.74,-149.69 109.66,-141.85"/>
<polygon fill="#63b8ff" stroke="#63b8ff" points="112.51,-143.89 114.87,-133.56 106.58,-140.17 112.51,-143.89"/>
</a>
</g>
</g>
<!-- Node4 -->
<g id="Node000004" class="node">
<title>Node4</title>
<g id="a_Node000004"><a xlink:href="$common_types_8h.html" xlink:title="Provides cross&#45;platform type definitions.">
<polygon fill="white" stroke="#666666" points="165.5,-76 77.5,-76 77.5,-56 165.5,-56 165.5,-76"/>
<text xml:space="preserve" text-anchor="middle" x="121.5" y="-62.5" font-family="Helvetica,sans-Serif" font-size="10.00">commonTypes.h</text>
</a>
</g>
</g>
<!-- Node3&#45;&gt;Node4 -->
<g id="edge11_Node000003_Node000004" class="edge">
<title>Node3&#45;&gt;Node4</title>
<g id="a_edge11_Node000003_Node000004"><a xlink:title=" ">
<path fill="none" stroke="#63b8ff" d="M121.5,-111.59C121.5,-105.01 121.5,-95.96 121.5,-87.73"/>
<polygon fill="#63b8ff" stroke="#63b8ff" points="125,-87.81 121.5,-77.81 118,-87.81 125,-87.81"/>
</a>
</g>
</g>
<!-- Node5 -->
<g id="Node000005" class="node">
<title>Node5</title>
<g id="a_Node000005"><a xlink:title=" ">
<polygon fill="#e0e0e0" stroke="#999999" points="150.88,-20 92.12,-20 92.12,0 150.88,0 150.88,-20"/>
<text xml:space="preserve" text-anchor="middle" x="121.5" y="-6.5" font-family="Helvetica,sans-Serif" font-size="10.00">stdexcept</text>
</a>
</g>
</g>
<!-- Node4&#45;&gt;Node5 -->
<g id="edge12_Node000004_Node000005" class="edge">
<title>Node4&#45;&gt;Node5</title>
<g id="a_edge12_Node000004_Node000005"><a xlink:title=" ">
<path fill="none" stroke="#63b8ff" d="M121.5,-55.59C121.5,-49.01 121.5,-39.96 121.5,-31.73"/>
<polygon fill="#63b8ff" stroke="#63b8ff" points="125,-31.81 121.5,-21.81 118,-31.81 125,-31.81"/>
</a>
</g>
</g>
</g>
</svg>
