<?xml version="1.0" encoding="UTF-8" standalone="no"?>
<!DOCTYPE svg PUBLIC "-//W3C//DTD SVG 1.1//EN"
 "http://www.w3.org/Graphics/SVG/1.1/DTD/svg11.dtd">
<!-- Generated by graphviz version 14.0.1 (20251006.0113)
 -->
<!-- Title: translator::BinaryExpr Pages: 1 -->
<svg width="111pt" height="196pt"
 viewBox="0.00 0.00 111.00 196.00" xmlns="http://www.w3.org/2000/svg" xmlns:xlink="http://www.w3.org/1999/xlink">
<g id="graph0" class="graph" transform="scale(1 1) rotate(0) translate(4 192)">
<title>translator::BinaryExpr</title>
<!-- Node1 -->
<g id="Node000001" class="node">
<title>Node1</title>
<g id="a_Node000001"><a xlink:title="İkili işlem ifadesi.">
<polygon fill="#999999" stroke="none" points="102.5,-100 0,-100 0,0 102.5,0 102.5,-100"/>
<text xml:space="preserve" text-anchor="start" x="4" y="-86.5" font-family="Helvetica,sans-Serif" font-size="10.00">translator::BinaryExpr</text>
<text xml:space="preserve" text-anchor="start" x="11.62" y="-70.5" font-family="Helvetica,sans-Serif" font-size="10.00">+</text>
<text xml:space="preserve" text-anchor="start" x="29.25" y="-70.5" font-family="Helvetica,sans-Serif" font-size="10.00">op</text>
<text xml:space="preserve" text-anchor="start" x="11.62" y="-54.5" font-family="Helvetica,sans-Serif" font-size="10.00">+</text>
<text xml:space="preserve" text-anchor="start" x="29.25" y="-54.5" font-family="Helvetica,sans-Serif" font-size="10.00">lhs</text>
<text xml:space="preserve" text-anchor="start" x="11.62" y="-38.5" font-family="Helvetica,sans-Serif" font-size="10.00">+</text>
<text xml:space="preserve" text-anchor="start" x="29.25" y="-38.5" font-family="Helvetica,sans-Serif" font-size="10.00">rhs</text>
<text xml:space="preserve" text-anchor="start" x="11.62" y="-22.5" font-family="Helvetica,sans-Serif" font-size="10.00">+</text>
<text xml:space="preserve" text-anchor="start" x="29.25" y="-22.5" font-family="Helvetica,sans-Serif" font-size="10.00">BinaryExpr()</text>
<text xml:space="preserve" text-anchor="start" x="11.62" y="-6.5" font-family="Helvetica,sans-Serif" font-size="10.00">+</text>
<text xml:space="preserve" text-anchor="start" x="29.25" y="-6.5" font-family="Helvetica,sans-Serif" font-size="10.00">kind()</text>
<polygon fill="#666666" stroke="#666666" points="0,-82 0,-82 102.5,-82 102.5,-82 0,-82"/>
<polygon fill="#666666" stroke="#666666" points="0,-34 0,-34 27.25,-34 27.25,-34 0,-34"/>
<polygon fill="#666666" stroke="#666666" points="27.25,-34 27.25,-34 102.5,-34 102.5,-34 27.25,-34"/>
<polygon fill="none" stroke="#666666" points="0,0 0,-100 102.5,-100 102.5,0 0,0"/>
</a>
</g>
</g>
<!-- Node2 -->
<g id="Node000002" class="node">
<title>Node2</title>
<g id="a_Node000002"><a xlink:href="$structtranslator_1_1_expr.html" xlink:title="Tüm ifade türleri için taban tür.">
<polygon fill="white" stroke="none" points="88.62,-188 13.88,-188 13.88,-136 88.62,-136 88.62,-188"/>
<text xml:space="preserve" text-anchor="start" x="17.88" y="-174.5" font-family="Helvetica,sans-Serif" font-size="10.00">translator::Expr</text>
<text xml:space="preserve" text-anchor="start" x="49.75" y="-158.5" font-family="Helvetica,sans-Serif" font-size="10.00"> </text>
<text xml:space="preserve" text-anchor="start" x="26.06" y="-142.5" font-family="Helvetica,sans-Serif" font-size="10.00">+</text>
<text xml:space="preserve" text-anchor="start" x="44.25" y="-142.5" font-family="Helvetica,sans-Serif" font-size="10.00">kind()</text>
<polygon fill="#666666" stroke="#666666" points="13.88,-170 13.88,-170 88.62,-170 88.62,-170 13.88,-170"/>
<polygon fill="#666666" stroke="#666666" points="13.88,-154 13.88,-154 88.62,-154 88.62,-154 13.88,-154"/>
<polygon fill="none" stroke="#666666" points="13.88,-136 13.88,-188 88.62,-188 88.62,-136 13.88,-136"/>
</a>
</g>
</g>
<!-- Node2&#45;&gt;Node1 -->
<g id="edge3_Node000001_Node000002" class="edge">
<title>Node2&#45;&gt;Node1</title>
<g id="a_edge3_Node000001_Node000002"><a xlink:title=" ">
<path fill="none" stroke="#63b8ff" d="M51.25,-124.53C51.25,-116.58 51.25,-108.05 51.25,-99.72"/>
<polygon fill="none" stroke="#63b8ff" points="47.75,-124.53 51.25,-134.53 54.75,-124.53 47.75,-124.53"/>
</a>
</g>
</g>
</g>
</svg>
