<?xml version="1.0" encoding="UTF-8" standalone="no"?>
<!DOCTYPE svg PUBLIC "-//W3C//DTD SVG 1.1//EN"
 "http://www.w3.org/Graphics/SVG/1.1/DTD/svg11.dtd">
<!-- Generated by graphviz version 14.0.1 (20251006.0113)
 -->
<!-- Title: translator::VariableExpr Pages: 1 -->
<svg width="117pt" height="180pt"
 viewBox="0.00 0.00 117.00 180.00" xmlns="http://www.w3.org/2000/svg" xmlns:xlink="http://www.w3.org/1999/xlink">
<g id="graph0" class="graph" transform="scale(1 1) rotate(0) translate(4 176)">
<title>translator::VariableExpr</title>
<!-- Node1 -->
<g id="Node000001" class="node">
<title>Node1</title>
<g id="a_Node000001"><a xlink:title=" ">
<polygon fill="#999999" stroke="none" points="109.25,-68 0,-68 0,0 109.25,0 109.25,-68"/>
<text xml:space="preserve" text-anchor="start" x="4" y="-54.5" font-family="Helvetica,sans-Serif" font-size="10.00">translator::VariableExpr</text>
<text xml:space="preserve" text-anchor="start" x="11.62" y="-38.5" font-family="Helvetica,sans-Serif" font-size="10.00">+</text>
<text xml:space="preserve" text-anchor="start" x="29.25" y="-38.5" font-family="Helvetica,sans-Serif" font-size="10.00">name</text>
<text xml:space="preserve" text-anchor="start" x="11.62" y="-22.5" font-family="Helvetica,sans-Serif" font-size="10.00">+</text>
<text xml:space="preserve" text-anchor="start" x="29.25" y="-22.5" font-family="Helvetica,sans-Serif" font-size="10.00">VariableExpr()</text>
<text xml:space="preserve" text-anchor="start" x="11.62" y="-6.5" font-family="Helvetica,sans-Serif" font-size="10.00">+</text>
<text xml:space="preserve" text-anchor="start" x="29.25" y="-6.5" font-family="Helvetica,sans-Serif" font-size="10.00">kind()</text>
<polygon fill="#666666" stroke="#666666" points="0,-50 0,-50 109.25,-50 109.25,-50 0,-50"/>
<polygon fill="#666666" stroke="#666666" points="0,-34 0,-34 27.25,-34 27.25,-34 0,-34"/>
<polygon fill="#666666" stroke="#666666" points="27.25,-34 27.25,-34 109.25,-34 109.25,-34 27.25,-34"/>
<polygon fill="none" stroke="#666666" points="0,0 0,-68 109.25,-68 109.25,0 0,0"/>
</a>
</g>
</g>
<!-- Node2 -->
<g id="Node000002" class="node">
<title>Node2</title>
<g id="a_Node000002"><a xlink:href="$structtranslator_1_1_expr.html" xlink:title=" ">
<polygon fill="white" stroke="none" points="92,-172 17.25,-172 17.25,-104 92,-104 92,-172"/>
<text xml:space="preserve" text-anchor="start" x="21.25" y="-158.5" font-family="Helvetica,sans-Serif" font-size="10.00">translator::Expr</text>
<text xml:space="preserve" text-anchor="start" x="53.12" y="-142.5" font-family="Helvetica,sans-Serif" font-size="10.00"> </text>
<text xml:space="preserve" text-anchor="start" x="27.38" y="-126.5" font-family="Helvetica,sans-Serif" font-size="10.00">+</text>
<text xml:space="preserve" text-anchor="start" x="43.5" y="-126.5" font-family="Helvetica,sans-Serif" font-size="10.00">~Expr()</text>
<text xml:space="preserve" text-anchor="start" x="27.38" y="-110.5" font-family="Helvetica,sans-Serif" font-size="10.00">+</text>
<text xml:space="preserve" text-anchor="start" x="43.5" y="-110.5" font-family="Helvetica,sans-Serif" font-size="10.00">kind()</text>
<polygon fill="#666666" stroke="#666666" points="17.25,-154 17.25,-154 92,-154 92,-154 17.25,-154"/>
<polygon fill="#666666" stroke="#666666" points="17.25,-138 17.25,-138 92,-138 92,-138 17.25,-138"/>
<polygon fill="none" stroke="#666666" points="17.25,-104 17.25,-172 92,-172 92,-104 17.25,-104"/>
</a>
</g>
</g>
<!-- Node2&#45;&gt;Node1 -->
<g id="edge3_Node000001_Node000002" class="edge">
<title>Node2&#45;&gt;Node1</title>
<g id="a_edge3_Node000001_Node000002"><a xlink:title=" ">
<path fill="none" stroke="#63b8ff" d="M54.62,-92.91C54.62,-84.47 54.62,-75.78 54.62,-67.77"/>
<polygon fill="none" stroke="#63b8ff" points="51.13,-92.65 54.63,-102.65 58.13,-92.65 51.13,-92.65"/>
</a>
</g>
</g>
</g>
</svg>
