<?xml version="1.0" encoding="UTF-8" standalone="no"?>
<!DOCTYPE svg PUBLIC "-//W3C//DTD SVG 1.1//EN"
 "http://www.w3.org/Graphics/SVG/1.1/DTD/svg11.dtd">
<!-- Generated by graphviz version 14.0.1 (20251006.0113)
 -->
<!-- Title: ds::Queue&lt; T &gt;::Node Pages: 1 -->
<svg width="162pt" height="166pt"
 viewBox="0.00 0.00 162.00 166.00" xmlns="http://www.w3.org/2000/svg" xmlns:xlink="http://www.w3.org/1999/xlink">
<g id="graph0" class="graph" transform="scale(1 1) rotate(0) translate(4 162)">
<title>ds::Queue&lt; T &gt;::Node</title>
<!-- Node1 -->
<g id="Node000001" class="node">
<title>Node1</title>
<g id="a_Node000001"><a xlink:title=" ">
<polygon fill="#999999" stroke="none" points="105.5,-52 0,-52 0,0 105.5,0 105.5,-52"/>
<text xml:space="preserve" text-anchor="start" x="4" y="-38.5" font-family="Helvetica,sans-Serif" font-size="10.00">ds::Queue&lt; T &gt;::Node</text>
<text xml:space="preserve" text-anchor="start" x="18.56" y="-22.5" font-family="Helvetica,sans-Serif" font-size="10.00">+</text>
<text xml:space="preserve" text-anchor="start" x="43.12" y="-22.5" font-family="Helvetica,sans-Serif" font-size="10.00">v</text>
<text xml:space="preserve" text-anchor="start" x="18.56" y="-6.5" font-family="Helvetica,sans-Serif" font-size="10.00">+</text>
<text xml:space="preserve" text-anchor="start" x="43.12" y="-6.5" font-family="Helvetica,sans-Serif" font-size="10.00">Node()</text>
<polygon fill="#666666" stroke="#666666" points="0,-34 0,-34 105.5,-34 105.5,-34 0,-34"/>
<polygon fill="#666666" stroke="#666666" points="0,-18 0,-18 41.12,-18 41.12,-18 0,-18"/>
<polygon fill="#666666" stroke="#666666" points="41.12,-18 41.12,-18 105.5,-18 105.5,-18 41.12,-18"/>
<polygon fill="none" stroke="#666666" points="0,0 0,-52 105.5,-52 105.5,0 0,0"/>
</a>
</g>
</g>
<!-- Node2 -->
<g id="Node000002" class="node">
<title>Node2</title>
<g id="a_Node000002"><a xlink:href="$structds_1_1_queue_1_1_node.html" xlink:title=" ">
<polygon fill="white" stroke="none" points="105.5,-158 0,-158 0,-106 105.5,-106 105.5,-158"/>
<text xml:space="preserve" text-anchor="start" x="4" y="-144.5" font-family="Helvetica,sans-Serif" font-size="10.00">ds::Queue&lt; T &gt;::Node</text>
<text xml:space="preserve" text-anchor="start" x="18.56" y="-128.5" font-family="Helvetica,sans-Serif" font-size="10.00">+</text>
<text xml:space="preserve" text-anchor="start" x="43.12" y="-128.5" font-family="Helvetica,sans-Serif" font-size="10.00">v</text>
<text xml:space="preserve" text-anchor="start" x="18.56" y="-112.5" font-family="Helvetica,sans-Serif" font-size="10.00">+</text>
<text xml:space="preserve" text-anchor="start" x="43.12" y="-112.5" font-family="Helvetica,sans-Serif" font-size="10.00">Node()</text>
<polygon fill="#666666" stroke="#666666" points="0,-140 0,-140 105.5,-140 105.5,-140 0,-140"/>
<polygon fill="#666666" stroke="#666666" points="0,-124 0,-124 41.12,-124 41.12,-124 0,-124"/>
<polygon fill="#666666" stroke="#666666" points="41.12,-124 41.12,-124 105.5,-124 105.5,-124 41.12,-124"/>
<polygon fill="none" stroke="#666666" points="0,-106 0,-158 105.5,-158 105.5,-106 0,-106"/>
</a>
</g>
</g>
<!-- Node2&#45;&gt;Node1 -->
<g id="edge5_Node000001_Node000002" class="edge">
<title>Node2&#45;&gt;Node1</title>
<g id="a_edge5_Node000001_Node000002"><a xlink:title=" ">
<path fill="none" stroke="#63b8ff" d="M52.75,-106.09C52.75,-93.61 52.75,-78.25 52.75,-64.39"/>
<polygon fill="none" stroke="#63b8ff" points="52.75,-64.61 48.75,-58.61 52.75,-52.61 56.75,-58.61 52.75,-64.61"/>
</a>
</g>
<text xml:space="preserve" text-anchor="start" x="55.75" y="-75.5" font-family="Helvetica,sans-Serif" font-size="10.00" fill="grey">+next</text>
</g>
<!-- Node2&#45;&gt;Node2 -->
<g id="edge6_Node000002_Node000002" class="edge">
<title>Node2&#45;&gt;Node2</title>
<g id="a_edge6_Node000002_Node000002"><a xlink:title=" ">
<path fill="none" stroke="#63b8ff" d="M105.2,-141.56C115.86,-140.52 123.5,-137.33 123.5,-132 123.5,-129.17 121.35,-126.94 117.73,-125.32"/>
<polygon fill="none" stroke="#63b8ff" points="117.78,-125.33 111.03,-127.89 106.08,-122.64 112.82,-120.09 117.78,-125.33"/>
</a>
</g>
<text xml:space="preserve" text-anchor="start" x="126.5" y="-128.5" font-family="Helvetica,sans-Serif" font-size="10.00" fill="grey">+next</text>
</g>
</g>
</svg>
