<?xml version="1.0" encoding="UTF-8" standalone="no"?>
<!DOCTYPE svg PUBLIC "-//W3C//DTD SVG 1.1//EN"
 "http://www.w3.org/Graphics/SVG/1.1/DTD/svg11.dtd">
<!-- Generated by graphviz version 14.0.1 (20251006.0113)
 -->
<!-- Title: translator::LetStmt Pages: 1 -->
<svg width="97pt" height="180pt"
 viewBox="0.00 0.00 97.00 180.00" xmlns="http://www.w3.org/2000/svg" xmlns:xlink="http://www.w3.org/1999/xlink">
<g id="graph0" class="graph" transform="scale(1 1) rotate(0) translate(4 176)">
<title>translator::LetStmt</title>
<!-- Node1 -->
<g id="Node000001" class="node">
<title>Node1</title>
<g id="a_Node000001"><a xlink:title="LET atama deyimi.">
<polygon fill="#999999" stroke="none" points="89,-84 0,-84 0,0 89,0 89,-84"/>
<text xml:space="preserve" text-anchor="start" x="4" y="-70.5" font-family="Helvetica,sans-Serif" font-size="10.00">translator::LetStmt</text>
<text xml:space="preserve" text-anchor="start" x="11.62" y="-54.5" font-family="Helvetica,sans-Serif" font-size="10.00">+</text>
<text xml:space="preserve" text-anchor="start" x="29.25" y="-54.5" font-family="Helvetica,sans-Serif" font-size="10.00">name</text>
<text xml:space="preserve" text-anchor="start" x="11.62" y="-38.5" font-family="Helvetica,sans-Serif" font-size="10.00">+</text>
<text xml:space="preserve" text-anchor="start" x="29.25" y="-38.5" font-family="Helvetica,sans-Serif" font-size="10.00">expr</text>
<text xml:space="preserve" text-anchor="start" x="11.62" y="-22.5" font-family="Helvetica,sans-Serif" font-size="10.00">+</text>
<text xml:space="preserve" text-anchor="start" x="29.25" y="-22.5" font-family="Helvetica,sans-Serif" font-size="10.00">LetStmt()</text>
<text xml:space="preserve" text-anchor="start" x="11.62" y="-6.5" font-family="Helvetica,sans-Serif" font-size="10.00">+</text>
<text xml:space="preserve" text-anchor="start" x="29.25" y="-6.5" font-family="Helvetica,sans-Serif" font-size="10.00">kind()</text>
<polygon fill="#666666" stroke="#666666" points="0,-66 0,-66 89,-66 89,-66 0,-66"/>
<polygon fill="#666666" stroke="#666666" points="0,-34 0,-34 27.25,-34 27.25,-34 0,-34"/>
<polygon fill="#666666" stroke="#666666" points="27.25,-34 27.25,-34 89,-34 89,-34 27.25,-34"/>
<polygon fill="none" stroke="#666666" points="0,0 0,-84 89,-84 89,0 0,0"/>
</a>
</g>
</g>
<!-- Node2 -->
<g id="Node000002" class="node">
<title>Node2</title>
<g id="a_Node000002"><a xlink:href="$structtranslator_1_1_stmt.html" xlink:title="Tüm deyimler için taban tür.">
<polygon fill="white" stroke="none" points="82.25,-172 6.75,-172 6.75,-120 82.25,-120 82.25,-172"/>
<text xml:space="preserve" text-anchor="start" x="10.75" y="-158.5" font-family="Helvetica,sans-Serif" font-size="10.00">translator::Stmt</text>
<text xml:space="preserve" text-anchor="start" x="43" y="-142.5" font-family="Helvetica,sans-Serif" font-size="10.00"> </text>
<text xml:space="preserve" text-anchor="start" x="19.12" y="-126.5" font-family="Helvetica,sans-Serif" font-size="10.00">+</text>
<text xml:space="preserve" text-anchor="start" x="37.5" y="-126.5" font-family="Helvetica,sans-Serif" font-size="10.00">kind()</text>
<polygon fill="#666666" stroke="#666666" points="6.75,-154 6.75,-154 82.25,-154 82.25,-154 6.75,-154"/>
<polygon fill="#666666" stroke="#666666" points="6.75,-138 6.75,-138 82.25,-138 82.25,-138 6.75,-138"/>
<polygon fill="none" stroke="#666666" points="6.75,-120 6.75,-172 82.25,-172 82.25,-120 6.75,-120"/>
</a>
</g>
</g>
<!-- Node2&#45;&gt;Node1 -->
<g id="edge3_Node000001_Node000002" class="edge">
<title>Node2&#45;&gt;Node1</title>
<g id="a_edge3_Node000001_Node000002"><a xlink:title=" ">
<path fill="none" stroke="#63b8ff" d="M44.5,-108.77C44.5,-100.75 44.5,-92.19 44.5,-83.99"/>
<polygon fill="none" stroke="#63b8ff" points="41,-108.53 44.5,-118.53 48,-108.53 41,-108.53"/>
</a>
</g>
</g>
</g>
</svg>
