<?xml version="1.0" encoding="UTF-8" standalone="no"?>
<!DOCTYPE svg PUBLIC "-//W3C//DTD SVG 1.1//EN"
 "http://www.w3.org/Graphics/SVG/1.1/DTD/svg11.dtd">
<!-- Generated by graphviz version 14.0.1 (20251006.0113)
 -->
<!-- Title: translator::InputStmt Pages: 1 -->
<svg width="105pt" height="164pt"
 viewBox="0.00 0.00 105.00 164.00" xmlns="http://www.w3.org/2000/svg" xmlns:xlink="http://www.w3.org/1999/xlink">
<g id="graph0" class="graph" transform="scale(1 1) rotate(0) translate(4 160)">
<title>translator::InputStmt</title>
<!-- Node1 -->
<g id="Node000001" class="node">
<title>Node1</title>
<g id="a_Node000001"><a xlink:title="INPUT deyimi.">
<polygon fill="#999999" stroke="none" points="97.25,-68 0,-68 0,0 97.25,0 97.25,-68"/>
<text xml:space="preserve" text-anchor="start" x="4" y="-54.5" font-family="Helvetica,sans-Serif" font-size="10.00">translator::InputStmt</text>
<text xml:space="preserve" text-anchor="start" x="11.62" y="-38.5" font-family="Helvetica,sans-Serif" font-size="10.00">+</text>
<text xml:space="preserve" text-anchor="start" x="29.25" y="-38.5" font-family="Helvetica,sans-Serif" font-size="10.00">name</text>
<text xml:space="preserve" text-anchor="start" x="11.62" y="-22.5" font-family="Helvetica,sans-Serif" font-size="10.00">+</text>
<text xml:space="preserve" text-anchor="start" x="29.25" y="-22.5" font-family="Helvetica,sans-Serif" font-size="10.00">InputStmt()</text>
<text xml:space="preserve" text-anchor="start" x="11.62" y="-6.5" font-family="Helvetica,sans-Serif" font-size="10.00">+</text>
<text xml:space="preserve" text-anchor="start" x="29.25" y="-6.5" font-family="Helvetica,sans-Serif" font-size="10.00">kind()</text>
<polygon fill="#666666" stroke="#666666" points="0,-50 0,-50 97.25,-50 97.25,-50 0,-50"/>
<polygon fill="#666666" stroke="#666666" points="0,-34 0,-34 27.25,-34 27.25,-34 0,-34"/>
<polygon fill="#666666" stroke="#666666" points="27.25,-34 27.25,-34 97.25,-34 97.25,-34 27.25,-34"/>
<polygon fill="none" stroke="#666666" points="0,0 0,-68 97.25,-68 97.25,0 0,0"/>
</a>
</g>
</g>
<!-- Node2 -->
<g id="Node000002" class="node">
<title>Node2</title>
<g id="a_Node000002"><a xlink:href="$structtranslator_1_1_stmt.html" xlink:title="Tüm deyimler için taban tür.">
<polygon fill="white" stroke="none" points="86.38,-156 10.88,-156 10.88,-104 86.38,-104 86.38,-156"/>
<text xml:space="preserve" text-anchor="start" x="14.88" y="-142.5" font-family="Helvetica,sans-Serif" font-size="10.00">translator::Stmt</text>
<text xml:space="preserve" text-anchor="start" x="47.12" y="-126.5" font-family="Helvetica,sans-Serif" font-size="10.00"> </text>
<text xml:space="preserve" text-anchor="start" x="23.25" y="-110.5" font-family="Helvetica,sans-Serif" font-size="10.00">+</text>
<text xml:space="preserve" text-anchor="start" x="41.62" y="-110.5" font-family="Helvetica,sans-Serif" font-size="10.00">kind()</text>
<polygon fill="#666666" stroke="#666666" points="10.88,-138 10.88,-138 86.38,-138 86.38,-138 10.88,-138"/>
<polygon fill="#666666" stroke="#666666" points="10.88,-122 10.88,-122 86.38,-122 86.38,-122 10.88,-122"/>
<polygon fill="none" stroke="#666666" points="10.88,-104 10.88,-156 86.38,-156 86.38,-104 10.88,-104"/>
</a>
</g>
</g>
<!-- Node2&#45;&gt;Node1 -->
<g id="edge3_Node000001_Node000002" class="edge">
<title>Node2&#45;&gt;Node1</title>
<g id="a_edge3_Node000001_Node000002"><a xlink:title=" ">
<path fill="none" stroke="#63b8ff" d="M48.62,-92.97C48.62,-84.65 48.62,-75.84 48.62,-67.67"/>
<polygon fill="none" stroke="#63b8ff" points="45.13,-92.79 48.63,-102.79 52.13,-92.79 45.13,-92.79"/>
</a>
</g>
</g>
</g>
</svg>
