<?xml version="1.0" encoding="UTF-8" standalone="no"?>
<!DOCTYPE svg PUBLIC "-//W3C//DTD SVG 1.1//EN"
 "http://www.w3.org/Graphics/SVG/1.1/DTD/svg11.dtd">
<!-- Generated by graphviz version 14.0.1 (20251006.0113)
 -->
<!-- Title: translator::ReturnStmt Pages: 1 -->
<svg width="113pt" height="164pt"
 viewBox="0.00 0.00 113.00 164.00" xmlns="http://www.w3.org/2000/svg" xmlns:xlink="http://www.w3.org/1999/xlink">
<g id="graph0" class="graph" transform="scale(1 1) rotate(0) translate(4 160)">
<title>translator::ReturnStmt</title>
<!-- Node1 -->
<g id="Node000001" class="node">
<title>Node1</title>
<g id="a_Node000001"><a xlink:title=" ">
<polygon fill="#999999" stroke="none" points="104.75,-52 0,-52 0,0 104.75,0 104.75,-52"/>
<text xml:space="preserve" text-anchor="start" x="4" y="-38.5" font-family="Helvetica,sans-Serif" font-size="10.00">translator::ReturnStmt</text>
<text xml:space="preserve" text-anchor="start" x="50.88" y="-22.5" font-family="Helvetica,sans-Serif" font-size="10.00"> </text>
<text xml:space="preserve" text-anchor="start" x="19.69" y="-6.5" font-family="Helvetica,sans-Serif" font-size="10.00">+</text>
<text xml:space="preserve" text-anchor="start" x="45.38" y="-6.5" font-family="Helvetica,sans-Serif" font-size="10.00">kind()</text>
<polygon fill="#666666" stroke="#666666" points="0,-34 0,-34 104.75,-34 104.75,-34 0,-34"/>
<polygon fill="#666666" stroke="#666666" points="0,-18 0,-18 104.75,-18 104.75,-18 0,-18"/>
<polygon fill="none" stroke="#666666" points="0,0 0,-52 104.75,-52 104.75,0 0,0"/>
</a>
</g>
</g>
<!-- Node2 -->
<g id="Node000002" class="node">
<title>Node2</title>
<g id="a_Node000002"><a xlink:href="$structtranslator_1_1_stmt.html" xlink:title=" ">
<polygon fill="white" stroke="none" points="90.12,-156 14.62,-156 14.62,-88 90.12,-88 90.12,-156"/>
<text xml:space="preserve" text-anchor="start" x="18.62" y="-142.5" font-family="Helvetica,sans-Serif" font-size="10.00">translator::Stmt</text>
<text xml:space="preserve" text-anchor="start" x="50.88" y="-126.5" font-family="Helvetica,sans-Serif" font-size="10.00"> </text>
<text xml:space="preserve" text-anchor="start" x="24.75" y="-110.5" font-family="Helvetica,sans-Serif" font-size="10.00">+</text>
<text xml:space="preserve" text-anchor="start" x="40.88" y="-110.5" font-family="Helvetica,sans-Serif" font-size="10.00">~Stmt()</text>
<text xml:space="preserve" text-anchor="start" x="24.75" y="-94.5" font-family="Helvetica,sans-Serif" font-size="10.00">+</text>
<text xml:space="preserve" text-anchor="start" x="40.88" y="-94.5" font-family="Helvetica,sans-Serif" font-size="10.00">kind()</text>
<polygon fill="#666666" stroke="#666666" points="14.62,-138 14.62,-138 90.12,-138 90.12,-138 14.62,-138"/>
<polygon fill="#666666" stroke="#666666" points="14.62,-122 14.62,-122 90.12,-122 90.12,-122 14.62,-122"/>
<polygon fill="none" stroke="#666666" points="14.62,-88 14.62,-156 90.12,-156 90.12,-88 14.62,-88"/>
</a>
</g>
</g>
<!-- Node2&#45;&gt;Node1 -->
<g id="edge3_Node000001_Node000002" class="edge">
<title>Node2&#45;&gt;Node1</title>
<g id="a_edge3_Node000001_Node000002"><a xlink:title=" ">
<path fill="none" stroke="#63b8ff" d="M52.38,-76.62C52.38,-68.05 52.38,-59.37 52.38,-51.71"/>
<polygon fill="none" stroke="#63b8ff" points="48.88,-76.61 52.38,-86.61 55.88,-76.61 48.88,-76.61"/>
</a>
</g>
</g>
</g>
</svg>
