<?xml version="1.0" encoding="UTF-8" standalone="no"?>
<!DOCTYPE svg PUBLIC "-//W3C//DTD SVG 1.1//EN"
 "http://www.w3.org/Graphics/SVG/1.1/DTD/svg11.dtd">
<!-- Generated by graphviz version 14.0.1 (20251006.0113)
 -->
<!-- Title: translator::Expr Pages: 1 -->
<svg width="365pt" height="196pt"
 viewBox="0.00 0.00 365.00 196.00" xmlns="http://www.w3.org/2000/svg" xmlns:xlink="http://www.w3.org/1999/xlink">
<g id="graph0" class="graph" transform="scale(1 1) rotate(0) translate(4 192)">
<title>translator::Expr</title>
<!-- Node1 -->
<g id="Node000001" class="node">
<title>Node1</title>
<g id="a_Node000001"><a xlink:title="Tüm ifade türleri için taban tür.">
<polygon fill="#999999" stroke="none" points="212.62,-188 137.88,-188 137.88,-136 212.62,-136 212.62,-188"/>
<text xml:space="preserve" text-anchor="start" x="141.88" y="-174.5" font-family="Helvetica,sans-Serif" font-size="10.00">translator::Expr</text>
<text xml:space="preserve" text-anchor="start" x="173.75" y="-158.5" font-family="Helvetica,sans-Serif" font-size="10.00"> </text>
<text xml:space="preserve" text-anchor="start" x="150.06" y="-142.5" font-family="Helvetica,sans-Serif" font-size="10.00">+</text>
<text xml:space="preserve" text-anchor="start" x="168.25" y="-142.5" font-family="Helvetica,sans-Serif" font-size="10.00">kind()</text>
<polygon fill="#666666" stroke="#666666" points="137.88,-170 137.88,-170 212.62,-170 212.62,-170 137.88,-170"/>
<polygon fill="#666666" stroke="#666666" points="137.88,-154 137.88,-154 212.62,-154 212.62,-154 137.88,-154"/>
<polygon fill="none" stroke="#666666" points="137.88,-136 137.88,-188 212.62,-188 212.62,-136 137.88,-136"/>
</a>
</g>
</g>
<!-- Node2 -->
<g id="Node000002" class="node">
<title>Node2</title>
<g id="a_Node000002"><a xlink:href="$structtranslator_1_1_binary_expr.html" xlink:title="İkili işlem ifadesi.">
<polygon fill="white" stroke="none" points="102.5,-100 0,-100 0,0 102.5,0 102.5,-100"/>
<text xml:space="preserve" text-anchor="start" x="4" y="-86.5" font-family="Helvetica,sans-Serif" font-size="10.00">translator::BinaryExpr</text>
<text xml:space="preserve" text-anchor="start" x="11.62" y="-70.5" font-family="Helvetica,sans-Serif" font-size="10.00">+</text>
<text xml:space="preserve" text-anchor="start" x="29.25" y="-70.5" font-family="Helvetica,sans-Serif" font-size="10.00">op</text>
<text xml:space="preserve" text-anchor="start" x="11.62" y="-54.5" font-family="Helvetica,sans-Serif" font-size="10.00">+</text>
<text xml:space="preserve" text-anchor="start" x="29.25" y="-54.5" font-family="Helvetica,sans-Serif" font-size="10.00">lhs</text>
<text xml:space="preserve" text-anchor="start" x="11.62" y="-38.5" font-family="Helvetica,sans-Serif" font-size="10.00">+</text>
<text xml:space="preserve" text-anchor="start" x="29.25" y="-38.5" font-family="Helvetica,sans-Serif" font-size="10.00">rhs</text>
<text xml:space="preserve" text-anchor="start" x="11.62" y="-22.5" font-family="Helvetica,sans-Serif" font-size="10.00">+</text>
<text xml:space="preserve" text-anchor="start" x="29.25" y="-22.5" font-family="Helvetica,sans-Serif" font-size="10.00">BinaryExpr()</text>
<text xml:space="preserve" text-anchor="start" x="11.62" y="-6.5" font-family="Helvetica,sans-Serif" font-size="10.00">+</text>
<text xml:space="preserve" text-anchor="start" x="29.25" y="-6.5" font-family="Helvetica,sans-Serif" font-size="10.00">kind()</text>
<polygon fill="#666666" stroke="#666666" points="0,-82 0,-82 102.5,-82 102.5,-82 0,-82"/>
<polygon fill="#666666" stroke="#666666" points="0,-34 0,-34 27.25,-34 27.25,-34 0,-34"/>
<polygon fill="#666666" stroke="#666666" points="27.25,-34 27.25,-34 102.5,-34 102.5,-34 27.25,-34"/>
<polygon fill="none" stroke="#666666" points="0,0 0,-100 102.5,-100 102.5,0 0,0"/>
</a>
</g>
</g>
<!-- Node1&#45;&gt;Node2 -->
<g id="edge7_Node000001_Node000002" class="edge">
<title>Node1&#45;&gt;Node2</title>
<g id="a_edge7_Node000001_Node000002"><a xlink:title=" ">
<path fill="none" stroke="#63b8ff" d="M138.68,-128.56C127.24,-118.41 114.42,-107.04 102.19,-96.19"/>
<polygon fill="none" stroke="#63b8ff" points="136.18,-131.02 145.98,-135.03 140.82,-125.78 136.18,-131.02"/>
</a>
</g>
</g>
<!-- Node3 -->
<g id="Node000003" class="node">
<title>Node3</title>
<g id="a_Node000003"><a xlink:href="$structtranslator_1_1_number_expr.html" xlink:title="Sayısal sabit ifadesi.">
<polygon fill="white" stroke="none" points="229.88,-84 120.62,-84 120.62,-16 229.88,-16 229.88,-84"/>
<text xml:space="preserve" text-anchor="start" x="124.62" y="-70.5" font-family="Helvetica,sans-Serif" font-size="10.00">translator::NumberExpr</text>
<text xml:space="preserve" text-anchor="start" x="132.25" y="-54.5" font-family="Helvetica,sans-Serif" font-size="10.00">+</text>
<text xml:space="preserve" text-anchor="start" x="149.88" y="-54.5" font-family="Helvetica,sans-Serif" font-size="10.00">value</text>
<text xml:space="preserve" text-anchor="start" x="132.25" y="-38.5" font-family="Helvetica,sans-Serif" font-size="10.00">+</text>
<text xml:space="preserve" text-anchor="start" x="149.88" y="-38.5" font-family="Helvetica,sans-Serif" font-size="10.00">NumberExpr()</text>
<text xml:space="preserve" text-anchor="start" x="132.25" y="-22.5" font-family="Helvetica,sans-Serif" font-size="10.00">+</text>
<text xml:space="preserve" text-anchor="start" x="149.88" y="-22.5" font-family="Helvetica,sans-Serif" font-size="10.00">kind()</text>
<polygon fill="#666666" stroke="#666666" points="120.62,-66 120.62,-66 229.88,-66 229.88,-66 120.62,-66"/>
<polygon fill="#666666" stroke="#666666" points="120.62,-50 120.62,-50 147.88,-50 147.88,-50 120.62,-50"/>
<polygon fill="#666666" stroke="#666666" points="147.88,-50 147.88,-50 229.88,-50 229.88,-50 147.88,-50"/>
<polygon fill="none" stroke="#666666" points="120.62,-16 120.62,-84 229.88,-84 229.88,-16 120.62,-16"/>
</a>
</g>
</g>
<!-- Node1&#45;&gt;Node3 -->
<g id="edge8_Node000001_Node000003" class="edge">
<title>Node1&#45;&gt;Node3</title>
<g id="a_edge8_Node000001_Node000003"><a xlink:title=" ">
<path fill="none" stroke="#63b8ff" d="M175.25,-124.91C175.25,-111.66 175.25,-96.74 175.25,-83.79"/>
<polygon fill="none" stroke="#63b8ff" points="171.75,-124.53 175.25,-134.53 178.75,-124.53 171.75,-124.53"/>
</a>
</g>
</g>
<!-- Node4 -->
<g id="Node000004" class="node">
<title>Node4</title>
<g id="a_Node000004"><a xlink:href="$structtranslator_1_1_variable_expr.html" xlink:title="Değişken ifadesi.">
<polygon fill="white" stroke="none" points="356.88,-84 247.62,-84 247.62,-16 356.88,-16 356.88,-84"/>
<text xml:space="preserve" text-anchor="start" x="251.62" y="-70.5" font-family="Helvetica,sans-Serif" font-size="10.00">translator::VariableExpr</text>
<text xml:space="preserve" text-anchor="start" x="259.25" y="-54.5" font-family="Helvetica,sans-Serif" font-size="10.00">+</text>
<text xml:space="preserve" text-anchor="start" x="276.88" y="-54.5" font-family="Helvetica,sans-Serif" font-size="10.00">name</text>
<text xml:space="preserve" text-anchor="start" x="259.25" y="-38.5" font-family="Helvetica,sans-Serif" font-size="10.00">+</text>
<text xml:space="preserve" text-anchor="start" x="276.88" y="-38.5" font-family="Helvetica,sans-Serif" font-size="10.00">VariableExpr()</text>
<text xml:space="preserve" text-anchor="start" x="259.25" y="-22.5" font-family="Helvetica,sans-Serif" font-size="10.00">+</text>
<text xml:space="preserve" text-anchor="start" x="276.88" y="-22.5" font-family="Helvetica,sans-Serif" font-size="10.00">kind()</text>
<polygon fill="#666666" stroke="#666666" points="247.62,-66 247.62,-66 356.88,-66 356.88,-66 247.62,-66"/>
<polygon fill="#666666" stroke="#666666" points="247.62,-50 247.62,-50 274.88,-50 274.88,-50 247.62,-50"/>
<polygon fill="#666666" stroke="#666666" points="274.88,-50 274.88,-50 356.88,-50 356.88,-50 274.88,-50"/>
<polygon fill="none" stroke="#666666" points="247.62,-16 247.62,-84 356.88,-84 356.88,-16 247.62,-16"/>
</a>
</g>
</g>
<!-- Node1&#45;&gt;Node4 -->
<g id="edge9_Node000001_Node000004" class="edge">
<title>Node1&#45;&gt;Node4</title>
<g id="a_edge9_Node000001_Node000004"><a xlink:title=" ">
<path fill="none" stroke="#63b8ff" d="M212.34,-128.88C228.71,-114.7 247.93,-98.05 264.39,-83.79"/>
<polygon fill="none" stroke="#63b8ff" points="210.48,-125.86 205.21,-135.05 215.06,-131.15 210.48,-125.86"/>
</a>
</g>
</g>
</g>
</svg>
