<?xml version="1.0" encoding="UTF-8" standalone="no"?>
<!DOCTYPE svg PUBLIC "-//W3C//DTD SVG 1.1//EN"
 "http://www.w3.org/Graphics/SVG/1.1/DTD/svg11.dtd">
<!-- Generated by graphviz version 14.0.1 (20251006.0113)
 -->
<!-- Title: translator::Expr Pages: 1 -->
<svg width="365pt" height="212pt"
 viewBox="0.00 0.00 365.00 212.00" xmlns="http://www.w3.org/2000/svg" xmlns:xlink="http://www.w3.org/1999/xlink">
<g id="graph0" class="graph" transform="scale(1 1) rotate(0) translate(4 208)">
<title>translator::Expr</title>
<!-- Node1 -->
<g id="Node000001" class="node">
<title>Node1</title>
<g id="a_Node000001"><a xlink:title=" ">
<polygon fill="#999999" stroke="none" points="212.62,-204 137.88,-204 137.88,-136 212.62,-136 212.62,-204"/>
<text xml:space="preserve" text-anchor="start" x="141.88" y="-190.5" font-family="Helvetica,sans-Serif" font-size="10.00">translator::Expr</text>
<text xml:space="preserve" text-anchor="start" x="173.75" y="-174.5" font-family="Helvetica,sans-Serif" font-size="10.00"> </text>
<text xml:space="preserve" text-anchor="start" x="148" y="-158.5" font-family="Helvetica,sans-Serif" font-size="10.00">+</text>
<text xml:space="preserve" text-anchor="start" x="164.12" y="-158.5" font-family="Helvetica,sans-Serif" font-size="10.00">~Expr()</text>
<text xml:space="preserve" text-anchor="start" x="148" y="-142.5" font-family="Helvetica,sans-Serif" font-size="10.00">+</text>
<text xml:space="preserve" text-anchor="start" x="164.12" y="-142.5" font-family="Helvetica,sans-Serif" font-size="10.00">kind()</text>
<polygon fill="#666666" stroke="#666666" points="137.88,-186 137.88,-186 212.62,-186 212.62,-186 137.88,-186"/>
<polygon fill="#666666" stroke="#666666" points="137.88,-170 137.88,-170 212.62,-170 212.62,-170 137.88,-170"/>
<polygon fill="none" stroke="#666666" points="137.88,-136 137.88,-204 212.62,-204 212.62,-136 137.88,-136"/>
</a>
</g>
</g>
<!-- Node2 -->
<g id="Node000002" class="node">
<title>Node2</title>
<g id="a_Node000002"><a xlink:href="$structtranslator_1_1_binary_expr.html" xlink:title=" ">
<polygon fill="white" stroke="none" points="102.5,-100 0,-100 0,0 102.5,0 102.5,-100"/>
<text xml:space="preserve" text-anchor="start" x="4" y="-86.5" font-family="Helvetica,sans-Serif" font-size="10.00">translator::BinaryExpr</text>
<text xml:space="preserve" text-anchor="start" x="11.62" y="-70.5" font-family="Helvetica,sans-Serif" font-size="10.00">+</text>
<text xml:space="preserve" text-anchor="start" x="29.25" y="-70.5" font-family="Helvetica,sans-Serif" font-size="10.00">op</text>
<text xml:space="preserve" text-anchor="start" x="11.62" y="-54.5" font-family="Helvetica,sans-Serif" font-size="10.00">+</text>
<text xml:space="preserve" text-anchor="start" x="29.25" y="-54.5" font-family="Helvetica,sans-Serif" font-size="10.00">lhs</text>
<text xml:space="preserve" text-anchor="start" x="11.62" y="-38.5" font-family="Helvetica,sans-Serif" font-size="10.00">+</text>
<text xml:space="preserve" text-anchor="start" x="29.25" y="-38.5" font-family="Helvetica,sans-Serif" font-size="10.00">rhs</text>
<text xml:space="preserve" text-anchor="start" x="11.62" y="-22.5" font-family="Helvetica,sans-Serif" font-size="10.00">+</text>
<text xml:space="preserve" text-anchor="start" x="29.25" y="-22.5" font-family="Helvetica,sans-Serif" font-size="10.00">BinaryExpr()</text>
<text xml:space="preserve" text-anchor="start" x="11.62" y="-6.5" font-family="Helvetica,sans-Serif" font-size="10.00">+</text>
<text xml:space="preserve" text-anchor="start" x="29.25" y="-6.5" font-family="Helvetica,sans-Serif" font-size="10.00">kind()</text>
<polygon fill="#666666" stroke="#666666" points="0,-82 0,-82 102.5,-82 102.5,-82 0,-82"/>
<polygon fill="#666666" stroke="#666666" points="0,-34 0,-34 27.25,-34 27.25,-34 0,-34"/>
<polygon fill="#666666" stroke="#666666" points="27.25,-34 27.25,-34 102.5,-34 102.5,-34 27.25,-34"/>
<polygon fill="none" stroke="#666666" points="0,0 0,-100 102.5,-100 102.5,0 0,0"/>
</a>
</g>
</g>
<!-- Node1&#45;&gt;Node2 -->
<g id="edge7_Node000001_Node000002" class="edge">
<title>Node1&#45;&gt;Node2</title>
<g id="a_edge7_Node000001_Node000002"><a xlink:title=" ">
<path fill="none" stroke="#63b8ff" d="M132.39,-128.21C122.69,-118.98 112.3,-109.09 102.3,-99.58"/>
<polygon fill="none" stroke="#63b8ff" points="129.96,-130.73 139.61,-135.09 134.78,-125.66 129.96,-130.73"/>
</a>
</g>
</g>
<!-- Node3 -->
<g id="Node000003" class="node">
<title>Node3</title>
<g id="a_Node000003"><a xlink:href="$structtranslator_1_1_number_expr.html" xlink:title=" ">
<polygon fill="white" stroke="none" points="229.88,-84 120.62,-84 120.62,-16 229.88,-16 229.88,-84"/>
<text xml:space="preserve" text-anchor="start" x="124.62" y="-70.5" font-family="Helvetica,sans-Serif" font-size="10.00">translator::NumberExpr</text>
<text xml:space="preserve" text-anchor="start" x="132.25" y="-54.5" font-family="Helvetica,sans-Serif" font-size="10.00">+</text>
<text xml:space="preserve" text-anchor="start" x="149.88" y="-54.5" font-family="Helvetica,sans-Serif" font-size="10.00">value</text>
<text xml:space="preserve" text-anchor="start" x="132.25" y="-38.5" font-family="Helvetica,sans-Serif" font-size="10.00">+</text>
<text xml:space="preserve" text-anchor="start" x="149.88" y="-38.5" font-family="Helvetica,sans-Serif" font-size="10.00">NumberExpr()</text>
<text xml:space="preserve" text-anchor="start" x="132.25" y="-22.5" font-family="Helvetica,sans-Serif" font-size="10.00">+</text>
<text xml:space="preserve" text-anchor="start" x="149.88" y="-22.5" font-family="Helvetica,sans-Serif" font-size="10.00">kind()</text>
<polygon fill="#666666" stroke="#666666" points="120.62,-66 120.62,-66 229.88,-66 229.88,-66 120.62,-66"/>
<polygon fill="#666666" stroke="#666666" points="120.62,-50 120.62,-50 147.88,-50 147.88,-50 120.62,-50"/>
<polygon fill="#666666" stroke="#666666" points="147.88,-50 147.88,-50 229.88,-50 229.88,-50 147.88,-50"/>
<polygon fill="none" stroke="#666666" points="120.62,-16 120.62,-84 229.88,-84 229.88,-16 120.62,-16"/>
</a>
</g>
</g>
<!-- Node1&#45;&gt;Node3 -->
<g id="edge8_Node000001_Node000003" class="edge">
<title>Node1&#45;&gt;Node3</title>
<g id="a_edge8_Node000001_Node000003"><a xlink:title=" ">
<path fill="none" stroke="#63b8ff" d="M175.25,-124.98C175.25,-111.29 175.25,-96.46 175.25,-83.69"/>
<polygon fill="none" stroke="#63b8ff" points="171.75,-124.62 175.25,-134.62 178.75,-124.62 171.75,-124.62"/>
</a>
</g>
</g>
<!-- Node4 -->
<g id="Node000004" class="node">
<title>Node4</title>
<g id="a_Node000004"><a xlink:href="$structtranslator_1_1_variable_expr.html" xlink:title=" ">
<polygon fill="white" stroke="none" points="356.88,-84 247.62,-84 247.62,-16 356.88,-16 356.88,-84"/>
<text xml:space="preserve" text-anchor="start" x="251.62" y="-70.5" font-family="Helvetica,sans-Serif" font-size="10.00">translator::VariableExpr</text>
<text xml:space="preserve" text-anchor="start" x="259.25" y="-54.5" font-family="Helvetica,sans-Serif" font-size="10.00">+</text>
<text xml:space="preserve" text-anchor="start" x="276.88" y="-54.5" font-family="Helvetica,sans-Serif" font-size="10.00">name</text>
<text xml:space="preserve" text-anchor="start" x="259.25" y="-38.5" font-family="Helvetica,sans-Serif" font-size="10.00">+</text>
<text xml:space="preserve" text-anchor="start" x="276.88" y="-38.5" font-family="Helvetica,sans-Serif" font-size="10.00">VariableExpr()</text>
<text xml:space="preserve" text-anchor="start" x="259.25" y="-22.5" font-family="Helvetica,sans-Serif" font-size="10.00">+</text>
<text xml:space="preserve" text-anchor="start" x="276.88" y="-22.5" font-family="Helvetica,sans-Serif" font-size="10.00">kind()</text>
<polygon fill="#666666" stroke="#666666" points="247.62,-66 247.62,-66 356.88,-66 356.88,-66 247.62,-66"/>
<polygon fill="#666666" stroke="#666666" points="247.62,-50 247.62,-50 274.88,-50 274.88,-50 247.62,-50"/>
<polygon fill="#666666" stroke="#666666" points="274.88,-50 274.88,-50 356.88,-50 356.88,-50 274.88,-50"/>
<polygon fill="none" stroke="#666666" points="247.62,-16 247.62,-84 356.88,-84 356.88,-16 247.62,-16"/>
</a>
</g>
</g>
<!-- Node1&#45;&gt;Node4 -->
<g id="edge9_Node000001_Node000004" class="edge">
<title>Node1&#45;&gt;Node4</title>
<g id="a_edge9_Node000001_Node000004"><a xlink:title=" ">
<path fill="none" stroke="#63b8ff" d="M218.69,-128.64C234.46,-113.98 252.09,-97.61 267.06,-83.69"/>
<polygon fill="none" stroke="#63b8ff" points="216.68,-125.73 211.74,-135.1 221.44,-130.86 216.68,-125.73"/>
</a>
</g>
</g>
</g>
</svg>
