<?xml version="1.0" encoding="UTF-8" standalone="no"?>
<!DOCTYPE svg PUBLIC "-//W3C//DTD SVG 1.1//EN"
 "http://www.w3.org/Graphics/SVG/1.1/DTD/svg11.dtd">
<!-- Generated by graphviz version 14.0.1 (20251006.0113)
 -->
<!-- Title: src/translator/token.h Pages: 1 -->
<svg width="264pt" height="140pt"
 viewBox="0.00 0.00 264.00 140.00" xmlns="http://www.w3.org/2000/svg" xmlns:xlink="http://www.w3.org/1999/xlink">
<g id="graph0" class="graph" transform="scale(1 1) rotate(0) translate(4 136)">
<title>src/translator/token.h</title>
<!-- Node1 -->
<g id="Node000001" class="node">
<title>Node1</title>
<g id="a_Node000001"><a xlink:title="Leksik belirteç türleri ve veri yapısı">
<polygon fill="#999999" stroke="#666666" points="180,-132 71.75,-132 71.75,-112 180,-112 180,-132"/>
<text xml:space="preserve" text-anchor="middle" x="125.88" y="-118.5" font-family="Helvetica,sans-Serif" font-size="10.00">src/translator/token.h</text>
</a>
</g>
</g>
<!-- Node2 -->
<g id="Node000002" class="node">
<title>Node2</title>
<g id="a_Node000002"><a xlink:href="$lexer_8h.html" xlink:title="BASIC benzeri dil için leksik analizci arabirimi.">
<polygon fill="white" stroke="#666666" points="115.5,-76 10.25,-76 10.25,-56 115.5,-56 115.5,-76"/>
<text xml:space="preserve" text-anchor="middle" x="62.88" y="-62.5" font-family="Helvetica,sans-Serif" font-size="10.00">src/translator/lexer.h</text>
</a>
</g>
</g>
<!-- Node1&#45;&gt;Node2 -->
<g id="edge9_Node000001_Node000002" class="edge">
<title>Node1&#45;&gt;Node2</title>
<g id="a_edge9_Node000001_Node000002"><a xlink:title=" ">
<path fill="none" stroke="#63b8ff" d="M106.19,-104.13C95.47,-94.94 82.63,-83.93 73.72,-76.3"/>
<polygon fill="#63b8ff" stroke="#63b8ff" points="103.88,-106.76 113.75,-110.61 108.44,-101.44 103.88,-106.76"/>
</a>
</g>
</g>
<!-- Node4 -->
<g id="Node000004" class="node">
<title>Node4</title>
<g id="a_Node000004"><a xlink:href="$parser_8h.html" xlink:title="Leksik belirteçlerden AST üreten sözdizim analizcisi.">
<polygon fill="white" stroke="#666666" points="247.5,-76 136.25,-76 136.25,-56 247.5,-56 247.5,-76"/>
<text xml:space="preserve" text-anchor="middle" x="191.88" y="-62.5" font-family="Helvetica,sans-Serif" font-size="10.00">src/translator/parser.h</text>
</a>
</g>
</g>
<!-- Node1&#45;&gt;Node4 -->
<g id="edge11_Node000001_Node000004" class="edge">
<title>Node1&#45;&gt;Node4</title>
<g id="a_edge11_Node000001_Node000004"><a xlink:title=" ">
<path fill="none" stroke="#63b8ff" d="M146.16,-104.4C157.45,-95.17 171.09,-84.01 180.51,-76.3"/>
<polygon fill="#63b8ff" stroke="#63b8ff" points="144.07,-101.59 138.54,-110.64 148.5,-107.01 144.07,-101.59"/>
</a>
</g>
</g>
<!-- Node3 -->
<g id="Node000003" class="node">
<title>Node3</title>
<g id="a_Node000003"><a xlink:href="$lexer_8cpp.html" xlink:title="Lexer uygulaması: girdi kaynağını Token listesine dönüştürür.">
<polygon fill="white" stroke="#666666" points="115.75,-20 0,-20 0,0 115.75,0 115.75,-20"/>
<text xml:space="preserve" text-anchor="middle" x="57.88" y="-6.5" font-family="Helvetica,sans-Serif" font-size="10.00">src/translator/lexer.cpp</text>
</a>
</g>
</g>
<!-- Node2&#45;&gt;Node3 -->
<g id="edge10_Node000002_Node000003" class="edge">
<title>Node2&#45;&gt;Node3</title>
<g id="a_edge10_Node000002_Node000003"><a xlink:title=" ">
<path fill="none" stroke="#63b8ff" d="M60.94,-44.13C60.18,-35.9 59.34,-26.85 58.74,-20.3"/>
<polygon fill="#63b8ff" stroke="#63b8ff" points="57.46,-44.45 61.86,-54.09 64.43,-43.81 57.46,-44.45"/>
</a>
</g>
</g>
<!-- Node5 -->
<g id="Node000005" class="node">
<title>Node5</title>
<g id="a_Node000005"><a xlink:href="$parser_8cpp.html" xlink:title="Parser uygulaması: Token dizisinden AST üretir.">
<polygon fill="white" stroke="#666666" points="255.75,-20 134,-20 134,0 255.75,0 255.75,-20"/>
<text xml:space="preserve" text-anchor="middle" x="194.88" y="-6.5" font-family="Helvetica,sans-Serif" font-size="10.00">src/translator/parser.cpp</text>
</a>
</g>
</g>
<!-- Node4&#45;&gt;Node5 -->
<g id="edge12_Node000004_Node000005" class="edge">
<title>Node4&#45;&gt;Node5</title>
<g id="a_edge12_Node000004_Node000005"><a xlink:title=" ">
<path fill="none" stroke="#63b8ff" d="M193.03,-44.13C193.49,-35.9 193.99,-26.85 194.36,-20.3"/>
<polygon fill="#63b8ff" stroke="#63b8ff" points="189.54,-43.9 192.48,-54.08 196.53,-44.29 189.54,-43.9"/>
</a>
</g>
</g>
</g>
</svg>
